<svg width="20" height="21" viewBox="0 0 20 21" fill="none" xmlns="http://www.w3.org/2000/svg">
<g opacity="0.8" clip-path="url(#clip0_4177_20197)">
<mask id="mask0_4177_20197" style="mask-type:luminance" maskUnits="userSpaceOnUse" x="0" y="0" width="20" height="21">
<path d="M20 0.5H0V20.5H20V0.5Z" fill="white"/>
</mask>
<g mask="url(#mask0_4177_20197)">
<path d="M15 6.46663C14.95 6.45829 14.8917 6.45829 14.8417 6.46663C13.6917 6.42496 12.775 5.48329 12.775 4.31663C12.775 3.12496 13.7334 2.16663 14.925 2.16663C16.1167 2.16663 17.075 3.13329 17.075 4.31663C17.0667 5.48329 16.15 6.42496 15 6.46663Z" stroke="white" stroke-width="0.8" stroke-linecap="round" stroke-linejoin="round"/>
<path d="M14.1416 12.5335C15.2832 12.7251 16.5416 12.5251 17.4249 11.9335C18.5999 11.1501 18.5999 9.86679 17.4249 9.08346C16.5332 8.49176 15.2582 8.29176 14.1166 8.49176" stroke="white" stroke-width="0.8" stroke-linecap="round" stroke-linejoin="round"/>
<path d="M4.97502 6.46663C5.02502 6.45829 5.08336 6.45829 5.13336 6.46663C6.28336 6.42496 7.20002 5.48329 7.20002 4.31663C7.20002 3.12496 6.24169 2.16663 5.05002 2.16663C3.85836 2.16663 2.90002 3.13329 2.90002 4.31663C2.90836 5.48329 3.82502 6.42496 4.97502 6.46663Z" stroke="white" stroke-width="0.8" stroke-linecap="round" stroke-linejoin="round"/>
<path d="M5.83328 12.5335C4.69162 12.7251 3.43328 12.5251 2.54995 11.9335C1.37495 11.1501 1.37495 9.86679 2.54995 9.08346C3.44162 8.49176 4.71662 8.29176 5.85828 8.49176" stroke="white" stroke-width="0.8" stroke-linecap="round" stroke-linejoin="round"/>
<path d="M10 12.6913C9.95004 12.683 9.89171 12.683 9.84171 12.6913C8.69171 12.6497 7.77502 11.708 7.77502 10.5413C7.77502 9.34967 8.73337 8.39136 9.92504 8.39136C11.1167 8.39136 12.075 9.358 12.075 10.5413C12.0667 11.708 11.15 12.658 10 12.6913Z" stroke="white" stroke-width="0.8" stroke-linecap="round" stroke-linejoin="round"/>
<path d="M7.57522 15.3161C6.40022 16.0994 6.40022 17.3827 7.57522 18.1661C8.90854 19.0577 11.0919 19.0577 12.4252 18.1661C13.6002 17.3827 13.6002 16.0994 12.4252 15.3161C11.1002 14.4327 8.90854 14.4327 7.57522 15.3161Z" stroke="white" stroke-width="0.8" stroke-linecap="round" stroke-linejoin="round"/>
</g>
</g>
<defs>
<clipPath id="clip0_4177_20197">
<rect width="20" height="20" fill="white" transform="translate(0 0.5)"/>
</clipPath>
</defs>
</svg>
