<svg width="20" height="21" viewBox="0 0 20 21" fill="none" xmlns="http://www.w3.org/2000/svg">
<g opacity="0.8" clip-path="url(#clip0_4177_20180)">
<mask id="path-1-inside-1_4177_20180" fill="white">
<path d="M6.33898 0.490758C6.41124 0.490187 6.41124 0.490187 6.48496 0.489604C6.64021 0.48863 6.79546 0.488103 6.95071 0.487859C6.99043 0.487783 6.99043 0.487783 7.03095 0.487706C7.92473 0.48641 8.8031 0.5211 9.68753 0.656316C9.73624 0.66363 9.78495 0.670944 9.83514 0.67848C11.1391 0.881079 12.8721 1.24323 13.75 2.336C13.9359 2.64632 14.0297 2.89495 14.0279 3.25485C14.0279 3.28421 14.0279 3.31357 14.0279 3.34382C14.0279 3.44062 14.0276 3.53742 14.0273 3.63422C14.0272 3.70143 14.0271 3.76865 14.0271 3.83586C14.027 4.01259 14.0266 4.18931 14.0261 4.36604C14.0257 4.54645 14.0256 4.72685 14.0254 4.90726C14.025 5.26111 14.0243 5.61496 14.0235 5.96882C14.0676 5.95776 14.1117 5.94671 14.1572 5.93532C14.2165 5.92083 14.2757 5.90636 14.335 5.8919C14.3784 5.88097 14.3784 5.88097 14.4227 5.86981C14.7015 5.80241 14.972 5.78999 15.2583 5.79434C15.3398 5.79548 15.4212 5.79514 15.5027 5.79464C15.9714 5.79528 16.4305 5.85091 16.8482 6.07624C16.8743 6.08988 16.9005 6.10352 16.9275 6.11758C17.1365 6.22936 17.3239 6.35645 17.5 6.51569C17.5358 6.54673 17.5358 6.54673 17.5722 6.5784C18.072 7.0409 18.3389 7.72792 18.3695 8.39966C18.3742 8.57731 18.3726 8.75485 18.3708 8.93253C18.3706 8.99738 18.3705 9.06222 18.3703 9.12707C18.3699 9.29564 18.3688 9.4642 18.3674 9.63277C18.3662 9.80562 18.3657 9.97847 18.3651 10.1513C18.3639 10.4889 18.3619 10.8265 18.3594 11.1641C18.3834 11.1638 18.4075 11.1636 18.4322 11.1633C18.4638 11.163 18.4954 11.1628 18.5279 11.1626C18.5592 11.1623 18.5905 11.162 18.6227 11.1617C19.0022 11.172 19.3077 11.4148 19.5679 11.6672C19.8565 11.9751 20.0043 12.3059 20.0058 12.7256C20.0059 12.7531 20.0061 12.7805 20.0062 12.8088C20.0066 12.9007 20.0068 12.9926 20.0069 13.0845C20.0072 13.1504 20.0074 13.2163 20.0077 13.2822C20.0085 13.4987 20.0089 13.7151 20.0093 13.9316C20.0095 14.0062 20.0097 14.0809 20.0098 14.1555C20.0106 14.5062 20.0111 14.8569 20.0114 15.2076C20.0118 15.6119 20.0128 16.0162 20.0144 16.4204C20.0156 16.7332 20.0162 17.046 20.0163 17.3589C20.0164 17.5455 20.0168 17.7322 20.0177 17.9188C20.0187 18.0946 20.0188 18.2704 20.0184 18.4462C20.0184 18.5105 20.0186 18.5747 20.0192 18.639C20.0232 19.1497 19.9563 19.5584 19.6094 19.9532C19.5898 19.9769 19.5702 20.0005 19.55 20.0249C19.3363 20.2631 19.0266 20.4392 18.711 20.5001C18.6202 20.5039 18.5293 20.5055 18.4385 20.5058C18.4111 20.506 18.3837 20.5061 18.3554 20.5062C18.2635 20.5067 18.1716 20.5068 18.0797 20.507C18.0138 20.5072 17.9479 20.5075 17.882 20.5078C17.6655 20.5086 17.449 20.509 17.2325 20.5094C17.1579 20.5095 17.0833 20.5097 17.0087 20.5099C16.658 20.5106 16.3073 20.5112 15.9565 20.5115C15.5523 20.5119 15.148 20.5129 14.7437 20.5145C14.4309 20.5156 14.1181 20.5162 13.8053 20.5164C13.6186 20.5164 13.432 20.5168 13.2453 20.5178C13.0695 20.5187 12.8937 20.5189 12.7179 20.5185C12.6537 20.5184 12.5894 20.5187 12.5252 20.5192C11.9895 20.5235 11.5764 20.4458 11.1719 20.0704C10.9832 19.8839 10.8412 19.6922 10.7422 19.4454C10.7288 19.4133 10.7154 19.3812 10.7016 19.3481C10.652 19.1669 10.6544 18.9991 10.6565 18.8121C10.6566 18.7554 10.6566 18.7554 10.6568 18.6975C10.6572 18.5773 10.6582 18.4572 10.6592 18.337C10.6596 18.2552 10.66 18.1735 10.6603 18.0918C10.6611 17.8919 10.6625 17.6921 10.6641 17.4923C10.6151 17.5025 10.5661 17.5128 10.5157 17.5234C10.0927 17.611 9.6721 17.6834 9.24319 17.734C9.19115 17.7404 9.13912 17.7469 9.08709 17.7534C8.42274 17.8342 7.76825 17.8532 7.09963 17.8536C7.05372 17.8536 7.00781 17.8536 6.9605 17.8537C6.19633 17.853 5.44551 17.8256 4.68753 17.7266C4.64923 17.7217 4.64923 17.7217 4.61015 17.7166C3.27231 17.5411 1.75286 17.2593 0.664088 16.3985C0.617787 16.3625 0.617787 16.3625 0.570552 16.3257C0.299259 16.1012 0.11604 15.8332 2.53916e-05 15.5001C-0.00985741 15.3951 -0.00985718 15.3951 -0.010024 15.2794C-0.0102759 15.2351 -0.0105279 15.1908 -0.0107875 15.1452C-0.0106665 15.0968 -0.0105456 15.0484 -0.0104209 14.9985C-0.0105669 14.9463 -0.0107467 14.8942 -0.0109574 14.8421C-0.0114354 14.6989 -0.011425 14.5557 -0.0113329 14.4126C-0.0113169 14.2581 -0.0117479 14.1037 -0.0121185 13.9492C-0.0127675 13.6466 -0.0129821 13.3441 -0.0130256 13.0415C-0.0130628 12.7955 -0.0132232 12.5495 -0.0134709 12.3035C-0.014159 11.6061 -0.0145195 10.9087 -0.0144609 10.2113C-0.0144578 10.1737 -0.0144546 10.1361 -0.0144514 10.0973C-0.0144482 10.0597 -0.0144451 10.022 -0.0144418 9.98323C-0.0144101 9.3732 -0.0151575 8.76317 -0.0162592 8.15314C-0.0173815 7.52673 -0.0179205 6.90031 -0.017853 6.2739C-0.0178271 5.92223 -0.018042 5.57057 -0.018883 5.2189C-0.0195945 4.91946 -0.0197638 4.62002 -0.0192335 4.32057C-0.0189785 4.16784 -0.0189738 4.01511 -0.0196519 3.86238C-0.0202668 3.72242 -0.0201543 3.58249 -0.0194737 3.44253C-0.0192973 3.3682 -0.0198867 3.29387 -0.0205078 3.21954C-0.01671 2.7474 0.152073 2.43427 0.470606 2.09446C1.8699 0.739768 4.49974 0.502906 6.33898 0.490758ZM4.64846 1.32038C4.57915 1.33043 4.57915 1.33043 4.50844 1.34069C3.62527 1.47054 2.7294 1.64846 1.91409 2.0235C1.8788 2.03951 1.8788 2.03951 1.84279 2.05583C1.40789 2.25489 1.02838 2.49111 0.742213 2.88288C0.678761 3.07323 0.66248 3.2509 0.739009 3.44043C1.1921 4.19781 2.30365 4.5029 3.09632 4.71367C4.9604 5.18183 6.95751 5.2827 8.86721 5.07038C8.9353 5.06283 8.9353 5.06283 9.00477 5.05512C10.3431 4.90044 12.2457 4.65558 13.1854 3.55243C13.2988 3.38551 13.3409 3.24859 13.3066 3.04584C13.1849 2.63808 12.8302 2.41328 12.4765 2.2176C11.5159 1.70682 10.4447 1.47354 9.37503 1.32038C9.33564 1.31448 9.29626 1.30858 9.25568 1.30251C7.76993 1.09019 6.1312 1.09111 4.64846 1.32038ZM13.1031 4.5235C10.4161 6.23119 6.24371 6.09272 3.25779 5.44369C2.46648 5.26121 1.56826 5.01998 0.902735 4.53266C0.795629 4.43778 0.795629 4.43778 0.70315 4.44538C0.698614 4.81687 0.695149 5.18835 0.693031 5.55986C0.692014 5.73239 0.690636 5.9049 0.688416 6.07742C0.686286 6.24408 0.685125 6.41072 0.68462 6.57739C0.68426 6.64081 0.683558 6.70422 0.6825 6.76763C0.669137 7.24403 0.669137 7.24403 0.898463 7.6485C0.921525 7.6766 0.944587 7.7047 0.968348 7.73365C2.41903 9.07321 5.08965 9.15073 6.95315 9.14509C7.00205 9.14501 7.05095 9.14494 7.10133 9.14487C7.84021 9.14306 8.56517 9.12446 9.2969 9.01569C9.36831 9.00532 9.36831 9.00532 9.44117 8.99475C10.9735 8.80144 10.9735 8.80144 12.3438 8.15632C12.3902 8.03614 12.3902 8.03614 12.4146 7.89509C12.5479 7.31988 12.8222 6.88536 13.2422 6.47663C13.3284 6.40672 13.3284 6.40672 13.3297 6.31348C13.3296 6.27826 13.3294 6.24304 13.3292 6.20676C13.3292 6.16688 13.3292 6.127 13.3292 6.08591C13.3288 6.04274 13.3284 5.99956 13.328 5.95508C13.3279 5.91097 13.3277 5.86687 13.3276 5.82142C13.3272 5.68012 13.3262 5.53883 13.3252 5.39753C13.3248 5.30191 13.3245 5.20628 13.3242 5.11066C13.3233 4.87588 13.322 4.6411 13.3203 4.40632C13.242 4.40632 13.165 4.48213 13.1031 4.5235ZM13.4766 7.21882C13.1447 7.64803 13.0025 8.10109 13.0034 8.64085C13.0034 8.66832 13.0034 8.69579 13.0034 8.7241C13.0034 8.81392 13.0037 8.90374 13.004 8.99357C13.0041 9.05623 13.0042 9.1189 13.0042 9.18156C13.0043 9.34577 13.0047 9.50997 13.0052 9.67417C13.0056 9.84202 13.0057 10.0099 13.0059 10.1777C13.0063 10.5065 13.007 10.8353 13.0078 11.1641C13.2141 11.1641 13.4203 11.1641 13.6328 11.1641C13.6334 11.0826 13.634 11.001 13.6346 10.917C13.6365 10.6458 13.6391 10.3747 13.642 10.1036C13.6438 9.93939 13.6453 9.77519 13.6464 9.61099C13.6474 9.45218 13.649 9.29338 13.6509 9.13457C13.6516 9.07435 13.652 9.01411 13.6523 8.95388C13.6545 8.45372 13.6773 7.96336 14.0235 7.57038C14.41 7.21209 14.8115 7.17217 15.3198 7.16999C15.366 7.16918 15.4121 7.16838 15.4597 7.16755C15.8993 7.1656 16.2607 7.24203 16.6016 7.53132C16.8981 7.84404 16.995 8.20837 17.0002 8.63198C17.0006 8.65944 17.001 8.6869 17.0014 8.71519C17.0026 8.80544 17.0036 8.89569 17.0046 8.98594C17.0054 9.04871 17.0062 9.11149 17.007 9.17427C17.0092 9.33911 17.0111 9.50396 17.013 9.66881C17.015 9.83718 17.0171 10.0055 17.0193 10.1739C17.0235 10.504 17.0274 10.8341 17.0313 11.1641C17.2375 11.1641 17.4438 11.1641 17.6563 11.1641C17.6589 10.8011 17.6611 10.4381 17.6623 10.075C17.663 9.90642 17.6638 9.73781 17.6651 9.56919C17.6664 9.40608 17.6671 9.24298 17.6674 9.07986C17.6676 9.01802 17.668 8.95619 17.6687 8.89435C17.6758 8.17818 17.55 7.60482 17.0452 7.07126C16.5528 6.60669 15.9948 6.5018 15.3394 6.50348C15.2909 6.50285 15.2423 6.50222 15.1924 6.50158C14.5047 6.50122 13.9484 6.70752 13.4766 7.21882ZM14.4776 8.0904C14.3515 8.2989 14.3262 8.5072 14.3271 8.74728C14.3271 8.77361 14.3271 8.79994 14.3271 8.82706C14.3271 8.91309 14.3277 8.9991 14.3283 9.08512C14.3285 9.14516 14.3286 9.2052 14.3287 9.26523C14.329 9.4225 14.3297 9.57977 14.3306 9.73704C14.3315 9.92613 14.3319 10.1152 14.3324 10.3043C14.3331 10.5909 14.3346 10.8775 14.336 11.1641C14.9934 11.1641 15.6508 11.1641 16.3281 11.1641C16.3316 10.6858 16.3316 10.6858 16.3339 10.2074C16.3346 10.0121 16.3354 9.81685 16.337 9.62158C16.3383 9.46404 16.339 9.30651 16.3393 9.14896C16.3395 9.08904 16.3399 9.02911 16.3405 8.96919C16.3625 8.48262 16.3625 8.48262 16.1584 8.05854C15.9061 7.83213 15.6611 7.82957 15.3394 7.82917C15.3 7.82821 15.2607 7.82725 15.2201 7.82627C14.9179 7.82509 14.6975 7.87625 14.4776 8.0904ZM0.70315 8.42975C0.699526 8.80769 0.696752 9.18561 0.695055 9.56356C0.69424 9.73907 0.693136 9.91456 0.691363 10.0901C0.689662 10.2595 0.688731 10.4289 0.688326 10.5984C0.688038 10.663 0.687475 10.7275 0.68663 10.7921C0.685492 10.8827 0.68534 10.9733 0.685412 11.0639C0.685065 11.1154 0.684718 11.1669 0.684361 11.22C0.717875 11.4687 0.874702 11.6251 1.05471 11.7891C1.07601 11.8091 1.09731 11.8291 1.11926 11.8497C2.26794 12.8392 4.22557 13.0073 5.66409 13.1173C5.70468 13.1206 5.70468 13.1206 5.74608 13.1241C7.39086 13.259 9.05454 13.1143 10.6641 12.7657C10.6698 12.7312 10.6756 12.6967 10.6815 12.6612C10.7646 12.2166 10.9105 11.7922 11.2891 11.5157C11.6294 11.3085 11.8952 11.2324 12.3047 11.1641C12.3047 10.4423 12.3047 9.72038 12.3047 8.97663C12.1887 9.0153 12.0727 9.05397 11.9531 9.09382C10.5715 9.55282 9.10754 9.79914 7.65048 9.80488C7.60346 9.80515 7.55644 9.80542 7.508 9.80571C7.35723 9.80639 7.20646 9.80664 7.05569 9.80671C7.02998 9.80672 7.00427 9.80674 6.97778 9.80676C6.18165 9.80704 5.3983 9.79493 4.6094 9.67975C4.5615 9.67284 4.5136 9.66593 4.46425 9.65881C3.23412 9.47538 1.83146 9.21616 0.799586 8.47004C0.748568 8.42601 0.748568 8.42601 0.70315 8.42975ZM11.5845 12.1944C11.5596 12.2229 11.5346 12.2514 11.509 12.2808C11.3805 12.4712 11.3574 12.6539 11.3568 12.8799C11.3566 12.9062 11.3564 12.9325 11.3562 12.9596C11.3557 13.0471 11.3558 13.1346 11.3559 13.2221C11.3556 13.2851 11.3554 13.3481 11.3551 13.411C11.3544 13.5817 11.3542 13.7524 11.3541 13.9231C11.3541 14.0299 11.3539 14.1366 11.3537 14.2434C11.353 14.6161 11.3527 14.9888 11.3527 15.3615C11.3528 15.7085 11.352 16.0554 11.3507 16.4024C11.3497 16.7007 11.3493 16.9989 11.3493 17.2972C11.3494 17.4752 11.3491 17.6531 11.3483 17.8311C11.3475 17.9986 11.3475 18.166 11.3481 18.3335C11.3482 18.3948 11.348 18.456 11.3475 18.5173C11.3448 18.8933 11.3556 19.2096 11.6088 19.5063C11.6378 19.5305 11.6669 19.5547 11.6968 19.5797C11.7258 19.6046 11.7547 19.6295 11.7845 19.6552C11.9667 19.7832 12.1185 19.8068 12.3394 19.8074C12.366 19.8076 12.3925 19.8077 12.4199 19.8079C12.5088 19.8084 12.5976 19.8084 12.6864 19.8083C12.7502 19.8085 12.814 19.8088 12.8778 19.8091C13.0509 19.8098 13.224 19.81 13.3971 19.81C13.5053 19.8101 13.6136 19.8102 13.7218 19.8104C14.0995 19.8112 14.4773 19.8115 14.855 19.8114C15.2068 19.8114 15.5586 19.8122 15.9104 19.8134C16.2127 19.8144 16.515 19.8149 16.8173 19.8148C16.9977 19.8148 17.1782 19.815 17.3586 19.8158C17.5284 19.8166 17.6981 19.8166 17.8679 19.816C17.9301 19.816 17.9922 19.8161 18.0544 19.8166C18.4241 19.8192 18.6893 19.8054 18.9925 19.5752C19.0235 19.5436 19.0235 19.5436 19.0552 19.5113C19.0764 19.4905 19.0976 19.4697 19.1194 19.4483C19.2688 19.2475 19.3116 19.0623 19.312 18.8154C19.3123 18.7887 19.3125 18.7621 19.3127 18.7346C19.3132 18.646 19.313 18.5575 19.3127 18.4689C19.3129 18.4051 19.3132 18.3413 19.3135 18.2775C19.3142 18.1047 19.3141 17.9319 19.3139 17.7591C19.3138 17.6147 19.314 17.4702 19.3143 17.3258C19.3148 16.9849 19.3148 16.6441 19.3143 16.3032C19.3139 15.952 19.3144 15.6008 19.3155 15.2496C19.3163 14.9476 19.3166 14.6456 19.3164 14.3437C19.3162 14.1635 19.3163 13.9833 19.317 13.8032C19.3176 13.6337 19.3175 13.4643 19.3167 13.2948C19.3166 13.2328 19.3167 13.1707 19.3171 13.1087C19.3194 12.7354 19.3141 12.4533 19.0554 12.1617C19.0263 12.1371 18.9972 12.1124 18.9673 12.087C18.9384 12.0617 18.9094 12.0364 18.8796 12.0104C18.6989 11.8806 18.5469 11.8574 18.3265 11.8568C18.3001 11.8566 18.2737 11.8565 18.2465 11.8563C18.1583 11.8558 18.0701 11.8558 17.9819 11.8559C17.9186 11.8557 17.8552 11.8554 17.7919 11.8551C17.62 11.8544 17.4481 11.8542 17.2762 11.8542C17.1687 11.8541 17.0612 11.854 16.9537 11.8538C16.5784 11.853 16.2032 11.8527 15.8279 11.8528C15.4786 11.8528 15.1292 11.852 14.7798 11.8508C14.4796 11.8497 14.1793 11.8493 13.879 11.8494C13.6999 11.8494 13.5207 11.8492 13.3415 11.8483C13.1728 11.8476 13.0042 11.8476 12.8355 11.8482C12.7738 11.8482 12.7121 11.8481 12.6504 11.8476C12.2361 11.8446 11.8691 11.8571 11.5845 12.1944ZM0.70315 12.4141C0.697704 12.79 0.693548 13.1659 0.691007 13.5419C0.689787 13.7165 0.688134 13.891 0.685469 14.0656C0.68291 14.2343 0.681519 14.4029 0.680914 14.5716C0.680483 14.6358 0.679641 14.6999 0.67837 14.7641C0.670105 15.1986 0.71659 15.4645 1.02526 15.7871C1.77423 16.3732 2.67995 16.6244 3.59378 16.8282C3.62831 16.8359 3.66285 16.8436 3.69843 16.8515C4.28288 16.9787 4.87376 17.0456 5.46878 17.1016C5.50501 17.1054 5.54125 17.1092 5.57858 17.1131C6.04023 17.1562 6.50457 17.1502 6.9678 17.1505C7.01397 17.1505 7.06015 17.1505 7.10772 17.1505C8.29822 17.1495 9.51301 17.0789 10.6641 16.7501C10.6641 15.6673 10.6641 14.5844 10.6641 13.4688C9.94866 13.5848 9.94866 13.5848 9.21878 13.7032C8.95748 13.7338 8.69938 13.7627 8.43753 13.7813C8.38647 13.7856 8.33541 13.7899 8.2828 13.7943C5.81639 13.9819 2.81711 13.8234 0.70315 12.4141Z"/>
</mask>
<path d="M6.33898 0.490758C6.41124 0.490187 6.41124 0.490187 6.48496 0.489604C6.64021 0.48863 6.79546 0.488103 6.95071 0.487859C6.99043 0.487783 6.99043 0.487783 7.03095 0.487706C7.92473 0.48641 8.8031 0.5211 9.68753 0.656316C9.73624 0.66363 9.78495 0.670944 9.83514 0.67848C11.1391 0.881079 12.8721 1.24323 13.75 2.336C13.9359 2.64632 14.0297 2.89495 14.0279 3.25485C14.0279 3.28421 14.0279 3.31357 14.0279 3.34382C14.0279 3.44062 14.0276 3.53742 14.0273 3.63422C14.0272 3.70143 14.0271 3.76865 14.0271 3.83586C14.027 4.01259 14.0266 4.18931 14.0261 4.36604C14.0257 4.54645 14.0256 4.72685 14.0254 4.90726C14.025 5.26111 14.0243 5.61496 14.0235 5.96882C14.0676 5.95776 14.1117 5.94671 14.1572 5.93532C14.2165 5.92083 14.2757 5.90636 14.335 5.8919C14.3784 5.88097 14.3784 5.88097 14.4227 5.86981C14.7015 5.80241 14.972 5.78999 15.2583 5.79434C15.3398 5.79548 15.4212 5.79514 15.5027 5.79464C15.9714 5.79528 16.4305 5.85091 16.8482 6.07624C16.8743 6.08988 16.9005 6.10352 16.9275 6.11758C17.1365 6.22936 17.3239 6.35645 17.5 6.51569C17.5358 6.54673 17.5358 6.54673 17.5722 6.5784C18.072 7.0409 18.3389 7.72792 18.3695 8.39966C18.3742 8.57731 18.3726 8.75485 18.3708 8.93253C18.3706 8.99738 18.3705 9.06222 18.3703 9.12707C18.3699 9.29564 18.3688 9.4642 18.3674 9.63277C18.3662 9.80562 18.3657 9.97847 18.3651 10.1513C18.3639 10.4889 18.3619 10.8265 18.3594 11.1641C18.3834 11.1638 18.4075 11.1636 18.4322 11.1633C18.4638 11.163 18.4954 11.1628 18.5279 11.1626C18.5592 11.1623 18.5905 11.162 18.6227 11.1617C19.0022 11.172 19.3077 11.4148 19.5679 11.6672C19.8565 11.9751 20.0043 12.3059 20.0058 12.7256C20.0059 12.7531 20.0061 12.7805 20.0062 12.8088C20.0066 12.9007 20.0068 12.9926 20.0069 13.0845C20.0072 13.1504 20.0074 13.2163 20.0077 13.2822C20.0085 13.4987 20.0089 13.7151 20.0093 13.9316C20.0095 14.0062 20.0097 14.0809 20.0098 14.1555C20.0106 14.5062 20.0111 14.8569 20.0114 15.2076C20.0118 15.6119 20.0128 16.0162 20.0144 16.4204C20.0156 16.7332 20.0162 17.046 20.0163 17.3589C20.0164 17.5455 20.0168 17.7322 20.0177 17.9188C20.0187 18.0946 20.0188 18.2704 20.0184 18.4462C20.0184 18.5105 20.0186 18.5747 20.0192 18.639C20.0232 19.1497 19.9563 19.5584 19.6094 19.9532C19.5898 19.9769 19.5702 20.0005 19.55 20.0249C19.3363 20.2631 19.0266 20.4392 18.711 20.5001C18.6202 20.5039 18.5293 20.5055 18.4385 20.5058C18.4111 20.506 18.3837 20.5061 18.3554 20.5062C18.2635 20.5067 18.1716 20.5068 18.0797 20.507C18.0138 20.5072 17.9479 20.5075 17.882 20.5078C17.6655 20.5086 17.449 20.509 17.2325 20.5094C17.1579 20.5095 17.0833 20.5097 17.0087 20.5099C16.658 20.5106 16.3073 20.5112 15.9565 20.5115C15.5523 20.5119 15.148 20.5129 14.7437 20.5145C14.4309 20.5156 14.1181 20.5162 13.8053 20.5164C13.6186 20.5164 13.432 20.5168 13.2453 20.5178C13.0695 20.5187 12.8937 20.5189 12.7179 20.5185C12.6537 20.5184 12.5894 20.5187 12.5252 20.5192C11.9895 20.5235 11.5764 20.4458 11.1719 20.0704C10.9832 19.8839 10.8412 19.6922 10.7422 19.4454C10.7288 19.4133 10.7154 19.3812 10.7016 19.3481C10.652 19.1669 10.6544 18.9991 10.6565 18.8121C10.6566 18.7554 10.6566 18.7554 10.6568 18.6975C10.6572 18.5773 10.6582 18.4572 10.6592 18.337C10.6596 18.2552 10.66 18.1735 10.6603 18.0918C10.6611 17.8919 10.6625 17.6921 10.6641 17.4923C10.6151 17.5025 10.5661 17.5128 10.5157 17.5234C10.0927 17.611 9.6721 17.6834 9.24319 17.734C9.19115 17.7404 9.13912 17.7469 9.08709 17.7534C8.42274 17.8342 7.76825 17.8532 7.09963 17.8536C7.05372 17.8536 7.00781 17.8536 6.9605 17.8537C6.19633 17.853 5.44551 17.8256 4.68753 17.7266C4.64923 17.7217 4.64923 17.7217 4.61015 17.7166C3.27231 17.5411 1.75286 17.2593 0.664088 16.3985C0.617787 16.3625 0.617787 16.3625 0.570552 16.3257C0.299259 16.1012 0.11604 15.8332 2.53916e-05 15.5001C-0.00985741 15.3951 -0.00985718 15.3951 -0.010024 15.2794C-0.0102759 15.2351 -0.0105279 15.1908 -0.0107875 15.1452C-0.0106665 15.0968 -0.0105456 15.0484 -0.0104209 14.9985C-0.0105669 14.9463 -0.0107467 14.8942 -0.0109574 14.8421C-0.0114354 14.6989 -0.011425 14.5557 -0.0113329 14.4126C-0.0113169 14.2581 -0.0117479 14.1037 -0.0121185 13.9492C-0.0127675 13.6466 -0.0129821 13.3441 -0.0130256 13.0415C-0.0130628 12.7955 -0.0132232 12.5495 -0.0134709 12.3035C-0.014159 11.6061 -0.0145195 10.9087 -0.0144609 10.2113C-0.0144578 10.1737 -0.0144546 10.1361 -0.0144514 10.0973C-0.0144482 10.0597 -0.0144451 10.022 -0.0144418 9.98323C-0.0144101 9.3732 -0.0151575 8.76317 -0.0162592 8.15314C-0.0173815 7.52673 -0.0179205 6.90031 -0.017853 6.2739C-0.0178271 5.92223 -0.018042 5.57057 -0.018883 5.2189C-0.0195945 4.91946 -0.0197638 4.62002 -0.0192335 4.32057C-0.0189785 4.16784 -0.0189738 4.01511 -0.0196519 3.86238C-0.0202668 3.72242 -0.0201543 3.58249 -0.0194737 3.44253C-0.0192973 3.3682 -0.0198867 3.29387 -0.0205078 3.21954C-0.01671 2.7474 0.152073 2.43427 0.470606 2.09446C1.8699 0.739768 4.49974 0.502906 6.33898 0.490758ZM4.64846 1.32038C4.57915 1.33043 4.57915 1.33043 4.50844 1.34069C3.62527 1.47054 2.7294 1.64846 1.91409 2.0235C1.8788 2.03951 1.8788 2.03951 1.84279 2.05583C1.40789 2.25489 1.02838 2.49111 0.742213 2.88288C0.678761 3.07323 0.66248 3.2509 0.739009 3.44043C1.1921 4.19781 2.30365 4.5029 3.09632 4.71367C4.9604 5.18183 6.95751 5.2827 8.86721 5.07038C8.9353 5.06283 8.9353 5.06283 9.00477 5.05512C10.3431 4.90044 12.2457 4.65558 13.1854 3.55243C13.2988 3.38551 13.3409 3.24859 13.3066 3.04584C13.1849 2.63808 12.8302 2.41328 12.4765 2.2176C11.5159 1.70682 10.4447 1.47354 9.37503 1.32038C9.33564 1.31448 9.29626 1.30858 9.25568 1.30251C7.76993 1.09019 6.1312 1.09111 4.64846 1.32038ZM13.1031 4.5235C10.4161 6.23119 6.24371 6.09272 3.25779 5.44369C2.46648 5.26121 1.56826 5.01998 0.902735 4.53266C0.795629 4.43778 0.795629 4.43778 0.70315 4.44538C0.698614 4.81687 0.695149 5.18835 0.693031 5.55986C0.692014 5.73239 0.690636 5.9049 0.688416 6.07742C0.686286 6.24408 0.685125 6.41072 0.68462 6.57739C0.68426 6.64081 0.683558 6.70422 0.6825 6.76763C0.669137 7.24403 0.669137 7.24403 0.898463 7.6485C0.921525 7.6766 0.944587 7.7047 0.968348 7.73365C2.41903 9.07321 5.08965 9.15073 6.95315 9.14509C7.00205 9.14501 7.05095 9.14494 7.10133 9.14487C7.84021 9.14306 8.56517 9.12446 9.2969 9.01569C9.36831 9.00532 9.36831 9.00532 9.44117 8.99475C10.9735 8.80144 10.9735 8.80144 12.3438 8.15632C12.3902 8.03614 12.3902 8.03614 12.4146 7.89509C12.5479 7.31988 12.8222 6.88536 13.2422 6.47663C13.3284 6.40672 13.3284 6.40672 13.3297 6.31348C13.3296 6.27826 13.3294 6.24304 13.3292 6.20676C13.3292 6.16688 13.3292 6.127 13.3292 6.08591C13.3288 6.04274 13.3284 5.99956 13.328 5.95508C13.3279 5.91097 13.3277 5.86687 13.3276 5.82142C13.3272 5.68012 13.3262 5.53883 13.3252 5.39753C13.3248 5.30191 13.3245 5.20628 13.3242 5.11066C13.3233 4.87588 13.322 4.6411 13.3203 4.40632C13.242 4.40632 13.165 4.48213 13.1031 4.5235ZM13.4766 7.21882C13.1447 7.64803 13.0025 8.10109 13.0034 8.64085C13.0034 8.66832 13.0034 8.69579 13.0034 8.7241C13.0034 8.81392 13.0037 8.90374 13.004 8.99357C13.0041 9.05623 13.0042 9.1189 13.0042 9.18156C13.0043 9.34577 13.0047 9.50997 13.0052 9.67417C13.0056 9.84202 13.0057 10.0099 13.0059 10.1777C13.0063 10.5065 13.007 10.8353 13.0078 11.1641C13.2141 11.1641 13.4203 11.1641 13.6328 11.1641C13.6334 11.0826 13.634 11.001 13.6346 10.917C13.6365 10.6458 13.6391 10.3747 13.642 10.1036C13.6438 9.93939 13.6453 9.77519 13.6464 9.61099C13.6474 9.45218 13.649 9.29338 13.6509 9.13457C13.6516 9.07435 13.652 9.01411 13.6523 8.95388C13.6545 8.45372 13.6773 7.96336 14.0235 7.57038C14.41 7.21209 14.8115 7.17217 15.3198 7.16999C15.366 7.16918 15.4121 7.16838 15.4597 7.16755C15.8993 7.1656 16.2607 7.24203 16.6016 7.53132C16.8981 7.84404 16.995 8.20837 17.0002 8.63198C17.0006 8.65944 17.001 8.6869 17.0014 8.71519C17.0026 8.80544 17.0036 8.89569 17.0046 8.98594C17.0054 9.04871 17.0062 9.11149 17.007 9.17427C17.0092 9.33911 17.0111 9.50396 17.013 9.66881C17.015 9.83718 17.0171 10.0055 17.0193 10.1739C17.0235 10.504 17.0274 10.8341 17.0313 11.1641C17.2375 11.1641 17.4438 11.1641 17.6563 11.1641C17.6589 10.8011 17.6611 10.4381 17.6623 10.075C17.663 9.90642 17.6638 9.73781 17.6651 9.56919C17.6664 9.40608 17.6671 9.24298 17.6674 9.07986C17.6676 9.01802 17.668 8.95619 17.6687 8.89435C17.6758 8.17818 17.55 7.60482 17.0452 7.07126C16.5528 6.60669 15.9948 6.5018 15.3394 6.50348C15.2909 6.50285 15.2423 6.50222 15.1924 6.50158C14.5047 6.50122 13.9484 6.70752 13.4766 7.21882ZM14.4776 8.0904C14.3515 8.2989 14.3262 8.5072 14.3271 8.74728C14.3271 8.77361 14.3271 8.79994 14.3271 8.82706C14.3271 8.91309 14.3277 8.9991 14.3283 9.08512C14.3285 9.14516 14.3286 9.2052 14.3287 9.26523C14.329 9.4225 14.3297 9.57977 14.3306 9.73704C14.3315 9.92613 14.3319 10.1152 14.3324 10.3043C14.3331 10.5909 14.3346 10.8775 14.336 11.1641C14.9934 11.1641 15.6508 11.1641 16.3281 11.1641C16.3316 10.6858 16.3316 10.6858 16.3339 10.2074C16.3346 10.0121 16.3354 9.81685 16.337 9.62158C16.3383 9.46404 16.339 9.30651 16.3393 9.14896C16.3395 9.08904 16.3399 9.02911 16.3405 8.96919C16.3625 8.48262 16.3625 8.48262 16.1584 8.05854C15.9061 7.83213 15.6611 7.82957 15.3394 7.82917C15.3 7.82821 15.2607 7.82725 15.2201 7.82627C14.9179 7.82509 14.6975 7.87625 14.4776 8.0904ZM0.70315 8.42975C0.699526 8.80769 0.696752 9.18561 0.695055 9.56356C0.69424 9.73907 0.693136 9.91456 0.691363 10.0901C0.689662 10.2595 0.688731 10.4289 0.688326 10.5984C0.688038 10.663 0.687475 10.7275 0.68663 10.7921C0.685492 10.8827 0.68534 10.9733 0.685412 11.0639C0.685065 11.1154 0.684718 11.1669 0.684361 11.22C0.717875 11.4687 0.874702 11.6251 1.05471 11.7891C1.07601 11.8091 1.09731 11.8291 1.11926 11.8497C2.26794 12.8392 4.22557 13.0073 5.66409 13.1173C5.70468 13.1206 5.70468 13.1206 5.74608 13.1241C7.39086 13.259 9.05454 13.1143 10.6641 12.7657C10.6698 12.7312 10.6756 12.6967 10.6815 12.6612C10.7646 12.2166 10.9105 11.7922 11.2891 11.5157C11.6294 11.3085 11.8952 11.2324 12.3047 11.1641C12.3047 10.4423 12.3047 9.72038 12.3047 8.97663C12.1887 9.0153 12.0727 9.05397 11.9531 9.09382C10.5715 9.55282 9.10754 9.79914 7.65048 9.80488C7.60346 9.80515 7.55644 9.80542 7.508 9.80571C7.35723 9.80639 7.20646 9.80664 7.05569 9.80671C7.02998 9.80672 7.00427 9.80674 6.97778 9.80676C6.18165 9.80704 5.3983 9.79493 4.6094 9.67975C4.5615 9.67284 4.5136 9.66593 4.46425 9.65881C3.23412 9.47538 1.83146 9.21616 0.799586 8.47004C0.748568 8.42601 0.748568 8.42601 0.70315 8.42975ZM11.5845 12.1944C11.5596 12.2229 11.5346 12.2514 11.509 12.2808C11.3805 12.4712 11.3574 12.6539 11.3568 12.8799C11.3566 12.9062 11.3564 12.9325 11.3562 12.9596C11.3557 13.0471 11.3558 13.1346 11.3559 13.2221C11.3556 13.2851 11.3554 13.3481 11.3551 13.411C11.3544 13.5817 11.3542 13.7524 11.3541 13.9231C11.3541 14.0299 11.3539 14.1366 11.3537 14.2434C11.353 14.6161 11.3527 14.9888 11.3527 15.3615C11.3528 15.7085 11.352 16.0554 11.3507 16.4024C11.3497 16.7007 11.3493 16.9989 11.3493 17.2972C11.3494 17.4752 11.3491 17.6531 11.3483 17.8311C11.3475 17.9986 11.3475 18.166 11.3481 18.3335C11.3482 18.3948 11.348 18.456 11.3475 18.5173C11.3448 18.8933 11.3556 19.2096 11.6088 19.5063C11.6378 19.5305 11.6669 19.5547 11.6968 19.5797C11.7258 19.6046 11.7547 19.6295 11.7845 19.6552C11.9667 19.7832 12.1185 19.8068 12.3394 19.8074C12.366 19.8076 12.3925 19.8077 12.4199 19.8079C12.5088 19.8084 12.5976 19.8084 12.6864 19.8083C12.7502 19.8085 12.814 19.8088 12.8778 19.8091C13.0509 19.8098 13.224 19.81 13.3971 19.81C13.5053 19.8101 13.6136 19.8102 13.7218 19.8104C14.0995 19.8112 14.4773 19.8115 14.855 19.8114C15.2068 19.8114 15.5586 19.8122 15.9104 19.8134C16.2127 19.8144 16.515 19.8149 16.8173 19.8148C16.9977 19.8148 17.1782 19.815 17.3586 19.8158C17.5284 19.8166 17.6981 19.8166 17.8679 19.816C17.9301 19.816 17.9922 19.8161 18.0544 19.8166C18.4241 19.8192 18.6893 19.8054 18.9925 19.5752C19.0235 19.5436 19.0235 19.5436 19.0552 19.5113C19.0764 19.4905 19.0976 19.4697 19.1194 19.4483C19.2688 19.2475 19.3116 19.0623 19.312 18.8154C19.3123 18.7887 19.3125 18.7621 19.3127 18.7346C19.3132 18.646 19.313 18.5575 19.3127 18.4689C19.3129 18.4051 19.3132 18.3413 19.3135 18.2775C19.3142 18.1047 19.3141 17.9319 19.3139 17.7591C19.3138 17.6147 19.314 17.4702 19.3143 17.3258C19.3148 16.9849 19.3148 16.6441 19.3143 16.3032C19.3139 15.952 19.3144 15.6008 19.3155 15.2496C19.3163 14.9476 19.3166 14.6456 19.3164 14.3437C19.3162 14.1635 19.3163 13.9833 19.317 13.8032C19.3176 13.6337 19.3175 13.4643 19.3167 13.2948C19.3166 13.2328 19.3167 13.1707 19.3171 13.1087C19.3194 12.7354 19.3141 12.4533 19.0554 12.1617C19.0263 12.1371 18.9972 12.1124 18.9673 12.087C18.9384 12.0617 18.9094 12.0364 18.8796 12.0104C18.6989 11.8806 18.5469 11.8574 18.3265 11.8568C18.3001 11.8566 18.2737 11.8565 18.2465 11.8563C18.1583 11.8558 18.0701 11.8558 17.9819 11.8559C17.9186 11.8557 17.8552 11.8554 17.7919 11.8551C17.62 11.8544 17.4481 11.8542 17.2762 11.8542C17.1687 11.8541 17.0612 11.854 16.9537 11.8538C16.5784 11.853 16.2032 11.8527 15.8279 11.8528C15.4786 11.8528 15.1292 11.852 14.7798 11.8508C14.4796 11.8497 14.1793 11.8493 13.879 11.8494C13.6999 11.8494 13.5207 11.8492 13.3415 11.8483C13.1728 11.8476 13.0042 11.8476 12.8355 11.8482C12.7738 11.8482 12.7121 11.8481 12.6504 11.8476C12.2361 11.8446 11.8691 11.8571 11.5845 12.1944ZM0.70315 12.4141C0.697704 12.79 0.693548 13.1659 0.691007 13.5419C0.689787 13.7165 0.688134 13.891 0.685469 14.0656C0.68291 14.2343 0.681519 14.4029 0.680914 14.5716C0.680483 14.6358 0.679641 14.6999 0.67837 14.7641C0.670105 15.1986 0.71659 15.4645 1.02526 15.7871C1.77423 16.3732 2.67995 16.6244 3.59378 16.8282C3.62831 16.8359 3.66285 16.8436 3.69843 16.8515C4.28288 16.9787 4.87376 17.0456 5.46878 17.1016C5.50501 17.1054 5.54125 17.1092 5.57858 17.1131C6.04023 17.1562 6.50457 17.1502 6.9678 17.1505C7.01397 17.1505 7.06015 17.1505 7.10772 17.1505C8.29822 17.1495 9.51301 17.0789 10.6641 16.7501C10.6641 15.6673 10.6641 14.5844 10.6641 13.4688C9.94866 13.5848 9.94866 13.5848 9.21878 13.7032C8.95748 13.7338 8.69938 13.7627 8.43753 13.7813C8.38647 13.7856 8.33541 13.7899 8.2828 13.7943C5.81639 13.9819 2.81711 13.8234 0.70315 12.4141Z" stroke="white" stroke-width="1.6" mask="url(#path-1-inside-1_4177_20180)"/>
<mask id="path-2-inside-2_4177_20180" fill="white">
<path d="M16.4918 13.9058C16.8168 14.2036 17.0019 14.6334 17.0376 15.0683C17.0595 15.5992 16.8485 16.031 16.506 16.4206C16.4454 16.4766 16.4454 16.4766 16.3673 16.4766C16.3679 16.4986 16.3685 16.5206 16.3691 16.5433C16.3716 16.6448 16.3731 16.7462 16.3746 16.8477C16.3756 16.8823 16.3766 16.917 16.3776 16.9527C16.3805 17.2144 16.3575 17.4417 16.183 17.6507C16.16 17.6685 16.137 17.6863 16.1134 17.7046C16.0904 17.7231 16.0675 17.7416 16.0438 17.7606C15.8395 17.8948 15.5737 17.8526 15.3395 17.8535C15.2916 17.8543 15.2438 17.8551 15.1946 17.856C15.1251 17.8563 15.1251 17.8563 15.0543 17.8566C15.0121 17.8569 14.9698 17.8573 14.9264 17.8577C14.7272 17.8349 14.6033 17.7595 14.463 17.6192C14.2736 17.3456 14.2839 17.0619 14.2851 16.7408C14.284 16.542 14.284 16.542 14.1674 16.3885C14.1328 16.366 14.0982 16.3435 14.0626 16.3203C13.7315 15.8852 13.6034 15.4748 13.6399 14.9257C13.7031 14.5262 13.9152 14.1271 14.2188 13.8594C14.9439 13.3384 15.7913 13.343 16.4918 13.9058ZM14.5704 14.5235C14.4052 14.7682 14.302 15.0243 14.3521 15.3218C14.4407 15.6698 14.6178 15.902 14.922 16.086C14.9733 16.1886 14.9693 16.2706 14.9734 16.3853C14.975 16.4291 14.9767 16.4729 14.9784 16.5181C14.9799 16.564 14.9814 16.6099 14.983 16.6572C14.9847 16.7035 14.9864 16.7497 14.9881 16.7973C14.9923 16.9118 14.9962 17.0262 15.0001 17.1406C15.2192 17.1406 15.4384 17.1406 15.6642 17.1406C15.6647 17.0724 15.6653 17.0042 15.6658 16.9339C15.6677 16.8441 15.6696 16.7543 15.6715 16.6646C15.6717 16.6196 15.6719 16.5747 15.6722 16.5284C15.6809 16.1938 15.6809 16.1938 15.7968 16.0394C15.8303 16.0161 15.8639 15.9928 15.8985 15.9688C16.1186 15.8148 16.2472 15.6242 16.3142 15.3636C16.3565 15.0683 16.2825 14.845 16.1378 14.5894C15.9539 14.3569 15.7311 14.2191 15.4371 14.1768C15.1022 14.1532 14.8029 14.2818 14.5704 14.5235Z"/>
</mask>
<path d="M16.4918 13.9058L17.0323 13.316L17.0131 13.2984L16.9928 13.2821L16.4918 13.9058ZM17.0376 15.0683L17.8369 15.0353L17.8363 15.0191L17.8349 15.0028L17.0376 15.0683ZM16.506 16.4206L17.049 17.008L17.0795 16.9799L17.1068 16.9488L16.506 16.4206ZM16.3673 16.4766V15.6766H15.5447L15.5676 16.4989L16.3673 16.4766ZM16.3691 16.5433L17.1689 16.5239L17.1688 16.5211L16.3691 16.5433ZM16.3746 16.8477L15.5746 16.8595L15.5749 16.8703L16.3746 16.8477ZM16.3776 16.9527L17.1777 16.9438L17.1773 16.93L16.3776 16.9527ZM16.183 17.6507L16.6727 18.2833L16.7414 18.2302L16.7971 18.1635L16.183 17.6507ZM16.1134 17.7046L15.6237 17.072L15.6177 17.0766L15.6118 17.0814L16.1134 17.7046ZM16.0438 17.7606L16.483 18.4293L16.5153 18.4081L16.5454 18.3838L16.0438 17.7606ZM15.3395 17.8535L15.3361 17.0535L15.326 17.0536L15.3395 17.8535ZM15.1946 17.856L15.1981 18.656L15.2081 18.6559L15.1946 17.856ZM15.0543 17.8566L15.0508 17.0566L15.0473 17.0566L15.0543 17.8566ZM14.9264 17.8577L14.8353 18.6525L14.8841 18.6581L14.9333 18.6577L14.9264 17.8577ZM14.463 17.6192L13.8052 18.0745L13.8463 18.1338L13.8973 18.1848L14.463 17.6192ZM14.2851 16.7408L15.0852 16.7439L15.0851 16.7363L14.2851 16.7408ZM14.1674 16.3885L14.8044 15.9046L14.7203 15.7938L14.6037 15.718L14.1674 16.3885ZM14.0626 16.3203L13.4259 16.8047L13.51 16.9152L13.6263 16.9909L14.0626 16.3203ZM13.6399 14.9257L12.8497 14.8008L12.8441 14.8365L12.8417 14.8726L13.6399 14.9257ZM14.2188 13.8594L13.752 13.2097L13.7197 13.233L13.6898 13.2593L14.2188 13.8594ZM14.5704 14.5235L13.994 13.9688L13.946 14.0186L13.9073 14.0759L14.5704 14.5235ZM14.3521 15.3218L13.5631 15.4545L13.5686 15.4871L13.5768 15.5192L14.3521 15.3218ZM14.922 16.086L15.6375 15.7282L15.534 15.5211L15.3359 15.4014L14.922 16.086ZM14.9734 16.3853L14.1739 16.4136L14.174 16.4152L14.9734 16.3853ZM14.9784 16.5181L15.7779 16.4913L15.7778 16.4882L14.9784 16.5181ZM14.983 16.6572L14.1835 16.684L14.1835 16.6864L14.983 16.6572ZM14.9881 16.7973L15.7876 16.7683L15.7876 16.7681L14.9881 16.7973ZM15.0001 17.1406L14.2006 17.1678L14.2268 17.9406H15.0001V17.1406ZM15.6642 17.1406V17.9406H16.4577L16.4641 17.1471L15.6642 17.1406ZM15.6658 16.9339L14.8659 16.9176L14.8659 16.9274L15.6658 16.9339ZM15.6715 16.6646L16.4714 16.6818L16.4715 16.6686L15.6715 16.6646ZM15.6722 16.5284L14.8724 16.5075L14.8722 16.5159L14.8722 16.5243L15.6722 16.5284ZM15.7968 16.0394L15.3406 15.3822L15.2344 15.4559L15.1569 15.5593L15.7968 16.0394ZM15.8985 15.9688L16.3547 16.626L16.3573 16.6242L15.8985 15.9688ZM16.3142 15.3636L17.089 15.5628L17.0999 15.5204L17.1061 15.4771L16.3142 15.3636ZM16.1378 14.5894L16.834 14.1953L16.8036 14.1416L16.7653 14.0932L16.1378 14.5894ZM15.4371 14.1768L15.5511 13.3849L15.5223 13.3808L15.4933 13.3788L15.4371 14.1768ZM16.4918 13.9058L15.9513 14.4956C16.1071 14.6384 16.2186 14.8701 16.2403 15.1339L17.0376 15.0683L17.8349 15.0028C17.7851 14.3967 17.5265 13.7688 17.0323 13.316L16.4918 13.9058ZM17.0376 15.0683L16.2383 15.1014C16.2493 15.3682 16.1559 15.6072 15.9052 15.8924L16.506 16.4206L17.1068 16.9488C17.541 16.4549 17.8697 15.8301 17.8369 15.0353L17.0376 15.0683ZM16.506 16.4206L15.9629 15.8331C15.9401 15.8542 15.9511 15.8435 15.9667 15.8309C15.9895 15.8124 16.051 15.7652 16.1437 15.7278C16.2387 15.6894 16.3187 15.6805 16.3549 15.6778C16.3789 15.6761 16.3982 15.6766 16.3673 15.6766V16.4766V17.2766C16.3755 17.2766 16.424 17.2771 16.4719 17.2736C16.532 17.2692 16.6304 17.2567 16.7427 17.2114C16.8528 17.167 16.9305 17.1092 16.9727 17.075C17.0079 17.0467 17.0416 17.015 17.049 17.008L16.506 16.4206ZM16.3673 16.4766L15.5676 16.4989C15.5682 16.5209 15.5688 16.5429 15.5695 16.5656L16.3691 16.5433L17.1688 16.5211C17.1682 16.4984 17.1676 16.4763 17.167 16.4543L16.3673 16.4766ZM16.3691 16.5433L15.5694 16.5627C15.5717 16.6598 15.5732 16.7575 15.5747 16.8595L16.3746 16.8477L17.1745 16.8359C17.173 16.735 17.1715 16.6298 17.1689 16.5239L16.3691 16.5433ZM16.3746 16.8477L15.5749 16.8703C15.5759 16.905 15.5769 16.9396 15.5779 16.9753L16.3776 16.9527L17.1773 16.93C17.1763 16.8943 17.1753 16.8596 17.1743 16.825L16.3746 16.8477ZM16.3776 16.9527L15.5776 16.9615C15.5789 17.0738 15.5727 17.1185 15.568 17.1383C15.5665 17.145 15.566 17.1444 15.568 17.1404C15.5701 17.136 15.5715 17.1348 15.5689 17.138L16.183 17.6507L16.7971 18.1635C17.1624 17.7259 17.1809 17.2506 17.1775 16.9438L16.3776 16.9527ZM16.183 17.6507L15.6932 17.0181C15.6704 17.0359 15.6473 17.0537 15.6237 17.072L16.1134 17.7046L16.6031 18.3372C16.6268 18.3188 16.6496 18.3012 16.6727 18.2833L16.183 17.6507ZM16.1134 17.7046L15.6118 17.0814C15.5888 17.0998 15.5659 17.1184 15.5422 17.1374L16.0438 17.7606L16.5454 18.3838C16.5691 18.3648 16.592 18.3463 16.615 18.3278L16.1134 17.7046ZM16.0438 17.7606L15.6046 17.0919C15.6716 17.0479 15.7168 17.0552 15.6611 17.0581C15.6344 17.0595 15.5997 17.0594 15.5422 17.0578C15.4949 17.0565 15.4119 17.0532 15.3361 17.0535L15.3395 17.8535L15.3428 18.6535C15.3842 18.6534 15.4222 18.655 15.497 18.6572C15.5617 18.659 15.6501 18.6609 15.7446 18.6559C15.9315 18.6462 16.2117 18.6075 16.483 18.4293L16.0438 17.7606ZM15.3395 17.8535L15.326 17.0536C15.2782 17.0545 15.2304 17.0553 15.1811 17.0561L15.1946 17.856L15.2081 18.6559C15.2573 18.655 15.3051 18.6542 15.3529 18.6534L15.3395 17.8535ZM15.1946 17.856L15.1911 17.056C15.1216 17.0563 15.1216 17.0563 15.0508 17.0566L15.0543 17.8566L15.0577 18.6566C15.1286 18.6563 15.1286 18.6563 15.1981 18.656L15.1946 17.856ZM15.0543 17.8566L15.0473 17.0566C15.0051 17.057 14.9629 17.0573 14.9194 17.0577L14.9264 17.8577L14.9333 18.6577C14.9768 18.6573 15.019 18.6569 15.0612 18.6566L15.0543 17.8566ZM14.9264 17.8577L15.0174 17.0629C15.008 17.0618 15.0096 17.0613 15.0183 17.0639C15.0225 17.0652 15.0277 17.0669 15.0335 17.0693C15.0393 17.0717 15.0448 17.0743 15.0498 17.077C15.0601 17.0825 15.0645 17.0862 15.0618 17.0841C15.0583 17.0813 15.048 17.0728 15.0287 17.0535L14.463 17.6192L13.8973 18.1848C14.1305 18.4181 14.4131 18.6041 14.8353 18.6525L14.9264 17.8577ZM14.463 17.6192L15.1207 17.1638C15.1105 17.149 15.1015 17.1332 15.0944 17.0837C15.0901 17.0538 15.0869 17.0141 15.0856 16.9559C15.0841 16.8943 15.0848 16.8328 15.0851 16.7439L14.2851 16.7408L13.4852 16.7377C13.4841 17.0029 13.4478 17.5582 13.8052 18.0745L14.463 17.6192ZM14.2851 16.7408L15.0851 16.7363C15.0849 16.6958 15.0849 16.631 15.081 16.5714C15.0765 16.5029 15.0654 16.405 15.0283 16.2941C14.9909 16.1822 14.9404 16.0966 14.901 16.0374C14.8675 15.987 14.8277 15.9352 14.8044 15.9046L14.1674 16.3885L13.5304 16.8725C13.5459 16.8928 13.5553 16.9053 13.5629 16.9156C13.5704 16.9257 13.5711 16.9269 13.5687 16.9233C13.5622 16.9136 13.5335 16.8691 13.5108 16.8013C13.4885 16.7344 13.4849 16.6834 13.4844 16.6755C13.4842 16.6725 13.4844 16.6752 13.4847 16.6887C13.4849 16.7024 13.485 16.7191 13.4852 16.7453L14.2851 16.7408ZM14.1674 16.3885L14.6037 15.718C14.5691 15.6955 14.5345 15.673 14.4989 15.6498L14.0626 16.3203L13.6263 16.9909C13.6619 17.0141 13.6965 17.0366 13.7311 17.0591L14.1674 16.3885ZM14.0626 16.3203L14.6993 15.8359C14.4823 15.5508 14.4148 15.3304 14.4382 14.9787L13.6399 14.9257L12.8417 14.8726C12.7921 15.6192 12.9807 16.2196 13.4259 16.8047L14.0626 16.3203ZM13.6399 14.9257L14.4301 15.0506C14.4655 14.8266 14.5903 14.5984 14.7479 14.4595L14.2188 13.8594L13.6898 13.2593C13.2401 13.6558 12.9406 14.2259 12.8497 14.8008L13.6399 14.9257ZM14.2188 13.8594L14.6856 14.5091C15.1304 14.1895 15.5813 14.2005 15.9907 14.5294L16.4918 13.9058L16.9928 13.2821C16.0012 12.4854 14.7574 12.4874 13.752 13.2097L14.2188 13.8594ZM14.5704 14.5235L13.9073 14.0759C13.6856 14.4043 13.465 14.871 13.5631 15.4545L14.3521 15.3218L15.141 15.189C15.1383 15.1732 15.1384 15.1602 15.1457 15.1362C15.1552 15.1052 15.1782 15.053 15.2335 14.9711L14.5704 14.5235ZM14.3521 15.3218L13.5768 15.5192C13.7187 16.0765 14.0293 16.4811 14.508 16.7705L14.922 16.086L15.3359 15.4014C15.2063 15.323 15.1626 15.2631 15.1273 15.1244L14.3521 15.3218ZM14.922 16.086L14.2064 16.4437C14.1978 16.4265 14.1893 16.4055 14.1825 16.382C14.1758 16.3588 14.1728 16.3401 14.1715 16.3299C14.1705 16.3216 14.1709 16.3204 14.1715 16.3361C14.1718 16.3438 14.1721 16.3527 14.1724 16.3664C14.1728 16.3789 14.1733 16.3958 14.1739 16.4136L14.9734 16.3853L15.7729 16.3571C15.771 16.304 15.7836 16.0203 15.6375 15.7282L14.922 16.086ZM14.9734 16.3853L14.174 16.4152C14.1756 16.459 14.1772 16.5028 14.1789 16.5479L14.9784 16.5181L15.7778 16.4882C15.7761 16.4431 15.7745 16.3993 15.7728 16.3555L14.9734 16.3853ZM14.9784 16.5181L14.1788 16.5448C14.1803 16.5907 14.1819 16.6367 14.1835 16.684L14.983 16.6572L15.7826 16.6305C15.781 16.5832 15.7794 16.5373 15.7779 16.4913L14.9784 16.5181ZM14.983 16.6572L14.1835 16.6864C14.1852 16.7326 14.1869 16.7789 14.1887 16.8265L14.9881 16.7973L15.7876 16.7681C15.7859 16.7205 15.7842 16.6743 15.7825 16.6281L14.983 16.6572ZM14.9881 16.7973L14.1886 16.8263C14.1928 16.9398 14.1967 17.0535 14.2006 17.1678L15.0001 17.1406L15.7996 17.1135C15.7957 16.9989 15.7918 16.8837 15.7876 16.7683L14.9881 16.7973ZM15.0001 17.1406V17.9406C15.0005 17.9406 15.001 17.9406 15.0014 17.9406C15.0018 17.9406 15.0022 17.9406 15.0027 17.9406C15.0031 17.9406 15.0035 17.9406 15.004 17.9406C15.0044 17.9406 15.0048 17.9406 15.0052 17.9406C15.0057 17.9406 15.0061 17.9406 15.0065 17.9406C15.0069 17.9406 15.0074 17.9406 15.0078 17.9406C15.0082 17.9406 15.0087 17.9406 15.0091 17.9406C15.0095 17.9406 15.0099 17.9406 15.0104 17.9406C15.0108 17.9406 15.0112 17.9406 15.0117 17.9406C15.0121 17.9406 15.0125 17.9406 15.0129 17.9406C15.0134 17.9406 15.0138 17.9406 15.0142 17.9406C15.0147 17.9406 15.0151 17.9406 15.0155 17.9406C15.0159 17.9406 15.0164 17.9406 15.0168 17.9406C15.0172 17.9406 15.0176 17.9406 15.0181 17.9406C15.0185 17.9406 15.0189 17.9406 15.0194 17.9406C15.0198 17.9406 15.0202 17.9406 15.0206 17.9406C15.0211 17.9406 15.0215 17.9406 15.0219 17.9406C15.0224 17.9406 15.0228 17.9406 15.0232 17.9406C15.0236 17.9406 15.0241 17.9406 15.0245 17.9406C15.0249 17.9406 15.0254 17.9406 15.0258 17.9406C15.0262 17.9406 15.0266 17.9406 15.0271 17.9406C15.0275 17.9406 15.0279 17.9406 15.0283 17.9406C15.0288 17.9406 15.0292 17.9406 15.0296 17.9406C15.0301 17.9406 15.0305 17.9406 15.0309 17.9406C15.0313 17.9406 15.0318 17.9406 15.0322 17.9406C15.0326 17.9406 15.0331 17.9406 15.0335 17.9406C15.0339 17.9406 15.0343 17.9406 15.0348 17.9406C15.0352 17.9406 15.0356 17.9406 15.0361 17.9406C15.0365 17.9406 15.0369 17.9406 15.0373 17.9406C15.0378 17.9406 15.0382 17.9406 15.0386 17.9406C15.039 17.9406 15.0395 17.9406 15.0399 17.9406C15.0403 17.9406 15.0408 17.9406 15.0412 17.9406C15.0416 17.9406 15.042 17.9406 15.0425 17.9406C15.0429 17.9406 15.0433 17.9406 15.0438 17.9406C15.0442 17.9406 15.0446 17.9406 15.045 17.9406C15.0455 17.9406 15.0459 17.9406 15.0463 17.9406C15.0468 17.9406 15.0472 17.9406 15.0476 17.9406C15.048 17.9406 15.0485 17.9406 15.0489 17.9406C15.0493 17.9406 15.0498 17.9406 15.0502 17.9406C15.0506 17.9406 15.051 17.9406 15.0515 17.9406C15.0519 17.9406 15.0523 17.9406 15.0527 17.9406C15.0532 17.9406 15.0536 17.9406 15.054 17.9406C15.0545 17.9406 15.0549 17.9406 15.0553 17.9406C15.0557 17.9406 15.0562 17.9406 15.0566 17.9406C15.057 17.9406 15.0575 17.9406 15.0579 17.9406C15.0583 17.9406 15.0587 17.9406 15.0592 17.9406C15.0596 17.9406 15.06 17.9406 15.0605 17.9406C15.0609 17.9406 15.0613 17.9406 15.0617 17.9406C15.0622 17.9406 15.0626 17.9406 15.063 17.9406C15.0634 17.9406 15.0639 17.9406 15.0643 17.9406C15.0647 17.9406 15.0652 17.9406 15.0656 17.9406C15.066 17.9406 15.0664 17.9406 15.0669 17.9406C15.0673 17.9406 15.0677 17.9406 15.0682 17.9406C15.0686 17.9406 15.069 17.9406 15.0694 17.9406C15.0699 17.9406 15.0703 17.9406 15.0707 17.9406C15.0712 17.9406 15.0716 17.9406 15.072 17.9406C15.0724 17.9406 15.0729 17.9406 15.0733 17.9406C15.0737 17.9406 15.0742 17.9406 15.0746 17.9406C15.075 17.9406 15.0754 17.9406 15.0759 17.9406C15.0763 17.9406 15.0767 17.9406 15.0772 17.9406C15.0776 17.9406 15.078 17.9406 15.0784 17.9406C15.0789 17.9406 15.0793 17.9406 15.0797 17.9406C15.0801 17.9406 15.0806 17.9406 15.081 17.9406C15.0814 17.9406 15.0819 17.9406 15.0823 17.9406C15.0827 17.9406 15.0831 17.9406 15.0836 17.9406C15.084 17.9406 15.0844 17.9406 15.0849 17.9406C15.0853 17.9406 15.0857 17.9406 15.0861 17.9406C15.0866 17.9406 15.087 17.9406 15.0874 17.9406C15.0879 17.9406 15.0883 17.9406 15.0887 17.9406C15.0891 17.9406 15.0896 17.9406 15.09 17.9406C15.0904 17.9406 15.0909 17.9406 15.0913 17.9406C15.0917 17.9406 15.0921 17.9406 15.0926 17.9406C15.093 17.9406 15.0934 17.9406 15.0939 17.9406C15.0943 17.9406 15.0947 17.9406 15.0951 17.9406C15.0956 17.9406 15.096 17.9406 15.0964 17.9406C15.0968 17.9406 15.0973 17.9406 15.0977 17.9406C15.0981 17.9406 15.0986 17.9406 15.099 17.9406C15.0994 17.9406 15.0998 17.9406 15.1003 17.9406C15.1007 17.9406 15.1011 17.9406 15.1016 17.9406C15.102 17.9406 15.1024 17.9406 15.1028 17.9406C15.1033 17.9406 15.1037 17.9406 15.1041 17.9406C15.1046 17.9406 15.105 17.9406 15.1054 17.9406C15.1058 17.9406 15.1063 17.9406 15.1067 17.9406C15.1071 17.9406 15.1076 17.9406 15.108 17.9406C15.1084 17.9406 15.1088 17.9406 15.1093 17.9406C15.1097 17.9406 15.1101 17.9406 15.1106 17.9406C15.111 17.9406 15.1114 17.9406 15.1118 17.9406C15.1123 17.9406 15.1127 17.9406 15.1131 17.9406C15.1136 17.9406 15.114 17.9406 15.1144 17.9406C15.1148 17.9406 15.1153 17.9406 15.1157 17.9406C15.1161 17.9406 15.1166 17.9406 15.117 17.9406C15.1174 17.9406 15.1178 17.9406 15.1183 17.9406C15.1187 17.9406 15.1191 17.9406 15.1196 17.9406C15.12 17.9406 15.1204 17.9406 15.1208 17.9406C15.1213 17.9406 15.1217 17.9406 15.1221 17.9406C15.1226 17.9406 15.123 17.9406 15.1234 17.9406C15.1238 17.9406 15.1243 17.9406 15.1247 17.9406C15.1251 17.9406 15.1256 17.9406 15.126 17.9406C15.1264 17.9406 15.1268 17.9406 15.1273 17.9406C15.1277 17.9406 15.1281 17.9406 15.1286 17.9406C15.129 17.9406 15.1294 17.9406 15.1298 17.9406C15.1303 17.9406 15.1307 17.9406 15.1311 17.9406C15.1316 17.9406 15.132 17.9406 15.1324 17.9406C15.1328 17.9406 15.1333 17.9406 15.1337 17.9406C15.1341 17.9406 15.1345 17.9406 15.135 17.9406C15.1354 17.9406 15.1358 17.9406 15.1363 17.9406C15.1367 17.9406 15.1371 17.9406 15.1375 17.9406C15.138 17.9406 15.1384 17.9406 15.1388 17.9406C15.1393 17.9406 15.1397 17.9406 15.1401 17.9406C15.1405 17.9406 15.141 17.9406 15.1414 17.9406C15.1418 17.9406 15.1423 17.9406 15.1427 17.9406C15.1431 17.9406 15.1436 17.9406 15.144 17.9406C15.1444 17.9406 15.1448 17.9406 15.1453 17.9406C15.1457 17.9406 15.1461 17.9406 15.1466 17.9406C15.147 17.9406 15.1474 17.9406 15.1478 17.9406C15.1483 17.9406 15.1487 17.9406 15.1491 17.9406C15.1496 17.9406 15.15 17.9406 15.1504 17.9406C15.1508 17.9406 15.1513 17.9406 15.1517 17.9406C15.1521 17.9406 15.1526 17.9406 15.153 17.9406C15.1534 17.9406 15.1538 17.9406 15.1543 17.9406C15.1547 17.9406 15.1551 17.9406 15.1556 17.9406C15.156 17.9406 15.1564 17.9406 15.1568 17.9406C15.1573 17.9406 15.1577 17.9406 15.1581 17.9406C15.1586 17.9406 15.159 17.9406 15.1594 17.9406C15.1598 17.9406 15.1603 17.9406 15.1607 17.9406C15.1611 17.9406 15.1616 17.9406 15.162 17.9406C15.1624 17.9406 15.1628 17.9406 15.1633 17.9406C15.1637 17.9406 15.1641 17.9406 15.1646 17.9406C15.165 17.9406 15.1654 17.9406 15.1658 17.9406C15.1663 17.9406 15.1667 17.9406 15.1671 17.9406C15.1676 17.9406 15.168 17.9406 15.1684 17.9406C15.1688 17.9406 15.1693 17.9406 15.1697 17.9406C15.1701 17.9406 15.1706 17.9406 15.171 17.9406C15.1714 17.9406 15.1718 17.9406 15.1723 17.9406C15.1727 17.9406 15.1731 17.9406 15.1736 17.9406C15.174 17.9406 15.1744 17.9406 15.1749 17.9406C15.1753 17.9406 15.1757 17.9406 15.1761 17.9406C15.1766 17.9406 15.177 17.9406 15.1774 17.9406C15.1779 17.9406 15.1783 17.9406 15.1787 17.9406C15.1791 17.9406 15.1796 17.9406 15.18 17.9406C15.1804 17.9406 15.1809 17.9406 15.1813 17.9406C15.1817 17.9406 15.1821 17.9406 15.1826 17.9406C15.183 17.9406 15.1834 17.9406 15.1839 17.9406C15.1843 17.9406 15.1847 17.9406 15.1851 17.9406C15.1856 17.9406 15.186 17.9406 15.1864 17.9406C15.1869 17.9406 15.1873 17.9406 15.1877 17.9406C15.1881 17.9406 15.1886 17.9406 15.189 17.9406C15.1894 17.9406 15.1899 17.9406 15.1903 17.9406C15.1907 17.9406 15.1912 17.9406 15.1916 17.9406C15.192 17.9406 15.1924 17.9406 15.1929 17.9406C15.1933 17.9406 15.1937 17.9406 15.1942 17.9406C15.1946 17.9406 15.195 17.9406 15.1954 17.9406C15.1959 17.9406 15.1963 17.9406 15.1967 17.9406C15.1972 17.9406 15.1976 17.9406 15.198 17.9406C15.1984 17.9406 15.1989 17.9406 15.1993 17.9406C15.1997 17.9406 15.2002 17.9406 15.2006 17.9406C15.201 17.9406 15.2015 17.9406 15.2019 17.9406C15.2023 17.9406 15.2027 17.9406 15.2032 17.9406C15.2036 17.9406 15.204 17.9406 15.2045 17.9406C15.2049 17.9406 15.2053 17.9406 15.2057 17.9406C15.2062 17.9406 15.2066 17.9406 15.207 17.9406C15.2075 17.9406 15.2079 17.9406 15.2083 17.9406C15.2088 17.9406 15.2092 17.9406 15.2096 17.9406C15.21 17.9406 15.2105 17.9406 15.2109 17.9406C15.2113 17.9406 15.2118 17.9406 15.2122 17.9406C15.2126 17.9406 15.213 17.9406 15.2135 17.9406C15.2139 17.9406 15.2143 17.9406 15.2148 17.9406C15.2152 17.9406 15.2156 17.9406 15.216 17.9406C15.2165 17.9406 15.2169 17.9406 15.2173 17.9406C15.2178 17.9406 15.2182 17.9406 15.2186 17.9406C15.2191 17.9406 15.2195 17.9406 15.2199 17.9406C15.2203 17.9406 15.2208 17.9406 15.2212 17.9406C15.2216 17.9406 15.2221 17.9406 15.2225 17.9406C15.2229 17.9406 15.2234 17.9406 15.2238 17.9406C15.2242 17.9406 15.2246 17.9406 15.2251 17.9406C15.2255 17.9406 15.2259 17.9406 15.2264 17.9406C15.2268 17.9406 15.2272 17.9406 15.2276 17.9406C15.2281 17.9406 15.2285 17.9406 15.2289 17.9406C15.2294 17.9406 15.2298 17.9406 15.2302 17.9406C15.2307 17.9406 15.2311 17.9406 15.2315 17.9406C15.2319 17.9406 15.2324 17.9406 15.2328 17.9406C15.2332 17.9406 15.2337 17.9406 15.2341 17.9406C15.2345 17.9406 15.2349 17.9406 15.2354 17.9406C15.2358 17.9406 15.2362 17.9406 15.2367 17.9406C15.2371 17.9406 15.2375 17.9406 15.238 17.9406C15.2384 17.9406 15.2388 17.9406 15.2392 17.9406C15.2397 17.9406 15.2401 17.9406 15.2405 17.9406C15.241 17.9406 15.2414 17.9406 15.2418 17.9406C15.2423 17.9406 15.2427 17.9406 15.2431 17.9406C15.2435 17.9406 15.244 17.9406 15.2444 17.9406C15.2448 17.9406 15.2453 17.9406 15.2457 17.9406C15.2461 17.9406 15.2466 17.9406 15.247 17.9406C15.2474 17.9406 15.2478 17.9406 15.2483 17.9406C15.2487 17.9406 15.2491 17.9406 15.2496 17.9406C15.25 17.9406 15.2504 17.9406 15.2509 17.9406C15.2513 17.9406 15.2517 17.9406 15.2521 17.9406C15.2526 17.9406 15.253 17.9406 15.2534 17.9406C15.2539 17.9406 15.2543 17.9406 15.2547 17.9406C15.2551 17.9406 15.2556 17.9406 15.256 17.9406C15.2564 17.9406 15.2569 17.9406 15.2573 17.9406C15.2577 17.9406 15.2582 17.9406 15.2586 17.9406C15.259 17.9406 15.2594 17.9406 15.2599 17.9406C15.2603 17.9406 15.2607 17.9406 15.2612 17.9406C15.2616 17.9406 15.262 17.9406 15.2625 17.9406C15.2629 17.9406 15.2633 17.9406 15.2638 17.9406C15.2642 17.9406 15.2646 17.9406 15.265 17.9406C15.2655 17.9406 15.2659 17.9406 15.2663 17.9406C15.2668 17.9406 15.2672 17.9406 15.2676 17.9406C15.2681 17.9406 15.2685 17.9406 15.2689 17.9406C15.2693 17.9406 15.2698 17.9406 15.2702 17.9406C15.2706 17.9406 15.2711 17.9406 15.2715 17.9406C15.2719 17.9406 15.2724 17.9406 15.2728 17.9406C15.2732 17.9406 15.2736 17.9406 15.2741 17.9406C15.2745 17.9406 15.2749 17.9406 15.2754 17.9406C15.2758 17.9406 15.2762 17.9406 15.2767 17.9406C15.2771 17.9406 15.2775 17.9406 15.2779 17.9406C15.2784 17.9406 15.2788 17.9406 15.2792 17.9406C15.2797 17.9406 15.2801 17.9406 15.2805 17.9406C15.281 17.9406 15.2814 17.9406 15.2818 17.9406C15.2823 17.9406 15.2827 17.9406 15.2831 17.9406C15.2835 17.9406 15.284 17.9406 15.2844 17.9406C15.2848 17.9406 15.2853 17.9406 15.2857 17.9406C15.2861 17.9406 15.2866 17.9406 15.287 17.9406C15.2874 17.9406 15.2878 17.9406 15.2883 17.9406C15.2887 17.9406 15.2891 17.9406 15.2896 17.9406C15.29 17.9406 15.2904 17.9406 15.2909 17.9406C15.2913 17.9406 15.2917 17.9406 15.2922 17.9406C15.2926 17.9406 15.293 17.9406 15.2934 17.9406C15.2939 17.9406 15.2943 17.9406 15.2947 17.9406C15.2952 17.9406 15.2956 17.9406 15.296 17.9406C15.2965 17.9406 15.2969 17.9406 15.2973 17.9406C15.2977 17.9406 15.2982 17.9406 15.2986 17.9406C15.299 17.9406 15.2995 17.9406 15.2999 17.9406C15.3003 17.9406 15.3008 17.9406 15.3012 17.9406C15.3016 17.9406 15.3021 17.9406 15.3025 17.9406C15.3029 17.9406 15.3033 17.9406 15.3038 17.9406C15.3042 17.9406 15.3046 17.9406 15.3051 17.9406C15.3055 17.9406 15.3059 17.9406 15.3064 17.9406C15.3068 17.9406 15.3072 17.9406 15.3077 17.9406C15.3081 17.9406 15.3085 17.9406 15.3089 17.9406C15.3094 17.9406 15.3098 17.9406 15.3102 17.9406C15.3107 17.9406 15.3111 17.9406 15.3115 17.9406C15.312 17.9406 15.3124 17.9406 15.3128 17.9406C15.3133 17.9406 15.3137 17.9406 15.3141 17.9406C15.3146 17.9406 15.315 17.9406 15.3154 17.9406C15.3158 17.9406 15.3163 17.9406 15.3167 17.9406C15.3171 17.9406 15.3176 17.9406 15.318 17.9406C15.3184 17.9406 15.3189 17.9406 15.3193 17.9406C15.3197 17.9406 15.3202 17.9406 15.3206 17.9406C15.321 17.9406 15.3214 17.9406 15.3219 17.9406C15.3223 17.9406 15.3227 17.9406 15.3232 17.9406C15.3236 17.9406 15.324 17.9406 15.3245 17.9406C15.3249 17.9406 15.3253 17.9406 15.3258 17.9406C15.3262 17.9406 15.3266 17.9406 15.3271 17.9406C15.3275 17.9406 15.3279 17.9406 15.3283 17.9406C15.3288 17.9406 15.3292 17.9406 15.3296 17.9406C15.3301 17.9406 15.3305 17.9406 15.3309 17.9406C15.3314 17.9406 15.3318 17.9406 15.3322 17.9406C15.3327 17.9406 15.3331 17.9406 15.3335 17.9406C15.334 17.9406 15.3344 17.9406 15.3348 17.9406C15.3352 17.9406 15.3357 17.9406 15.3361 17.9406C15.3365 17.9406 15.337 17.9406 15.3374 17.9406C15.3378 17.9406 15.3383 17.9406 15.3387 17.9406C15.3391 17.9406 15.3396 17.9406 15.34 17.9406C15.3404 17.9406 15.3409 17.9406 15.3413 17.9406C15.3417 17.9406 15.3421 17.9406 15.3426 17.9406C15.343 17.9406 15.3434 17.9406 15.3439 17.9406C15.3443 17.9406 15.3447 17.9406 15.3452 17.9406C15.3456 17.9406 15.346 17.9406 15.3465 17.9406C15.3469 17.9406 15.3473 17.9406 15.3478 17.9406C15.3482 17.9406 15.3486 17.9406 15.3491 17.9406C15.3495 17.9406 15.3499 17.9406 15.3503 17.9406C15.3508 17.9406 15.3512 17.9406 15.3516 17.9406C15.3521 17.9406 15.3525 17.9406 15.3529 17.9406C15.3534 17.9406 15.3538 17.9406 15.3542 17.9406C15.3547 17.9406 15.3551 17.9406 15.3555 17.9406C15.356 17.9406 15.3564 17.9406 15.3568 17.9406C15.3573 17.9406 15.3577 17.9406 15.3581 17.9406C15.3586 17.9406 15.359 17.9406 15.3594 17.9406C15.3598 17.9406 15.3603 17.9406 15.3607 17.9406C15.3611 17.9406 15.3616 17.9406 15.362 17.9406C15.3624 17.9406 15.3629 17.9406 15.3633 17.9406C15.3637 17.9406 15.3642 17.9406 15.3646 17.9406C15.365 17.9406 15.3655 17.9406 15.3659 17.9406C15.3663 17.9406 15.3668 17.9406 15.3672 17.9406C15.3676 17.9406 15.3681 17.9406 15.3685 17.9406C15.3689 17.9406 15.3694 17.9406 15.3698 17.9406C15.3702 17.9406 15.3706 17.9406 15.3711 17.9406C15.3715 17.9406 15.3719 17.9406 15.3724 17.9406C15.3728 17.9406 15.3732 17.9406 15.3737 17.9406C15.3741 17.9406 15.3745 17.9406 15.375 17.9406C15.3754 17.9406 15.3758 17.9406 15.3763 17.9406C15.3767 17.9406 15.3771 17.9406 15.3776 17.9406C15.378 17.9406 15.3784 17.9406 15.3789 17.9406C15.3793 17.9406 15.3797 17.9406 15.3802 17.9406C15.3806 17.9406 15.381 17.9406 15.3815 17.9406C15.3819 17.9406 15.3823 17.9406 15.3828 17.9406C15.3832 17.9406 15.3836 17.9406 15.384 17.9406C15.3845 17.9406 15.3849 17.9406 15.3853 17.9406C15.3858 17.9406 15.3862 17.9406 15.3866 17.9406C15.3871 17.9406 15.3875 17.9406 15.3879 17.9406C15.3884 17.9406 15.3888 17.9406 15.3892 17.9406C15.3897 17.9406 15.3901 17.9406 15.3905 17.9406C15.391 17.9406 15.3914 17.9406 15.3918 17.9406C15.3923 17.9406 15.3927 17.9406 15.3931 17.9406C15.3936 17.9406 15.394 17.9406 15.3944 17.9406C15.3949 17.9406 15.3953 17.9406 15.3957 17.9406C15.3962 17.9406 15.3966 17.9406 15.397 17.9406C15.3975 17.9406 15.3979 17.9406 15.3983 17.9406C15.3988 17.9406 15.3992 17.9406 15.3996 17.9406C15.4001 17.9406 15.4005 17.9406 15.4009 17.9406C15.4014 17.9406 15.4018 17.9406 15.4022 17.9406C15.4027 17.9406 15.4031 17.9406 15.4035 17.9406C15.4039 17.9406 15.4044 17.9406 15.4048 17.9406C15.4052 17.9406 15.4057 17.9406 15.4061 17.9406C15.4065 17.9406 15.407 17.9406 15.4074 17.9406C15.4078 17.9406 15.4083 17.9406 15.4087 17.9406C15.4091 17.9406 15.4096 17.9406 15.41 17.9406C15.4104 17.9406 15.4109 17.9406 15.4113 17.9406C15.4117 17.9406 15.4122 17.9406 15.4126 17.9406C15.413 17.9406 15.4135 17.9406 15.4139 17.9406C15.4143 17.9406 15.4148 17.9406 15.4152 17.9406C15.4156 17.9406 15.4161 17.9406 15.4165 17.9406C15.4169 17.9406 15.4174 17.9406 15.4178 17.9406C15.4182 17.9406 15.4187 17.9406 15.4191 17.9406C15.4195 17.9406 15.42 17.9406 15.4204 17.9406C15.4208 17.9406 15.4213 17.9406 15.4217 17.9406C15.4221 17.9406 15.4226 17.9406 15.423 17.9406C15.4234 17.9406 15.4239 17.9406 15.4243 17.9406C15.4247 17.9406 15.4252 17.9406 15.4256 17.9406C15.426 17.9406 15.4265 17.9406 15.4269 17.9406C15.4273 17.9406 15.4278 17.9406 15.4282 17.9406C15.4286 17.9406 15.4291 17.9406 15.4295 17.9406C15.4299 17.9406 15.4304 17.9406 15.4308 17.9406C15.4312 17.9406 15.4317 17.9406 15.4321 17.9406C15.4325 17.9406 15.433 17.9406 15.4334 17.9406C15.4338 17.9406 15.4343 17.9406 15.4347 17.9406C15.4351 17.9406 15.4356 17.9406 15.436 17.9406C15.4364 17.9406 15.4369 17.9406 15.4373 17.9406C15.4377 17.9406 15.4382 17.9406 15.4386 17.9406C15.439 17.9406 15.4395 17.9406 15.4399 17.9406C15.4403 17.9406 15.4408 17.9406 15.4412 17.9406C15.4416 17.9406 15.4421 17.9406 15.4425 17.9406C15.443 17.9406 15.4434 17.9406 15.4438 17.9406C15.4443 17.9406 15.4447 17.9406 15.4451 17.9406C15.4456 17.9406 15.446 17.9406 15.4464 17.9406C15.4469 17.9406 15.4473 17.9406 15.4477 17.9406C15.4482 17.9406 15.4486 17.9406 15.449 17.9406C15.4495 17.9406 15.4499 17.9406 15.4503 17.9406C15.4508 17.9406 15.4512 17.9406 15.4516 17.9406C15.4521 17.9406 15.4525 17.9406 15.4529 17.9406C15.4534 17.9406 15.4538 17.9406 15.4542 17.9406C15.4547 17.9406 15.4551 17.9406 15.4555 17.9406C15.456 17.9406 15.4564 17.9406 15.4568 17.9406C15.4573 17.9406 15.4577 17.9406 15.4581 17.9406C15.4586 17.9406 15.459 17.9406 15.4594 17.9406C15.4599 17.9406 15.4603 17.9406 15.4607 17.9406C15.4612 17.9406 15.4616 17.9406 15.4621 17.9406C15.4625 17.9406 15.4629 17.9406 15.4634 17.9406C15.4638 17.9406 15.4642 17.9406 15.4647 17.9406C15.4651 17.9406 15.4655 17.9406 15.466 17.9406C15.4664 17.9406 15.4668 17.9406 15.4673 17.9406C15.4677 17.9406 15.4681 17.9406 15.4686 17.9406C15.469 17.9406 15.4694 17.9406 15.4699 17.9406C15.4703 17.9406 15.4707 17.9406 15.4712 17.9406C15.4716 17.9406 15.472 17.9406 15.4725 17.9406C15.4729 17.9406 15.4733 17.9406 15.4738 17.9406C15.4742 17.9406 15.4747 17.9406 15.4751 17.9406C15.4755 17.9406 15.476 17.9406 15.4764 17.9406C15.4768 17.9406 15.4773 17.9406 15.4777 17.9406C15.4781 17.9406 15.4786 17.9406 15.479 17.9406C15.4794 17.9406 15.4799 17.9406 15.4803 17.9406C15.4807 17.9406 15.4812 17.9406 15.4816 17.9406C15.482 17.9406 15.4825 17.9406 15.4829 17.9406C15.4833 17.9406 15.4838 17.9406 15.4842 17.9406C15.4847 17.9406 15.4851 17.9406 15.4855 17.9406C15.486 17.9406 15.4864 17.9406 15.4868 17.9406C15.4873 17.9406 15.4877 17.9406 15.4881 17.9406C15.4886 17.9406 15.489 17.9406 15.4894 17.9406C15.4899 17.9406 15.4903 17.9406 15.4907 17.9406C15.4912 17.9406 15.4916 17.9406 15.492 17.9406C15.4925 17.9406 15.4929 17.9406 15.4934 17.9406C15.4938 17.9406 15.4942 17.9406 15.4947 17.9406C15.4951 17.9406 15.4955 17.9406 15.496 17.9406C15.4964 17.9406 15.4968 17.9406 15.4973 17.9406C15.4977 17.9406 15.4981 17.9406 15.4986 17.9406C15.499 17.9406 15.4994 17.9406 15.4999 17.9406C15.5003 17.9406 15.5008 17.9406 15.5012 17.9406C15.5016 17.9406 15.5021 17.9406 15.5025 17.9406C15.5029 17.9406 15.5034 17.9406 15.5038 17.9406C15.5042 17.9406 15.5047 17.9406 15.5051 17.9406C15.5055 17.9406 15.506 17.9406 15.5064 17.9406C15.5069 17.9406 15.5073 17.9406 15.5077 17.9406C15.5082 17.9406 15.5086 17.9406 15.509 17.9406C15.5095 17.9406 15.5099 17.9406 15.5103 17.9406C15.5108 17.9406 15.5112 17.9406 15.5116 17.9406C15.5121 17.9406 15.5125 17.9406 15.513 17.9406C15.5134 17.9406 15.5138 17.9406 15.5143 17.9406C15.5147 17.9406 15.5151 17.9406 15.5156 17.9406C15.516 17.9406 15.5164 17.9406 15.5169 17.9406C15.5173 17.9406 15.5177 17.9406 15.5182 17.9406C15.5186 17.9406 15.5191 17.9406 15.5195 17.9406C15.5199 17.9406 15.5204 17.9406 15.5208 17.9406C15.5212 17.9406 15.5217 17.9406 15.5221 17.9406C15.5225 17.9406 15.523 17.9406 15.5234 17.9406C15.5239 17.9406 15.5243 17.9406 15.5247 17.9406C15.5252 17.9406 15.5256 17.9406 15.526 17.9406C15.5265 17.9406 15.5269 17.9406 15.5273 17.9406C15.5278 17.9406 15.5282 17.9406 15.5287 17.9406C15.5291 17.9406 15.5295 17.9406 15.53 17.9406C15.5304 17.9406 15.5308 17.9406 15.5313 17.9406C15.5317 17.9406 15.5321 17.9406 15.5326 17.9406C15.533 17.9406 15.5335 17.9406 15.5339 17.9406C15.5343 17.9406 15.5348 17.9406 15.5352 17.9406C15.5356 17.9406 15.5361 17.9406 15.5365 17.9406C15.5369 17.9406 15.5374 17.9406 15.5378 17.9406C15.5383 17.9406 15.5387 17.9406 15.5391 17.9406C15.5396 17.9406 15.54 17.9406 15.5404 17.9406C15.5409 17.9406 15.5413 17.9406 15.5417 17.9406C15.5422 17.9406 15.5426 17.9406 15.5431 17.9406C15.5435 17.9406 15.5439 17.9406 15.5444 17.9406C15.5448 17.9406 15.5452 17.9406 15.5457 17.9406C15.5461 17.9406 15.5465 17.9406 15.547 17.9406C15.5474 17.9406 15.5479 17.9406 15.5483 17.9406C15.5487 17.9406 15.5492 17.9406 15.5496 17.9406C15.55 17.9406 15.5505 17.9406 15.5509 17.9406C15.5514 17.9406 15.5518 17.9406 15.5522 17.9406C15.5527 17.9406 15.5531 17.9406 15.5535 17.9406C15.554 17.9406 15.5544 17.9406 15.5549 17.9406C15.5553 17.9406 15.5557 17.9406 15.5562 17.9406C15.5566 17.9406 15.557 17.9406 15.5575 17.9406C15.5579 17.9406 15.5583 17.9406 15.5588 17.9406C15.5592 17.9406 15.5597 17.9406 15.5601 17.9406C15.5605 17.9406 15.561 17.9406 15.5614 17.9406C15.5618 17.9406 15.5623 17.9406 15.5627 17.9406C15.5632 17.9406 15.5636 17.9406 15.564 17.9406C15.5645 17.9406 15.5649 17.9406 15.5653 17.9406C15.5658 17.9406 15.5662 17.9406 15.5667 17.9406C15.5671 17.9406 15.5675 17.9406 15.568 17.9406C15.5684 17.9406 15.5688 17.9406 15.5693 17.9406C15.5697 17.9406 15.5702 17.9406 15.5706 17.9406C15.571 17.9406 15.5715 17.9406 15.5719 17.9406C15.5723 17.9406 15.5728 17.9406 15.5732 17.9406C15.5737 17.9406 15.5741 17.9406 15.5745 17.9406C15.575 17.9406 15.5754 17.9406 15.5759 17.9406C15.5763 17.9406 15.5767 17.9406 15.5772 17.9406C15.5776 17.9406 15.578 17.9406 15.5785 17.9406C15.5789 17.9406 15.5794 17.9406 15.5798 17.9406C15.5802 17.9406 15.5807 17.9406 15.5811 17.9406C15.5815 17.9406 15.582 17.9406 15.5824 17.9406C15.5829 17.9406 15.5833 17.9406 15.5837 17.9406C15.5842 17.9406 15.5846 17.9406 15.585 17.9406C15.5855 17.9406 15.5859 17.9406 15.5864 17.9406C15.5868 17.9406 15.5872 17.9406 15.5877 17.9406C15.5881 17.9406 15.5886 17.9406 15.589 17.9406C15.5894 17.9406 15.5899 17.9406 15.5903 17.9406C15.5907 17.9406 15.5912 17.9406 15.5916 17.9406C15.5921 17.9406 15.5925 17.9406 15.5929 17.9406C15.5934 17.9406 15.5938 17.9406 15.5943 17.9406C15.5947 17.9406 15.5951 17.9406 15.5956 17.9406C15.596 17.9406 15.5964 17.9406 15.5969 17.9406C15.5973 17.9406 15.5978 17.9406 15.5982 17.9406C15.5986 17.9406 15.5991 17.9406 15.5995 17.9406C15.6 17.9406 15.6004 17.9406 15.6008 17.9406C15.6013 17.9406 15.6017 17.9406 15.6021 17.9406C15.6026 17.9406 15.603 17.9406 15.6035 17.9406C15.6039 17.9406 15.6043 17.9406 15.6048 17.9406C15.6052 17.9406 15.6057 17.9406 15.6061 17.9406C15.6065 17.9406 15.607 17.9406 15.6074 17.9406C15.6078 17.9406 15.6083 17.9406 15.6087 17.9406C15.6092 17.9406 15.6096 17.9406 15.61 17.9406C15.6105 17.9406 15.6109 17.9406 15.6114 17.9406C15.6118 17.9406 15.6122 17.9406 15.6127 17.9406C15.6131 17.9406 15.6136 17.9406 15.614 17.9406C15.6144 17.9406 15.6149 17.9406 15.6153 17.9406C15.6158 17.9406 15.6162 17.9406 15.6166 17.9406C15.6171 17.9406 15.6175 17.9406 15.6179 17.9406C15.6184 17.9406 15.6188 17.9406 15.6193 17.9406C15.6197 17.9406 15.6201 17.9406 15.6206 17.9406C15.621 17.9406 15.6215 17.9406 15.6219 17.9406C15.6223 17.9406 15.6228 17.9406 15.6232 17.9406C15.6237 17.9406 15.6241 17.9406 15.6245 17.9406C15.625 17.9406 15.6254 17.9406 15.6259 17.9406C15.6263 17.9406 15.6267 17.9406 15.6272 17.9406C15.6276 17.9406 15.6281 17.9406 15.6285 17.9406C15.6289 17.9406 15.6294 17.9406 15.6298 17.9406C15.6303 17.9406 15.6307 17.9406 15.6311 17.9406C15.6316 17.9406 15.632 17.9406 15.6325 17.9406C15.6329 17.9406 15.6333 17.9406 15.6338 17.9406C15.6342 17.9406 15.6347 17.9406 15.6351 17.9406C15.6355 17.9406 15.636 17.9406 15.6364 17.9406C15.6369 17.9406 15.6373 17.9406 15.6377 17.9406C15.6382 17.9406 15.6386 17.9406 15.6391 17.9406C15.6395 17.9406 15.6399 17.9406 15.6404 17.9406C15.6408 17.9406 15.6413 17.9406 15.6417 17.9406C15.6421 17.9406 15.6426 17.9406 15.643 17.9406C15.6435 17.9406 15.6439 17.9406 15.6443 17.9406C15.6448 17.9406 15.6452 17.9406 15.6457 17.9406C15.6461 17.9406 15.6465 17.9406 15.647 17.9406C15.6474 17.9406 15.6479 17.9406 15.6483 17.9406C15.6487 17.9406 15.6492 17.9406 15.6496 17.9406C15.6501 17.9406 15.6505 17.9406 15.6509 17.9406C15.6514 17.9406 15.6518 17.9406 15.6523 17.9406C15.6527 17.9406 15.6531 17.9406 15.6536 17.9406C15.654 17.9406 15.6545 17.9406 15.6549 17.9406C15.6553 17.9406 15.6558 17.9406 15.6562 17.9406C15.6567 17.9406 15.6571 17.9406 15.6575 17.9406C15.658 17.9406 15.6584 17.9406 15.6589 17.9406C15.6593 17.9406 15.6598 17.9406 15.6602 17.9406C15.6606 17.9406 15.6611 17.9406 15.6615 17.9406C15.662 17.9406 15.6624 17.9406 15.6628 17.9406C15.6633 17.9406 15.6637 17.9406 15.6642 17.9406V17.1406V16.3406C15.6637 16.3406 15.6633 16.3406 15.6628 16.3406C15.6624 16.3406 15.662 16.3406 15.6615 16.3406C15.6611 16.3406 15.6606 16.3406 15.6602 16.3406C15.6598 16.3406 15.6593 16.3406 15.6589 16.3406C15.6584 16.3406 15.658 16.3406 15.6575 16.3406C15.6571 16.3406 15.6567 16.3406 15.6562 16.3406C15.6558 16.3406 15.6553 16.3406 15.6549 16.3406C15.6545 16.3406 15.654 16.3406 15.6536 16.3406C15.6531 16.3406 15.6527 16.3406 15.6523 16.3406C15.6518 16.3406 15.6514 16.3406 15.6509 16.3406C15.6505 16.3406 15.6501 16.3406 15.6496 16.3406C15.6492 16.3406 15.6487 16.3406 15.6483 16.3406C15.6479 16.3406 15.6474 16.3406 15.647 16.3406C15.6465 16.3406 15.6461 16.3406 15.6457 16.3406C15.6452 16.3406 15.6448 16.3406 15.6443 16.3406C15.6439 16.3406 15.6435 16.3406 15.643 16.3406C15.6426 16.3406 15.6421 16.3406 15.6417 16.3406C15.6413 16.3406 15.6408 16.3406 15.6404 16.3406C15.6399 16.3406 15.6395 16.3406 15.6391 16.3406C15.6386 16.3406 15.6382 16.3406 15.6377 16.3406C15.6373 16.3406 15.6369 16.3406 15.6364 16.3406C15.636 16.3406 15.6355 16.3406 15.6351 16.3406C15.6347 16.3406 15.6342 16.3406 15.6338 16.3406C15.6333 16.3406 15.6329 16.3406 15.6325 16.3406C15.632 16.3406 15.6316 16.3406 15.6311 16.3406C15.6307 16.3406 15.6303 16.3406 15.6298 16.3406C15.6294 16.3406 15.6289 16.3406 15.6285 16.3406C15.6281 16.3406 15.6276 16.3406 15.6272 16.3406C15.6267 16.3406 15.6263 16.3406 15.6259 16.3406C15.6254 16.3406 15.625 16.3406 15.6245 16.3406C15.6241 16.3406 15.6237 16.3406 15.6232 16.3406C15.6228 16.3406 15.6223 16.3406 15.6219 16.3406C15.6215 16.3406 15.621 16.3406 15.6206 16.3406C15.6201 16.3406 15.6197 16.3406 15.6193 16.3406C15.6188 16.3406 15.6184 16.3406 15.6179 16.3406C15.6175 16.3406 15.6171 16.3406 15.6166 16.3406C15.6162 16.3406 15.6158 16.3406 15.6153 16.3406C15.6149 16.3406 15.6144 16.3406 15.614 16.3406C15.6136 16.3406 15.6131 16.3406 15.6127 16.3406C15.6122 16.3406 15.6118 16.3406 15.6114 16.3406C15.6109 16.3406 15.6105 16.3406 15.61 16.3406C15.6096 16.3406 15.6092 16.3406 15.6087 16.3406C15.6083 16.3406 15.6078 16.3406 15.6074 16.3406C15.607 16.3406 15.6065 16.3406 15.6061 16.3406C15.6057 16.3406 15.6052 16.3406 15.6048 16.3406C15.6043 16.3406 15.6039 16.3406 15.6035 16.3406C15.603 16.3406 15.6026 16.3406 15.6021 16.3406C15.6017 16.3406 15.6013 16.3406 15.6008 16.3406C15.6004 16.3406 15.6 16.3406 15.5995 16.3406C15.5991 16.3406 15.5986 16.3406 15.5982 16.3406C15.5978 16.3406 15.5973 16.3406 15.5969 16.3406C15.5964 16.3406 15.596 16.3406 15.5956 16.3406C15.5951 16.3406 15.5947 16.3406 15.5943 16.3406C15.5938 16.3406 15.5934 16.3406 15.5929 16.3406C15.5925 16.3406 15.5921 16.3406 15.5916 16.3406C15.5912 16.3406 15.5907 16.3406 15.5903 16.3406C15.5899 16.3406 15.5894 16.3406 15.589 16.3406C15.5886 16.3406 15.5881 16.3406 15.5877 16.3406C15.5872 16.3406 15.5868 16.3406 15.5864 16.3406C15.5859 16.3406 15.5855 16.3406 15.585 16.3406C15.5846 16.3406 15.5842 16.3406 15.5837 16.3406C15.5833 16.3406 15.5829 16.3406 15.5824 16.3406C15.582 16.3406 15.5815 16.3406 15.5811 16.3406C15.5807 16.3406 15.5802 16.3406 15.5798 16.3406C15.5794 16.3406 15.5789 16.3406 15.5785 16.3406C15.578 16.3406 15.5776 16.3406 15.5772 16.3406C15.5767 16.3406 15.5763 16.3406 15.5759 16.3406C15.5754 16.3406 15.575 16.3406 15.5745 16.3406C15.5741 16.3406 15.5737 16.3406 15.5732 16.3406C15.5728 16.3406 15.5723 16.3406 15.5719 16.3406C15.5715 16.3406 15.571 16.3406 15.5706 16.3406C15.5702 16.3406 15.5697 16.3406 15.5693 16.3406C15.5688 16.3406 15.5684 16.3406 15.568 16.3406C15.5675 16.3406 15.5671 16.3406 15.5667 16.3406C15.5662 16.3406 15.5658 16.3406 15.5653 16.3406C15.5649 16.3406 15.5645 16.3406 15.564 16.3406C15.5636 16.3406 15.5632 16.3406 15.5627 16.3406C15.5623 16.3406 15.5618 16.3406 15.5614 16.3406C15.561 16.3406 15.5605 16.3406 15.5601 16.3406C15.5597 16.3406 15.5592 16.3406 15.5588 16.3406C15.5583 16.3406 15.5579 16.3406 15.5575 16.3406C15.557 16.3406 15.5566 16.3406 15.5562 16.3406C15.5557 16.3406 15.5553 16.3406 15.5549 16.3406C15.5544 16.3406 15.554 16.3406 15.5535 16.3406C15.5531 16.3406 15.5527 16.3406 15.5522 16.3406C15.5518 16.3406 15.5514 16.3406 15.5509 16.3406C15.5505 16.3406 15.55 16.3406 15.5496 16.3406C15.5492 16.3406 15.5487 16.3406 15.5483 16.3406C15.5479 16.3406 15.5474 16.3406 15.547 16.3406C15.5465 16.3406 15.5461 16.3406 15.5457 16.3406C15.5452 16.3406 15.5448 16.3406 15.5444 16.3406C15.5439 16.3406 15.5435 16.3406 15.5431 16.3406C15.5426 16.3406 15.5422 16.3406 15.5417 16.3406C15.5413 16.3406 15.5409 16.3406 15.5404 16.3406C15.54 16.3406 15.5396 16.3406 15.5391 16.3406C15.5387 16.3406 15.5383 16.3406 15.5378 16.3406C15.5374 16.3406 15.5369 16.3406 15.5365 16.3406C15.5361 16.3406 15.5356 16.3406 15.5352 16.3406C15.5348 16.3406 15.5343 16.3406 15.5339 16.3406C15.5335 16.3406 15.533 16.3406 15.5326 16.3406C15.5321 16.3406 15.5317 16.3406 15.5313 16.3406C15.5308 16.3406 15.5304 16.3406 15.53 16.3406C15.5295 16.3406 15.5291 16.3406 15.5287 16.3406C15.5282 16.3406 15.5278 16.3406 15.5273 16.3406C15.5269 16.3406 15.5265 16.3406 15.526 16.3406C15.5256 16.3406 15.5252 16.3406 15.5247 16.3406C15.5243 16.3406 15.5239 16.3406 15.5234 16.3406C15.523 16.3406 15.5225 16.3406 15.5221 16.3406C15.5217 16.3406 15.5212 16.3406 15.5208 16.3406C15.5204 16.3406 15.5199 16.3406 15.5195 16.3406C15.5191 16.3406 15.5186 16.3406 15.5182 16.3406C15.5177 16.3406 15.5173 16.3406 15.5169 16.3406C15.5164 16.3406 15.516 16.3406 15.5156 16.3406C15.5151 16.3406 15.5147 16.3406 15.5143 16.3406C15.5138 16.3406 15.5134 16.3406 15.513 16.3406C15.5125 16.3406 15.5121 16.3406 15.5116 16.3406C15.5112 16.3406 15.5108 16.3406 15.5103 16.3406C15.5099 16.3406 15.5095 16.3406 15.509 16.3406C15.5086 16.3406 15.5082 16.3406 15.5077 16.3406C15.5073 16.3406 15.5069 16.3406 15.5064 16.3406C15.506 16.3406 15.5055 16.3406 15.5051 16.3406C15.5047 16.3406 15.5042 16.3406 15.5038 16.3406C15.5034 16.3406 15.5029 16.3406 15.5025 16.3406C15.5021 16.3406 15.5016 16.3406 15.5012 16.3406C15.5008 16.3406 15.5003 16.3406 15.4999 16.3406C15.4994 16.3406 15.499 16.3406 15.4986 16.3406C15.4981 16.3406 15.4977 16.3406 15.4973 16.3406C15.4968 16.3406 15.4964 16.3406 15.496 16.3406C15.4955 16.3406 15.4951 16.3406 15.4947 16.3406C15.4942 16.3406 15.4938 16.3406 15.4934 16.3406C15.4929 16.3406 15.4925 16.3406 15.492 16.3406C15.4916 16.3406 15.4912 16.3406 15.4907 16.3406C15.4903 16.3406 15.4899 16.3406 15.4894 16.3406C15.489 16.3406 15.4886 16.3406 15.4881 16.3406C15.4877 16.3406 15.4873 16.3406 15.4868 16.3406C15.4864 16.3406 15.486 16.3406 15.4855 16.3406C15.4851 16.3406 15.4847 16.3406 15.4842 16.3406C15.4838 16.3406 15.4833 16.3406 15.4829 16.3406C15.4825 16.3406 15.482 16.3406 15.4816 16.3406C15.4812 16.3406 15.4807 16.3406 15.4803 16.3406C15.4799 16.3406 15.4794 16.3406 15.479 16.3406C15.4786 16.3406 15.4781 16.3406 15.4777 16.3406C15.4773 16.3406 15.4768 16.3406 15.4764 16.3406C15.476 16.3406 15.4755 16.3406 15.4751 16.3406C15.4747 16.3406 15.4742 16.3406 15.4738 16.3406C15.4733 16.3406 15.4729 16.3406 15.4725 16.3406C15.472 16.3406 15.4716 16.3406 15.4712 16.3406C15.4707 16.3406 15.4703 16.3406 15.4699 16.3406C15.4694 16.3406 15.469 16.3406 15.4686 16.3406C15.4681 16.3406 15.4677 16.3406 15.4673 16.3406C15.4668 16.3406 15.4664 16.3406 15.466 16.3406C15.4655 16.3406 15.4651 16.3406 15.4647 16.3406C15.4642 16.3406 15.4638 16.3406 15.4634 16.3406C15.4629 16.3406 15.4625 16.3406 15.4621 16.3406C15.4616 16.3406 15.4612 16.3406 15.4607 16.3406C15.4603 16.3406 15.4599 16.3406 15.4594 16.3406C15.459 16.3406 15.4586 16.3406 15.4581 16.3406C15.4577 16.3406 15.4573 16.3406 15.4568 16.3406C15.4564 16.3406 15.456 16.3406 15.4555 16.3406C15.4551 16.3406 15.4547 16.3406 15.4542 16.3406C15.4538 16.3406 15.4534 16.3406 15.4529 16.3406C15.4525 16.3406 15.4521 16.3406 15.4516 16.3406C15.4512 16.3406 15.4508 16.3406 15.4503 16.3406C15.4499 16.3406 15.4495 16.3406 15.449 16.3406C15.4486 16.3406 15.4482 16.3406 15.4477 16.3406C15.4473 16.3406 15.4469 16.3406 15.4464 16.3406C15.446 16.3406 15.4456 16.3406 15.4451 16.3406C15.4447 16.3406 15.4443 16.3406 15.4438 16.3406C15.4434 16.3406 15.443 16.3406 15.4425 16.3406C15.4421 16.3406 15.4416 16.3406 15.4412 16.3406C15.4408 16.3406 15.4403 16.3406 15.4399 16.3406C15.4395 16.3406 15.439 16.3406 15.4386 16.3406C15.4382 16.3406 15.4377 16.3406 15.4373 16.3406C15.4369 16.3406 15.4364 16.3406 15.436 16.3406C15.4356 16.3406 15.4351 16.3406 15.4347 16.3406C15.4343 16.3406 15.4338 16.3406 15.4334 16.3406C15.433 16.3406 15.4325 16.3406 15.4321 16.3406C15.4317 16.3406 15.4312 16.3406 15.4308 16.3406C15.4304 16.3406 15.4299 16.3406 15.4295 16.3406C15.4291 16.3406 15.4286 16.3406 15.4282 16.3406C15.4278 16.3406 15.4273 16.3406 15.4269 16.3406C15.4265 16.3406 15.426 16.3406 15.4256 16.3406C15.4252 16.3406 15.4247 16.3406 15.4243 16.3406C15.4239 16.3406 15.4234 16.3406 15.423 16.3406C15.4226 16.3406 15.4221 16.3406 15.4217 16.3406C15.4213 16.3406 15.4208 16.3406 15.4204 16.3406C15.42 16.3406 15.4195 16.3406 15.4191 16.3406C15.4187 16.3406 15.4182 16.3406 15.4178 16.3406C15.4174 16.3406 15.4169 16.3406 15.4165 16.3406C15.4161 16.3406 15.4156 16.3406 15.4152 16.3406C15.4148 16.3406 15.4143 16.3406 15.4139 16.3406C15.4135 16.3406 15.413 16.3406 15.4126 16.3406C15.4122 16.3406 15.4117 16.3406 15.4113 16.3406C15.4109 16.3406 15.4104 16.3406 15.41 16.3406C15.4096 16.3406 15.4091 16.3406 15.4087 16.3406C15.4083 16.3406 15.4078 16.3406 15.4074 16.3406C15.407 16.3406 15.4065 16.3406 15.4061 16.3406C15.4057 16.3406 15.4052 16.3406 15.4048 16.3406C15.4044 16.3406 15.4039 16.3406 15.4035 16.3406C15.4031 16.3406 15.4027 16.3406 15.4022 16.3406C15.4018 16.3406 15.4014 16.3406 15.4009 16.3406C15.4005 16.3406 15.4001 16.3406 15.3996 16.3406C15.3992 16.3406 15.3988 16.3406 15.3983 16.3406C15.3979 16.3406 15.3975 16.3406 15.397 16.3406C15.3966 16.3406 15.3962 16.3406 15.3957 16.3406C15.3953 16.3406 15.3949 16.3406 15.3944 16.3406C15.394 16.3406 15.3936 16.3406 15.3931 16.3406C15.3927 16.3406 15.3923 16.3406 15.3918 16.3406C15.3914 16.3406 15.391 16.3406 15.3905 16.3406C15.3901 16.3406 15.3897 16.3406 15.3892 16.3406C15.3888 16.3406 15.3884 16.3406 15.3879 16.3406C15.3875 16.3406 15.3871 16.3406 15.3866 16.3406C15.3862 16.3406 15.3858 16.3406 15.3853 16.3406C15.3849 16.3406 15.3845 16.3406 15.384 16.3406C15.3836 16.3406 15.3832 16.3406 15.3828 16.3406C15.3823 16.3406 15.3819 16.3406 15.3815 16.3406C15.381 16.3406 15.3806 16.3406 15.3802 16.3406C15.3797 16.3406 15.3793 16.3406 15.3789 16.3406C15.3784 16.3406 15.378 16.3406 15.3776 16.3406C15.3771 16.3406 15.3767 16.3406 15.3763 16.3406C15.3758 16.3406 15.3754 16.3406 15.375 16.3406C15.3745 16.3406 15.3741 16.3406 15.3737 16.3406C15.3732 16.3406 15.3728 16.3406 15.3724 16.3406C15.3719 16.3406 15.3715 16.3406 15.3711 16.3406C15.3706 16.3406 15.3702 16.3406 15.3698 16.3406C15.3694 16.3406 15.3689 16.3406 15.3685 16.3406C15.3681 16.3406 15.3676 16.3406 15.3672 16.3406C15.3668 16.3406 15.3663 16.3406 15.3659 16.3406C15.3655 16.3406 15.365 16.3406 15.3646 16.3406C15.3642 16.3406 15.3637 16.3406 15.3633 16.3406C15.3629 16.3406 15.3624 16.3406 15.362 16.3406C15.3616 16.3406 15.3611 16.3406 15.3607 16.3406C15.3603 16.3406 15.3598 16.3406 15.3594 16.3406C15.359 16.3406 15.3586 16.3406 15.3581 16.3406C15.3577 16.3406 15.3573 16.3406 15.3568 16.3406C15.3564 16.3406 15.356 16.3406 15.3555 16.3406C15.3551 16.3406 15.3547 16.3406 15.3542 16.3406C15.3538 16.3406 15.3534 16.3406 15.3529 16.3406C15.3525 16.3406 15.3521 16.3406 15.3516 16.3406C15.3512 16.3406 15.3508 16.3406 15.3503 16.3406C15.3499 16.3406 15.3495 16.3406 15.3491 16.3406C15.3486 16.3406 15.3482 16.3406 15.3478 16.3406C15.3473 16.3406 15.3469 16.3406 15.3465 16.3406C15.346 16.3406 15.3456 16.3406 15.3452 16.3406C15.3447 16.3406 15.3443 16.3406 15.3439 16.3406C15.3434 16.3406 15.343 16.3406 15.3426 16.3406C15.3421 16.3406 15.3417 16.3406 15.3413 16.3406C15.3409 16.3406 15.3404 16.3406 15.34 16.3406C15.3396 16.3406 15.3391 16.3406 15.3387 16.3406C15.3383 16.3406 15.3378 16.3406 15.3374 16.3406C15.337 16.3406 15.3365 16.3406 15.3361 16.3406C15.3357 16.3406 15.3352 16.3406 15.3348 16.3406C15.3344 16.3406 15.334 16.3406 15.3335 16.3406C15.3331 16.3406 15.3327 16.3406 15.3322 16.3406C15.3318 16.3406 15.3314 16.3406 15.3309 16.3406C15.3305 16.3406 15.3301 16.3406 15.3296 16.3406C15.3292 16.3406 15.3288 16.3406 15.3283 16.3406C15.3279 16.3406 15.3275 16.3406 15.3271 16.3406C15.3266 16.3406 15.3262 16.3406 15.3258 16.3406C15.3253 16.3406 15.3249 16.3406 15.3245 16.3406C15.324 16.3406 15.3236 16.3406 15.3232 16.3406C15.3227 16.3406 15.3223 16.3406 15.3219 16.3406C15.3214 16.3406 15.321 16.3406 15.3206 16.3406C15.3202 16.3406 15.3197 16.3406 15.3193 16.3406C15.3189 16.3406 15.3184 16.3406 15.318 16.3406C15.3176 16.3406 15.3171 16.3406 15.3167 16.3406C15.3163 16.3406 15.3158 16.3406 15.3154 16.3406C15.315 16.3406 15.3146 16.3406 15.3141 16.3406C15.3137 16.3406 15.3133 16.3406 15.3128 16.3406C15.3124 16.3406 15.312 16.3406 15.3115 16.3406C15.3111 16.3406 15.3107 16.3406 15.3102 16.3406C15.3098 16.3406 15.3094 16.3406 15.3089 16.3406C15.3085 16.3406 15.3081 16.3406 15.3077 16.3406C15.3072 16.3406 15.3068 16.3406 15.3064 16.3406C15.3059 16.3406 15.3055 16.3406 15.3051 16.3406C15.3046 16.3406 15.3042 16.3406 15.3038 16.3406C15.3033 16.3406 15.3029 16.3406 15.3025 16.3406C15.3021 16.3406 15.3016 16.3406 15.3012 16.3406C15.3008 16.3406 15.3003 16.3406 15.2999 16.3406C15.2995 16.3406 15.299 16.3406 15.2986 16.3406C15.2982 16.3406 15.2977 16.3406 15.2973 16.3406C15.2969 16.3406 15.2965 16.3406 15.296 16.3406C15.2956 16.3406 15.2952 16.3406 15.2947 16.3406C15.2943 16.3406 15.2939 16.3406 15.2934 16.3406C15.293 16.3406 15.2926 16.3406 15.2922 16.3406C15.2917 16.3406 15.2913 16.3406 15.2909 16.3406C15.2904 16.3406 15.29 16.3406 15.2896 16.3406C15.2891 16.3406 15.2887 16.3406 15.2883 16.3406C15.2878 16.3406 15.2874 16.3406 15.287 16.3406C15.2866 16.3406 15.2861 16.3406 15.2857 16.3406C15.2853 16.3406 15.2848 16.3406 15.2844 16.3406C15.284 16.3406 15.2835 16.3406 15.2831 16.3406C15.2827 16.3406 15.2823 16.3406 15.2818 16.3406C15.2814 16.3406 15.281 16.3406 15.2805 16.3406C15.2801 16.3406 15.2797 16.3406 15.2792 16.3406C15.2788 16.3406 15.2784 16.3406 15.2779 16.3406C15.2775 16.3406 15.2771 16.3406 15.2767 16.3406C15.2762 16.3406 15.2758 16.3406 15.2754 16.3406C15.2749 16.3406 15.2745 16.3406 15.2741 16.3406C15.2736 16.3406 15.2732 16.3406 15.2728 16.3406C15.2724 16.3406 15.2719 16.3406 15.2715 16.3406C15.2711 16.3406 15.2706 16.3406 15.2702 16.3406C15.2698 16.3406 15.2693 16.3406 15.2689 16.3406C15.2685 16.3406 15.2681 16.3406 15.2676 16.3406C15.2672 16.3406 15.2668 16.3406 15.2663 16.3406C15.2659 16.3406 15.2655 16.3406 15.265 16.3406C15.2646 16.3406 15.2642 16.3406 15.2638 16.3406C15.2633 16.3406 15.2629 16.3406 15.2625 16.3406C15.262 16.3406 15.2616 16.3406 15.2612 16.3406C15.2607 16.3406 15.2603 16.3406 15.2599 16.3406C15.2594 16.3406 15.259 16.3406 15.2586 16.3406C15.2582 16.3406 15.2577 16.3406 15.2573 16.3406C15.2569 16.3406 15.2564 16.3406 15.256 16.3406C15.2556 16.3406 15.2551 16.3406 15.2547 16.3406C15.2543 16.3406 15.2539 16.3406 15.2534 16.3406C15.253 16.3406 15.2526 16.3406 15.2521 16.3406C15.2517 16.3406 15.2513 16.3406 15.2509 16.3406C15.2504 16.3406 15.25 16.3406 15.2496 16.3406C15.2491 16.3406 15.2487 16.3406 15.2483 16.3406C15.2478 16.3406 15.2474 16.3406 15.247 16.3406C15.2466 16.3406 15.2461 16.3406 15.2457 16.3406C15.2453 16.3406 15.2448 16.3406 15.2444 16.3406C15.244 16.3406 15.2435 16.3406 15.2431 16.3406C15.2427 16.3406 15.2423 16.3406 15.2418 16.3406C15.2414 16.3406 15.241 16.3406 15.2405 16.3406C15.2401 16.3406 15.2397 16.3406 15.2392 16.3406C15.2388 16.3406 15.2384 16.3406 15.238 16.3406C15.2375 16.3406 15.2371 16.3406 15.2367 16.3406C15.2362 16.3406 15.2358 16.3406 15.2354 16.3406C15.2349 16.3406 15.2345 16.3406 15.2341 16.3406C15.2337 16.3406 15.2332 16.3406 15.2328 16.3406C15.2324 16.3406 15.2319 16.3406 15.2315 16.3406C15.2311 16.3406 15.2307 16.3406 15.2302 16.3406C15.2298 16.3406 15.2294 16.3406 15.2289 16.3406C15.2285 16.3406 15.2281 16.3406 15.2276 16.3406C15.2272 16.3406 15.2268 16.3406 15.2264 16.3406C15.2259 16.3406 15.2255 16.3406 15.2251 16.3406C15.2246 16.3406 15.2242 16.3406 15.2238 16.3406C15.2234 16.3406 15.2229 16.3406 15.2225 16.3406C15.2221 16.3406 15.2216 16.3406 15.2212 16.3406C15.2208 16.3406 15.2203 16.3406 15.2199 16.3406C15.2195 16.3406 15.2191 16.3406 15.2186 16.3406C15.2182 16.3406 15.2178 16.3406 15.2173 16.3406C15.2169 16.3406 15.2165 16.3406 15.216 16.3406C15.2156 16.3406 15.2152 16.3406 15.2148 16.3406C15.2143 16.3406 15.2139 16.3406 15.2135 16.3406C15.213 16.3406 15.2126 16.3406 15.2122 16.3406C15.2118 16.3406 15.2113 16.3406 15.2109 16.3406C15.2105 16.3406 15.21 16.3406 15.2096 16.3406C15.2092 16.3406 15.2088 16.3406 15.2083 16.3406C15.2079 16.3406 15.2075 16.3406 15.207 16.3406C15.2066 16.3406 15.2062 16.3406 15.2057 16.3406C15.2053 16.3406 15.2049 16.3406 15.2045 16.3406C15.204 16.3406 15.2036 16.3406 15.2032 16.3406C15.2027 16.3406 15.2023 16.3406 15.2019 16.3406C15.2015 16.3406 15.201 16.3406 15.2006 16.3406C15.2002 16.3406 15.1997 16.3406 15.1993 16.3406C15.1989 16.3406 15.1984 16.3406 15.198 16.3406C15.1976 16.3406 15.1972 16.3406 15.1967 16.3406C15.1963 16.3406 15.1959 16.3406 15.1954 16.3406C15.195 16.3406 15.1946 16.3406 15.1942 16.3406C15.1937 16.3406 15.1933 16.3406 15.1929 16.3406C15.1924 16.3406 15.192 16.3406 15.1916 16.3406C15.1912 16.3406 15.1907 16.3406 15.1903 16.3406C15.1899 16.3406 15.1894 16.3406 15.189 16.3406C15.1886 16.3406 15.1881 16.3406 15.1877 16.3406C15.1873 16.3406 15.1869 16.3406 15.1864 16.3406C15.186 16.3406 15.1856 16.3406 15.1851 16.3406C15.1847 16.3406 15.1843 16.3406 15.1839 16.3406C15.1834 16.3406 15.183 16.3406 15.1826 16.3406C15.1821 16.3406 15.1817 16.3406 15.1813 16.3406C15.1809 16.3406 15.1804 16.3406 15.18 16.3406C15.1796 16.3406 15.1791 16.3406 15.1787 16.3406C15.1783 16.3406 15.1779 16.3406 15.1774 16.3406C15.177 16.3406 15.1766 16.3406 15.1761 16.3406C15.1757 16.3406 15.1753 16.3406 15.1749 16.3406C15.1744 16.3406 15.174 16.3406 15.1736 16.3406C15.1731 16.3406 15.1727 16.3406 15.1723 16.3406C15.1718 16.3406 15.1714 16.3406 15.171 16.3406C15.1706 16.3406 15.1701 16.3406 15.1697 16.3406C15.1693 16.3406 15.1688 16.3406 15.1684 16.3406C15.168 16.3406 15.1676 16.3406 15.1671 16.3406C15.1667 16.3406 15.1663 16.3406 15.1658 16.3406C15.1654 16.3406 15.165 16.3406 15.1646 16.3406C15.1641 16.3406 15.1637 16.3406 15.1633 16.3406C15.1628 16.3406 15.1624 16.3406 15.162 16.3406C15.1616 16.3406 15.1611 16.3406 15.1607 16.3406C15.1603 16.3406 15.1598 16.3406 15.1594 16.3406C15.159 16.3406 15.1586 16.3406 15.1581 16.3406C15.1577 16.3406 15.1573 16.3406 15.1568 16.3406C15.1564 16.3406 15.156 16.3406 15.1556 16.3406C15.1551 16.3406 15.1547 16.3406 15.1543 16.3406C15.1538 16.3406 15.1534 16.3406 15.153 16.3406C15.1526 16.3406 15.1521 16.3406 15.1517 16.3406C15.1513 16.3406 15.1508 16.3406 15.1504 16.3406C15.15 16.3406 15.1496 16.3406 15.1491 16.3406C15.1487 16.3406 15.1483 16.3406 15.1478 16.3406C15.1474 16.3406 15.147 16.3406 15.1466 16.3406C15.1461 16.3406 15.1457 16.3406 15.1453 16.3406C15.1448 16.3406 15.1444 16.3406 15.144 16.3406C15.1436 16.3406 15.1431 16.3406 15.1427 16.3406C15.1423 16.3406 15.1418 16.3406 15.1414 16.3406C15.141 16.3406 15.1405 16.3406 15.1401 16.3406C15.1397 16.3406 15.1393 16.3406 15.1388 16.3406C15.1384 16.3406 15.138 16.3406 15.1375 16.3406C15.1371 16.3406 15.1367 16.3406 15.1363 16.3406C15.1358 16.3406 15.1354 16.3406 15.135 16.3406C15.1345 16.3406 15.1341 16.3406 15.1337 16.3406C15.1333 16.3406 15.1328 16.3406 15.1324 16.3406C15.132 16.3406 15.1316 16.3406 15.1311 16.3406C15.1307 16.3406 15.1303 16.3406 15.1298 16.3406C15.1294 16.3406 15.129 16.3406 15.1286 16.3406C15.1281 16.3406 15.1277 16.3406 15.1273 16.3406C15.1268 16.3406 15.1264 16.3406 15.126 16.3406C15.1256 16.3406 15.1251 16.3406 15.1247 16.3406C15.1243 16.3406 15.1238 16.3406 15.1234 16.3406C15.123 16.3406 15.1226 16.3406 15.1221 16.3406C15.1217 16.3406 15.1213 16.3406 15.1208 16.3406C15.1204 16.3406 15.12 16.3406 15.1196 16.3406C15.1191 16.3406 15.1187 16.3406 15.1183 16.3406C15.1178 16.3406 15.1174 16.3406 15.117 16.3406C15.1166 16.3406 15.1161 16.3406 15.1157 16.3406C15.1153 16.3406 15.1148 16.3406 15.1144 16.3406C15.114 16.3406 15.1136 16.3406 15.1131 16.3406C15.1127 16.3406 15.1123 16.3406 15.1118 16.3406C15.1114 16.3406 15.111 16.3406 15.1106 16.3406C15.1101 16.3406 15.1097 16.3406 15.1093 16.3406C15.1088 16.3406 15.1084 16.3406 15.108 16.3406C15.1076 16.3406 15.1071 16.3406 15.1067 16.3406C15.1063 16.3406 15.1058 16.3406 15.1054 16.3406C15.105 16.3406 15.1046 16.3406 15.1041 16.3406C15.1037 16.3406 15.1033 16.3406 15.1028 16.3406C15.1024 16.3406 15.102 16.3406 15.1016 16.3406C15.1011 16.3406 15.1007 16.3406 15.1003 16.3406C15.0998 16.3406 15.0994 16.3406 15.099 16.3406C15.0986 16.3406 15.0981 16.3406 15.0977 16.3406C15.0973 16.3406 15.0968 16.3406 15.0964 16.3406C15.096 16.3406 15.0956 16.3406 15.0951 16.3406C15.0947 16.3406 15.0943 16.3406 15.0939 16.3406C15.0934 16.3406 15.093 16.3406 15.0926 16.3406C15.0921 16.3406 15.0917 16.3406 15.0913 16.3406C15.0909 16.3406 15.0904 16.3406 15.09 16.3406C15.0896 16.3406 15.0891 16.3406 15.0887 16.3406C15.0883 16.3406 15.0879 16.3406 15.0874 16.3406C15.087 16.3406 15.0866 16.3406 15.0861 16.3406C15.0857 16.3406 15.0853 16.3406 15.0849 16.3406C15.0844 16.3406 15.084 16.3406 15.0836 16.3406C15.0831 16.3406 15.0827 16.3406 15.0823 16.3406C15.0819 16.3406 15.0814 16.3406 15.081 16.3406C15.0806 16.3406 15.0801 16.3406 15.0797 16.3406C15.0793 16.3406 15.0789 16.3406 15.0784 16.3406C15.078 16.3406 15.0776 16.3406 15.0772 16.3406C15.0767 16.3406 15.0763 16.3406 15.0759 16.3406C15.0754 16.3406 15.075 16.3406 15.0746 16.3406C15.0742 16.3406 15.0737 16.3406 15.0733 16.3406C15.0729 16.3406 15.0724 16.3406 15.072 16.3406C15.0716 16.3406 15.0712 16.3406 15.0707 16.3406C15.0703 16.3406 15.0699 16.3406 15.0694 16.3406C15.069 16.3406 15.0686 16.3406 15.0682 16.3406C15.0677 16.3406 15.0673 16.3406 15.0669 16.3406C15.0664 16.3406 15.066 16.3406 15.0656 16.3406C15.0652 16.3406 15.0647 16.3406 15.0643 16.3406C15.0639 16.3406 15.0634 16.3406 15.063 16.3406C15.0626 16.3406 15.0622 16.3406 15.0617 16.3406C15.0613 16.3406 15.0609 16.3406 15.0605 16.3406C15.06 16.3406 15.0596 16.3406 15.0592 16.3406C15.0587 16.3406 15.0583 16.3406 15.0579 16.3406C15.0575 16.3406 15.057 16.3406 15.0566 16.3406C15.0562 16.3406 15.0557 16.3406 15.0553 16.3406C15.0549 16.3406 15.0545 16.3406 15.054 16.3406C15.0536 16.3406 15.0532 16.3406 15.0527 16.3406C15.0523 16.3406 15.0519 16.3406 15.0515 16.3406C15.051 16.3406 15.0506 16.3406 15.0502 16.3406C15.0498 16.3406 15.0493 16.3406 15.0489 16.3406C15.0485 16.3406 15.048 16.3406 15.0476 16.3406C15.0472 16.3406 15.0468 16.3406 15.0463 16.3406C15.0459 16.3406 15.0455 16.3406 15.045 16.3406C15.0446 16.3406 15.0442 16.3406 15.0438 16.3406C15.0433 16.3406 15.0429 16.3406 15.0425 16.3406C15.042 16.3406 15.0416 16.3406 15.0412 16.3406C15.0408 16.3406 15.0403 16.3406 15.0399 16.3406C15.0395 16.3406 15.039 16.3406 15.0386 16.3406C15.0382 16.3406 15.0378 16.3406 15.0373 16.3406C15.0369 16.3406 15.0365 16.3406 15.0361 16.3406C15.0356 16.3406 15.0352 16.3406 15.0348 16.3406C15.0343 16.3406 15.0339 16.3406 15.0335 16.3406C15.0331 16.3406 15.0326 16.3406 15.0322 16.3406C15.0318 16.3406 15.0313 16.3406 15.0309 16.3406C15.0305 16.3406 15.0301 16.3406 15.0296 16.3406C15.0292 16.3406 15.0288 16.3406 15.0283 16.3406C15.0279 16.3406 15.0275 16.3406 15.0271 16.3406C15.0266 16.3406 15.0262 16.3406 15.0258 16.3406C15.0254 16.3406 15.0249 16.3406 15.0245 16.3406C15.0241 16.3406 15.0236 16.3406 15.0232 16.3406C15.0228 16.3406 15.0224 16.3406 15.0219 16.3406C15.0215 16.3406 15.0211 16.3406 15.0206 16.3406C15.0202 16.3406 15.0198 16.3406 15.0194 16.3406C15.0189 16.3406 15.0185 16.3406 15.0181 16.3406C15.0176 16.3406 15.0172 16.3406 15.0168 16.3406C15.0164 16.3406 15.0159 16.3406 15.0155 16.3406C15.0151 16.3406 15.0147 16.3406 15.0142 16.3406C15.0138 16.3406 15.0134 16.3406 15.0129 16.3406C15.0125 16.3406 15.0121 16.3406 15.0117 16.3406C15.0112 16.3406 15.0108 16.3406 15.0104 16.3406C15.0099 16.3406 15.0095 16.3406 15.0091 16.3406C15.0087 16.3406 15.0082 16.3406 15.0078 16.3406C15.0074 16.3406 15.0069 16.3406 15.0065 16.3406C15.0061 16.3406 15.0057 16.3406 15.0052 16.3406C15.0048 16.3406 15.0044 16.3406 15.004 16.3406C15.0035 16.3406 15.0031 16.3406 15.0027 16.3406C15.0022 16.3406 15.0018 16.3406 15.0014 16.3406C15.001 16.3406 15.0005 16.3406 15.0001 16.3406V17.1406ZM15.6642 17.1406L16.4641 17.1471C16.4647 17.0789 16.4652 17.0107 16.4658 16.9404L15.6658 16.9339L14.8659 16.9274C14.8653 16.9977 14.8647 17.0659 14.8642 17.1341L15.6642 17.1406ZM15.6658 16.9339L16.4657 16.9502C16.4675 16.8607 16.4694 16.7713 16.4713 16.6818L15.6715 16.6646L14.8717 16.6474C14.8697 16.7374 14.8678 16.8275 14.866 16.9176L15.6658 16.9339ZM15.6715 16.6646L16.4715 16.6686C16.4717 16.6237 16.4719 16.5787 16.4722 16.5324L15.6722 16.5284L14.8722 16.5243C14.8719 16.5707 14.8717 16.6156 14.8715 16.6605L15.6715 16.6646ZM15.6722 16.5284L16.4719 16.5492C16.473 16.5066 16.4739 16.473 16.4748 16.4439C16.4758 16.4148 16.4767 16.3954 16.4775 16.3816C16.4784 16.3677 16.4789 16.3654 16.4783 16.3699C16.4776 16.3751 16.4753 16.3912 16.4695 16.4139C16.4634 16.4379 16.4547 16.4644 16.4429 16.4916C16.4313 16.5183 16.42 16.5384 16.4127 16.5504C16.4062 16.5611 16.4028 16.5653 16.4078 16.5583C16.4101 16.5552 16.4134 16.5507 16.4184 16.544C16.4235 16.5371 16.4292 16.5295 16.4367 16.5195L15.7968 16.0394L15.1569 15.5593C15.1181 15.6109 14.9809 15.7761 14.9191 16.0188C14.8928 16.1219 14.8846 16.2167 14.8805 16.2835C14.8764 16.3504 14.8745 16.4297 14.8724 16.5075L15.6722 16.5284ZM15.7968 16.0394L16.2529 16.6966C16.2865 16.6733 16.3201 16.65 16.3547 16.626L15.8985 15.9688L15.4423 15.3116C15.4077 15.3356 15.3742 15.3589 15.3406 15.3822L15.7968 16.0394ZM15.8985 15.9688L16.3573 16.6242C16.7392 16.3568 16.9762 16.0017 17.089 15.5628L16.3142 15.3636L15.5394 15.1644C15.5254 15.2188 15.5112 15.2431 15.5034 15.2545C15.496 15.2653 15.4805 15.2849 15.4398 15.3134L15.8985 15.9688ZM16.3142 15.3636L17.1061 15.4771C17.1822 14.946 17.0299 14.5414 16.834 14.1953L16.1378 14.5894L15.4416 14.9835C15.495 15.0778 15.513 15.1277 15.5202 15.1564C15.5254 15.1772 15.5292 15.202 15.5223 15.2501L16.3142 15.3636ZM16.1378 14.5894L16.7653 14.0932C16.4654 13.7138 16.0645 13.4589 15.5511 13.3849L15.4371 14.1768L15.3231 14.9686C15.3976 14.9793 15.4425 14.9999 15.5103 15.0856L16.1378 14.5894ZM15.4371 14.1768L15.4933 13.3788C14.8989 13.3369 14.3742 13.5736 13.994 13.9688L14.5704 14.5235L15.1469 15.0782C15.2316 14.9901 15.3054 14.9695 15.3809 14.9748L15.4371 14.1768Z" fill="white" mask="url(#path-2-inside-2_4177_20180)"/>
<mask id="path-4-inside-3_4177_20180" fill="white">
<path d="M1.87508 6.24223C2.22899 6.37998 2.22899 6.37998 2.31514 6.51506C2.35613 6.62755 2.35839 6.70924 2.34383 6.82817C2.27352 6.93363 2.22337 7.00559 2.10945 7.06254C1.84201 7.07046 1.62084 6.98508 1.40633 6.82817C1.31081 6.6849 1.29999 6.5651 1.3282 6.39848C1.48683 6.19226 1.63189 6.18324 1.87508 6.24223Z"/>
</mask>
<path d="M1.87508 6.24223L2.16525 5.49671L2.11552 5.47736L2.06367 5.46478L1.87508 6.24223ZM2.31514 6.51506L3.06681 6.2412L3.03679 6.1588L2.98963 6.08487L2.31514 6.51506ZM2.34383 6.82817L3.00947 7.27193L3.11481 7.11391L3.1379 6.9254L2.34383 6.82817ZM2.10945 7.06254L2.13312 7.86219L2.30945 7.85698L2.46722 7.77809L2.10945 7.06254ZM1.40633 6.82817L0.740688 7.27193L0.819432 7.39005L0.934007 7.47386L1.40633 6.82817ZM1.3282 6.39848L0.694104 5.91071L0.572687 6.06856L0.539435 6.2649L1.3282 6.39848ZM1.87508 6.24223L1.58491 6.98775C1.6297 7.00519 1.66636 7.01946 1.69814 7.03201C1.72998 7.04459 1.75326 7.05401 1.77108 7.0615C1.78914 7.06909 1.7969 7.07274 1.79849 7.07351C1.79995 7.07421 1.79007 7.06955 1.77398 7.05958C1.75667 7.04884 1.73352 7.03282 1.70809 7.01083C1.68226 6.9885 1.66139 6.96634 1.64554 6.94734C1.63811 6.93843 1.63253 6.93112 1.62896 6.92627C1.62717 6.92384 1.62581 6.92194 1.62494 6.9207C1.62408 6.91947 1.62361 6.91878 1.6236 6.91877C1.6236 6.91876 1.62394 6.91927 1.62472 6.92045C1.6255 6.92163 1.62658 6.92329 1.62807 6.92559C1.6313 6.93059 1.63497 6.93634 1.64065 6.94525L2.31514 6.51506L2.98963 6.08487C2.95067 6.02379 2.84461 5.84079 2.61706 5.69971C2.53449 5.64853 2.45152 5.6119 2.39097 5.58646C2.32769 5.55986 2.24956 5.52952 2.16525 5.49671L1.87508 6.24223ZM2.31514 6.51506L1.56348 6.78892C1.5638 6.78981 1.56147 6.78353 1.55879 6.77172C1.55598 6.75936 1.55385 6.74557 1.55276 6.73173C1.55069 6.70535 1.55403 6.69604 1.54976 6.73094L2.34383 6.82817L3.1379 6.9254C3.16272 6.72272 3.16337 6.50622 3.06681 6.2412L2.31514 6.51506ZM2.34383 6.82817L1.67819 6.38441C1.66022 6.41136 1.65234 6.42282 1.64698 6.43018C1.64273 6.43601 1.6466 6.43012 1.65683 6.41911C1.66808 6.407 1.68383 6.39207 1.70352 6.37727C1.72303 6.3626 1.74012 6.35278 1.75168 6.347L2.10945 7.06254L2.46722 7.77809C2.78507 7.61917 2.93378 7.38546 3.00947 7.27193L2.34383 6.82817ZM2.10945 7.06254L2.08579 6.26289C2.03065 6.26453 1.9801 6.25669 1.87865 6.18248L1.40633 6.82817L0.934007 7.47386C1.26157 7.71347 1.65337 7.87639 2.13312 7.86219L2.10945 7.06254ZM1.40633 6.82817L2.07197 6.38441C2.07286 6.38575 2.08065 6.3977 2.0895 6.41917C2.09875 6.44161 2.10623 6.46736 2.11058 6.49424C2.11902 6.54634 2.11032 6.57132 2.11697 6.53206L1.3282 6.39848L0.539435 6.2649C0.517865 6.39226 0.500475 6.56045 0.531147 6.74992C0.563354 6.94888 0.63995 7.12082 0.740688 7.27193L1.40633 6.82817ZM1.3282 6.39848L1.9623 6.88625C1.96896 6.8776 1.955 6.89802 1.91741 6.9254C1.87524 6.95612 1.81956 6.98378 1.75579 6.99901C1.69624 7.01324 1.65348 7.01089 1.64231 7.00995C1.63429 7.00927 1.64415 7.00942 1.68649 7.01969L1.87508 6.24223L2.06367 5.46478C1.92147 5.43029 1.66628 5.37539 1.38407 5.44279C1.06373 5.51931 0.844468 5.71524 0.694104 5.91071L1.3282 6.39848Z" fill="white" mask="url(#path-4-inside-3_4177_20180)"/>
<mask id="path-6-inside-4_4177_20180" fill="white">
<path d="M3.90636 6.90628C4.0083 6.99867 4.02147 7.04258 4.03575 7.17972C4.02382 7.29427 4.00954 7.35866 3.94542 7.45316C3.76093 7.57615 3.58425 7.55115 3.37092 7.51175C3.21823 7.47241 3.11328 7.44133 3.00059 7.32865C2.95466 7.16964 2.97128 7.06852 3.00792 6.90628C3.21103 6.62008 3.6469 6.7855 3.90636 6.90628Z"/>
</mask>
<path d="M3.90636 6.90628L4.44357 6.31349L4.35381 6.23214L4.24398 6.18102L3.90636 6.90628ZM4.03575 7.17972L4.83145 7.26261L4.84008 7.17972L4.83145 7.09684L4.03575 7.17972ZM3.94542 7.45316L4.38918 8.1188L4.51947 8.03194L4.6074 7.90236L3.94542 7.45316ZM3.37092 7.51175L3.1713 8.28645L3.19825 8.29339L3.22562 8.29845L3.37092 7.51175ZM3.00059 7.32865L2.23202 7.55068L2.28921 7.74863L2.43491 7.89433L3.00059 7.32865ZM3.00792 6.90628L2.35551 6.44329L2.26284 6.57388L2.22757 6.73008L3.00792 6.90628ZM3.90636 6.90628L3.36914 7.49907C3.39233 7.52009 3.32408 7.46513 3.27418 7.35404C3.25124 7.30299 3.24188 7.26194 3.23858 7.24499C3.23623 7.23294 3.23684 7.23173 3.24006 7.26261L4.03575 7.17972L4.83145 7.09684C4.82514 7.03634 4.81076 6.87 4.73367 6.6984C4.64813 6.50797 4.52232 6.38486 4.44357 6.31349L3.90636 6.90628ZM4.03575 7.17972L3.24006 7.09684C3.23781 7.11842 3.23676 7.12442 3.23695 7.12332C3.23741 7.12059 3.23987 7.10698 3.24595 7.08732C3.25234 7.0667 3.26041 7.04683 3.26916 7.02932C3.27737 7.01288 3.28352 7.00384 3.28344 7.00396L3.94542 7.45316L4.6074 7.90236C4.67443 7.80358 4.7334 7.69285 4.77436 7.5606C4.81177 7.43978 4.8244 7.33021 4.83145 7.26261L4.03575 7.17972ZM3.94542 7.45316L3.50166 6.78752C3.51655 6.77759 3.53964 6.7654 3.56903 6.75621C3.59788 6.74719 3.62115 6.74469 3.63324 6.74415C3.64334 6.7437 3.64171 6.74482 3.62052 6.74227C3.61026 6.74103 3.59697 6.73914 3.5792 6.73621C3.56124 6.73325 3.5411 6.72965 3.51623 6.72506L3.37092 7.51175L3.22562 8.29845C3.43074 8.33633 3.91028 8.43806 4.38918 8.1188L3.94542 7.45316ZM3.37092 7.51175L3.57055 6.73706C3.55268 6.73245 3.53871 6.72879 3.52659 6.72548C3.51462 6.72221 3.50632 6.71979 3.50041 6.71797C3.48854 6.7143 3.49045 6.71429 3.49943 6.71834C3.50412 6.72045 3.51028 6.72345 3.51741 6.72744C3.52458 6.73145 3.53185 6.73595 3.53894 6.74085C3.55373 6.75106 3.56296 6.75964 3.56628 6.76296L3.00059 7.32865L2.43491 7.89433C2.7102 8.16962 2.99994 8.24229 3.1713 8.28645L3.37092 7.51175ZM3.00059 7.32865L3.76917 7.10662C3.76765 7.10135 3.7694 7.10622 3.77094 7.11843C3.77168 7.12435 3.77224 7.13087 3.7725 7.13771C3.77275 7.14453 3.77267 7.1505 3.77246 7.15524C3.77203 7.16454 3.7712 7.16606 3.77324 7.15421C3.77428 7.1482 3.77588 7.13968 3.77842 7.12747C3.78099 7.11515 3.78415 7.10073 3.78827 7.08249L3.00792 6.90628L2.22757 6.73008C2.18213 6.93127 2.12901 7.1941 2.23202 7.55068L3.00059 7.32865ZM3.00792 6.90628L3.66032 7.36928C3.63508 7.40485 3.60069 7.44067 3.55745 7.47138C3.51466 7.50178 3.4719 7.52101 3.43508 7.53247C3.3663 7.55386 3.32584 7.54613 3.33758 7.54759C3.34701 7.54875 3.37464 7.55411 3.42215 7.57064C3.46774 7.58651 3.51694 7.60744 3.56873 7.63155L3.90636 6.90628L4.24398 6.18102C4.1023 6.11506 3.83293 5.99675 3.53444 5.95974C3.22865 5.92183 2.70118 5.95622 2.35551 6.44329L3.00792 6.90628Z" fill="white" mask="url(#path-6-inside-4_4177_20180)"/>
</g>
<defs>
<clipPath id="clip0_4177_20180">
<rect width="20" height="20" fill="white" transform="translate(0 0.5)"/>
</clipPath>
</defs>
</svg>
