<svg width="20" height="21" viewBox="0 0 20 21" fill="none" xmlns="http://www.w3.org/2000/svg">
<g opacity="0.8" clip-path="url(#clip0_4177_20164)">
<mask id="mask0_4177_20164" style="mask-type:luminance" maskUnits="userSpaceOnUse" x="0" y="0" width="20" height="21">
<path d="M20 0.5H0V20.5H20V0.5Z" fill="white"/>
</mask>
<g mask="url(#mask0_4177_20164)">
<path d="M15.8334 7.99996C15.8334 9.20829 15.4751 10.3166 14.8584 11.2416C13.9584 12.575 12.5334 13.5166 10.8751 13.7583C10.5917 13.8083 10.3001 13.8333 10.0001 13.8333C9.70008 13.8333 9.40841 13.8083 9.12508 13.7583C7.46675 13.5166 6.04175 12.575 5.14175 11.2416C4.52508 10.3166 4.16675 9.20829 4.16675 7.99996C4.16675 4.77496 6.77508 2.16663 10.0001 2.16663C13.2251 2.16663 15.8334 4.77496 15.8334 7.99996Z" stroke="white" stroke-width="0.8" stroke-linecap="round" stroke-linejoin="round"/>
<path d="M17.7084 15.8919L16.3334 16.2169C16.0251 16.2919 15.7834 16.5252 15.7167 16.8336L15.4251 18.0586C15.2667 18.7252 14.4167 18.9252 13.9751 18.4002L10.0001 13.8336L6.02502 18.4086C5.58336 18.9336 4.73336 18.7336 4.57503 18.0669L4.28336 16.8419C4.20836 16.5336 3.96669 16.2919 3.66669 16.2252L2.29169 15.9002C1.65836 15.7502 1.43336 14.9586 1.89169 14.5002L5.14169 11.2502C6.04169 12.5836 7.46669 13.5252 9.12506 13.7669C9.40839 13.8169 9.70006 13.8419 10.0001 13.8419C10.3001 13.8419 10.5917 13.8169 10.8751 13.7669C12.5334 13.5252 13.9584 12.5836 14.8584 11.2502L18.1084 14.5002C18.5667 14.9502 18.3417 15.7419 17.7084 15.8919Z" stroke="white" stroke-width="0.8" stroke-linecap="round" stroke-linejoin="round"/>
<path d="M10.4834 5.48325L10.9751 6.46658C11.0418 6.59991 11.2168 6.73325 11.3751 6.75825L12.2668 6.90824C12.8334 6.99991 12.9668 7.41659 12.5584 7.82492L11.8668 8.51657C11.7501 8.63324 11.6834 8.85825 11.7251 9.02492L11.9251 9.88325C12.0834 10.5583 11.7251 10.8249 11.1251 10.4666L10.2918 9.97492C10.1418 9.88325 9.89175 9.88325 9.74175 9.97492L8.90842 10.4666C8.30839 10.8166 7.95006 10.5583 8.10839 9.88325L8.30839 9.02492C8.34175 8.86658 8.28339 8.63324 8.16673 8.51657L7.47506 7.82492C7.06673 7.41659 7.20006 7.00824 7.76673 6.90824L8.65842 6.75825C8.80842 6.73325 8.98342 6.59991 9.05008 6.46658L9.54175 5.48325C9.78342 4.94992 10.2168 4.94992 10.4834 5.48325Z" stroke="white" stroke-width="0.8" stroke-linecap="round" stroke-linejoin="round"/>
</g>
</g>
<defs>
<clipPath id="clip0_4177_20164">
<rect width="20" height="20" fill="white" transform="translate(0 0.5)"/>
</clipPath>
</defs>
</svg>
