<svg width="20" height="21" viewBox="0 0 20 21" fill="none" xmlns="http://www.w3.org/2000/svg">
<g clip-path="url(#clip0_4177_20151)">
<g opacity="0.8">
<mask id="path-1-inside-1_4177_20151" fill="white">
<path d="M3.76072 7.31919C3.7908 7.33323 3.82089 7.34726 3.85189 7.36172C3.91523 7.39142 3.97849 7.42131 4.04166 7.45137C4.13736 7.49677 4.23347 7.54122 4.32964 7.58561C5.00414 7.90149 5.00414 7.90149 5.23182 8.22465C5.29257 8.41048 5.36451 8.67704 5.27332 8.85941C5.55037 8.90206 5.82338 8.90595 6.1034 8.9058C6.15163 8.90582 6.19987 8.90585 6.24956 8.90588C6.5704 8.90405 6.88584 8.88796 7.20421 8.84815C7.61262 8.7973 8.09355 8.76279 8.46104 8.97553C8.6098 9.0614 8.73828 9.12922 8.90613 9.17191C9.06907 9.11846 9.18815 9.04424 9.32697 8.94624C10.0292 8.46249 11.1681 8.70443 11.9579 8.80082C12.7934 8.90194 13.5568 8.97943 14.3749 8.74223C14.4789 8.71542 14.5831 8.68974 14.6874 8.6641C14.6898 8.61898 14.6922 8.57387 14.6947 8.52738C14.7284 8.2629 14.8703 8.06374 15.0759 7.89791C15.2609 7.77314 15.4673 7.68449 15.6688 7.58988C15.7368 7.55733 15.7368 7.55733 15.8062 7.52412C15.9405 7.46023 16.0755 7.39783 16.2108 7.33598C16.2538 7.31593 16.2967 7.29589 16.3409 7.27525C16.3817 7.25702 16.4224 7.23879 16.4644 7.22001C16.5003 7.20372 16.5362 7.18743 16.5732 7.17065C16.7025 7.13419 16.785 7.14461 16.9139 7.17973C17.024 7.28112 17.0646 7.34496 17.0922 7.49223C17.0623 7.65145 16.9961 7.69872 16.8749 7.80473C16.783 7.85726 16.6947 7.90366 16.5992 7.94785C16.5601 7.96653 16.5601 7.96653 16.5202 7.98558C16.4376 8.02497 16.3548 8.06379 16.2719 8.10258C16.2164 8.12889 16.1609 8.15523 16.1055 8.18162C16.0033 8.23021 15.901 8.27854 15.7986 8.32667C15.7542 8.34779 15.7097 8.36891 15.6639 8.39066C15.6203 8.40871 15.5766 8.42675 15.5316 8.44535C15.4232 8.49822 15.4232 8.49822 15.3901 8.59978C15.3906 8.72547 15.4199 8.7988 15.4744 8.91206C15.494 8.95352 15.5137 8.99498 15.5339 9.03769C15.5558 9.08279 15.5778 9.12789 15.6005 9.17435C15.6235 9.22253 15.6464 9.27073 15.6693 9.31895C15.7189 9.42318 15.7687 9.52727 15.8188 9.63126C15.9003 9.80069 15.9807 9.97063 16.0608 10.1407C16.0745 10.1697 16.0882 10.1987 16.1022 10.2285C16.1301 10.2876 16.1579 10.3467 16.1858 10.4058C16.2423 10.5256 16.2989 10.6452 16.3554 10.7649C16.5213 11.1157 16.6863 11.4668 16.8505 11.8184C16.8616 11.8422 16.8727 11.8659 16.8841 11.8904C17.0026 12.1442 17.1201 12.3983 17.2359 12.6534C17.2558 12.6971 17.2757 12.7408 17.2961 12.7858C17.3333 12.8678 17.3703 12.9499 17.4072 13.032C17.4316 13.086 17.4316 13.086 17.4565 13.141C17.4777 13.1881 17.4777 13.1881 17.4993 13.2362C17.5373 13.3187 17.5373 13.3187 17.6171 13.3907C17.8311 13.4116 17.9677 13.3691 18.1581 13.2738C18.1946 13.2559 18.1946 13.2559 18.2318 13.2376C18.3087 13.1996 18.3853 13.1609 18.4618 13.1221C18.5387 13.0838 18.6157 13.0456 18.6927 13.0075C18.7624 12.9729 18.832 12.9379 18.9015 12.9029C19.1291 12.7925 19.2788 12.7416 19.5311 12.7657C19.627 12.8345 19.6704 12.8891 19.724 12.9927C19.7279 13.128 19.6801 13.2391 19.6093 13.3516C19.5186 13.4147 19.4456 13.4572 19.3467 13.501C19.3209 13.5132 19.2951 13.5255 19.2685 13.5381C19.1863 13.5769 19.1036 13.6144 19.0209 13.6519C18.9663 13.6775 18.9118 13.7031 18.8574 13.7289C18.7052 13.8004 18.552 13.8693 18.3983 13.9375C18.3601 13.9547 18.3218 13.9719 18.2824 13.9896C18.0894 14.0723 17.9331 14.1137 17.7196 14.1084C17.6515 14.1077 17.6515 14.1077 17.582 14.1069C17.4608 14.0938 17.4608 14.0938 17.3763 14.0514C17.282 14.0044 17.2472 14.023 17.1483 14.0547C17.099 14.0786 17.0505 14.1043 17.0029 14.1313C16.9756 14.1465 16.9483 14.1616 16.9202 14.1773C16.8915 14.1932 16.8629 14.2092 16.8334 14.2256C16.5805 14.3637 16.34 14.4698 16.0546 14.5235C16.0675 14.5605 16.0804 14.5976 16.0936 14.6358C16.1896 14.9822 16.1381 15.2987 15.9764 15.6172C15.8175 15.8538 15.5932 16.0736 15.3099 16.1455C15.2343 16.1568 15.2343 16.1568 15.1171 16.1641C15.1189 16.193 15.1207 16.2218 15.1226 16.2515C15.1354 16.6112 15.0814 16.9255 14.8534 17.2139C14.6131 17.4644 14.3638 17.5627 14.0233 17.6094C14.0251 17.6359 14.0269 17.6624 14.0288 17.6897C14.0426 18.0461 13.9681 18.3165 13.745 18.5982C13.538 18.8191 13.2456 18.9668 12.9416 18.9818C12.9046 18.9817 12.8676 18.9816 12.8295 18.9815C12.7738 18.9816 12.7738 18.9816 12.717 18.9818C12.6171 18.9766 12.6171 18.9766 12.4999 18.9375C12.4997 18.973 12.4997 18.973 12.4996 19.0093C12.485 19.3254 12.3814 19.5698 12.1511 19.7913C11.9019 19.9876 11.6529 20.0909 11.3329 20.0874C11.2557 20.0886 11.2557 20.0886 11.1769 20.0897C10.9073 20.0709 10.6861 19.9304 10.4612 19.7908C10.4267 19.7695 10.3922 19.7481 10.3567 19.7261C10.2858 19.6818 10.2154 19.6366 10.1455 19.5906C9.96239 19.4703 9.96239 19.4703 9.75408 19.4655C9.67164 19.5055 9.67164 19.5055 9.60042 19.5561C9.40154 19.6868 9.13321 19.6603 8.90613 19.6407C8.62866 19.5755 8.41319 19.441 8.24207 19.211C8.24207 19.1852 8.24207 19.1594 8.24207 19.1329C8.2074 19.1491 8.2074 19.1491 8.17203 19.1657C7.82815 19.3233 7.53598 19.3864 7.16785 19.2671C6.88871 19.1568 6.68271 18.9985 6.54285 18.73C6.48426 18.586 6.48426 18.586 6.48426 18.5079C6.44876 18.5141 6.44876 18.5141 6.41254 18.5205C6.0958 18.5658 5.85691 18.5126 5.57606 18.3614C5.40042 18.2177 5.2451 18.0553 5.15614 17.8438C5.15614 17.8051 5.15614 17.7664 5.15614 17.7266C5.13292 17.7308 5.10971 17.735 5.08579 17.7393C4.76359 17.7859 4.46574 17.7424 4.1869 17.5655C3.93839 17.3665 3.79905 17.0988 3.74989 16.7891C3.71995 16.4847 3.80392 16.2022 3.97251 15.9461C4.03229 15.8582 4.03229 15.8582 4.01051 15.778C3.98394 15.6943 3.95664 15.6112 3.9275 15.5284C3.91628 15.4964 3.90507 15.4645 3.89352 15.4315C3.88157 15.3977 3.86962 15.364 3.85731 15.3291C3.84503 15.2944 3.83275 15.2597 3.8201 15.2239C3.79528 15.1537 3.77044 15.0835 3.74559 15.0133C3.71466 14.9251 3.68452 14.8366 3.65482 14.7479C3.63866 14.7004 3.6225 14.653 3.60584 14.604C3.59199 14.5626 3.57815 14.5212 3.56388 14.4785C3.47579 14.2759 3.34302 14.1468 3.16639 14.0181C3.13381 13.9936 3.10123 13.9691 3.06766 13.9438C2.97131 13.8872 2.97131 13.8872 2.87327 13.9227C2.80187 13.9612 2.73051 13.9998 2.65919 14.0384C2.42359 14.1469 2.15961 14.145 1.91267 14.0695C1.73353 14.0017 1.56255 13.9174 1.39135 13.8318C1.27744 13.7756 1.16243 13.7222 1.0471 13.669C0.964936 13.6308 0.882793 13.5925 0.800667 13.5542C0.741493 13.5268 0.741493 13.5268 0.681124 13.4989C0.644438 13.4814 0.607752 13.464 0.569954 13.4461C0.537199 13.4307 0.504443 13.4153 0.470695 13.3994C0.390511 13.3516 0.390511 13.3516 0.312386 13.2344C0.286701 12.9647 0.286701 12.9647 0.370979 12.8243C0.50614 12.7432 0.628776 12.7472 0.781135 12.7657C0.892049 12.8001 0.993075 12.8489 1.09669 12.901C1.12535 12.9148 1.15402 12.9286 1.18356 12.9428C1.27431 12.9865 1.36464 13.0311 1.45496 13.0757C1.54592 13.1201 1.63695 13.1642 1.72805 13.2083C1.78449 13.2356 1.84084 13.2632 1.89708 13.2909C2.07514 13.3786 2.07514 13.3786 2.26551 13.4297C2.43223 13.3574 2.49403 13.2777 2.56626 13.114C2.58491 13.0727 2.60355 13.0314 2.62277 12.9889C2.64264 12.9434 2.66251 12.898 2.68299 12.8511C2.71612 12.7773 2.74948 12.7035 2.78285 12.6297C2.80674 12.5769 2.83056 12.524 2.85431 12.4711C2.98805 12.1738 3.12804 11.8795 3.26817 11.5852C3.34321 11.4275 3.41797 11.2697 3.49277 11.1119C3.50763 11.0806 3.52249 11.0492 3.53781 11.017C3.77023 10.5269 4.00219 10.0366 4.23178 9.54516C4.27254 9.45805 4.31345 9.371 4.35457 9.28405C4.40173 9.18423 4.44825 9.08416 4.49451 8.98392C4.50736 8.9571 4.52021 8.93027 4.53344 8.90263C4.58081 8.79823 4.60895 8.7118 4.61307 8.59681C4.54858 8.46299 4.44106 8.42414 4.31141 8.36625C4.28446 8.35345 4.25751 8.34064 4.22975 8.32745C4.13522 8.28269 4.04024 8.239 3.9452 8.19535C3.82523 8.13978 3.70538 8.08399 3.58572 8.02775C3.50565 7.99017 3.42538 7.95302 3.3449 7.91632C3.28939 7.89039 3.28939 7.89039 3.23276 7.86393C3.19972 7.84874 3.16667 7.83354 3.13262 7.81789C3.03606 7.75915 2.98764 7.7059 2.92957 7.60941C2.9138 7.45796 2.91786 7.34457 3.0077 7.21879C3.234 7.04278 3.53581 7.21243 3.76072 7.31919ZM14.6662 9.33518C14.6307 9.34571 14.5951 9.35623 14.5585 9.36707C14.5213 9.3784 14.4841 9.38973 14.4457 9.40141C13.6006 9.65686 12.7729 9.57044 11.9091 9.46488C11.2202 9.37848 11.2202 9.37848 10.5272 9.34769C10.4949 9.34747 10.4627 9.34724 10.4294 9.34701C9.94235 9.35717 9.56003 9.53675 9.15272 9.78715C9.10345 9.81693 9.05415 9.84666 9.00483 9.87634C8.92926 9.92188 8.85373 9.96749 8.77837 10.0134C8.61196 10.1146 8.444 10.2125 8.27473 10.3088C8.2309 10.3341 8.18708 10.3594 8.14193 10.3854C8.06 10.4326 7.97778 10.4793 7.89521 10.5254C7.6217 10.6854 7.44665 10.8664 7.26551 11.125C7.24531 11.1532 7.22511 11.1814 7.20429 11.2104C7.14957 11.2879 7.09623 11.3661 7.04334 11.4449C7.00822 11.4967 6.97307 11.5485 6.9379 11.6003C6.92112 11.6252 6.90433 11.65 6.88703 11.6757C6.83524 11.7509 6.78162 11.8245 6.72764 11.8982C6.63695 12.0286 6.60145 12.0998 6.60145 12.2579C6.66602 12.404 6.74239 12.484 6.87488 12.5704C7.08586 12.6355 7.26758 12.6247 7.46815 12.5337C7.72156 12.3884 7.87137 12.1871 8.03409 11.9493C8.27376 11.6047 8.447 11.3959 8.86707 11.2813C8.92261 11.2581 8.97797 11.2346 9.03309 11.2105C9.20748 11.1553 9.31058 11.1403 9.49207 11.1641C9.56196 11.2271 9.62386 11.2904 9.68738 11.3594C9.73743 11.4111 9.78765 11.4627 9.83799 11.5141C9.86531 11.5421 9.89263 11.57 9.92078 11.5988C10.4789 12.1653 11.09 12.5811 11.8749 12.7657C11.9039 12.7728 11.9329 12.78 11.9628 12.7873C12.1809 12.8348 12.3874 12.8469 12.6099 12.8394C13.4705 12.8138 13.9713 12.9618 14.6874 13.4688C14.8009 13.5456 14.9149 13.6211 15.0301 13.6953C15.0988 13.7397 15.1667 13.7854 15.2335 13.8326C15.4005 13.9432 15.5066 13.9943 15.7077 13.9575C15.7718 13.9396 15.8354 13.9199 15.8983 13.8985C15.9379 13.8859 15.9379 13.8859 15.9784 13.873C16.2903 13.7667 16.5713 13.6264 16.8358 13.4297C16.6496 12.9975 16.4544 12.5705 16.2523 12.1455C16.2086 12.0534 16.165 11.9613 16.1214 11.8692C16.0916 11.8063 16.0617 11.7434 16.0319 11.6805C15.8894 11.3798 15.7477 11.0788 15.6061 10.7776C15.5667 10.6938 15.5273 10.61 15.4878 10.5262C15.3776 10.2923 15.2676 10.0584 15.1589 9.82377C15.1424 9.78837 15.1259 9.75298 15.1089 9.71651C15.0797 9.6537 15.0506 9.59081 15.0218 9.52781C14.9238 9.3182 14.8902 9.2672 14.6662 9.33518ZM4.99989 9.48441C4.10731 11.353 4.10731 11.3531 3.24207 13.2344C3.36401 13.3671 3.49541 13.4558 3.64735 13.5518C4.06542 13.8319 4.18397 14.2161 4.33582 14.6797C4.34841 14.717 4.361 14.7544 4.37397 14.7928C4.40072 14.8722 4.42694 14.9517 4.45301 15.0313C4.5996 14.9824 4.60679 14.9422 4.67762 14.8091C4.82766 14.5504 5.00851 14.3623 5.29835 14.2685C5.63863 14.2003 5.99157 14.2165 6.28895 14.4063C6.49179 14.5856 6.6315 14.7753 6.71863 15.0313C6.75076 15.0295 6.78289 15.0277 6.81599 15.0258C7.17005 15.0143 7.44516 15.05 7.72694 15.2754C7.83309 15.4089 7.92051 15.5491 8.0077 15.6954C8.03348 15.734 8.05926 15.7727 8.08582 15.8125C8.18594 15.8208 8.18594 15.8208 8.30067 15.8101C8.60915 15.8027 8.89151 15.8863 9.12556 16.0976C9.24666 16.2467 9.32923 16.4222 9.41395 16.5938C9.44325 16.592 9.47256 16.5902 9.50275 16.5883C9.88927 16.5747 10.2008 16.6494 10.4894 16.9176C10.6927 17.1544 10.7575 17.4304 10.7526 17.7358C10.7178 18.0932 10.5286 18.3802 10.3324 18.6701C10.2651 18.7722 10.2651 18.7722 10.2808 18.8609C10.3203 18.9568 10.3553 18.9773 10.4461 19.0256C10.4732 19.0404 10.5004 19.0552 10.5284 19.0705C10.5571 19.0854 10.5857 19.1004 10.6151 19.1158C10.6711 19.1459 10.727 19.1761 10.783 19.2062C10.8231 19.2274 10.8231 19.2274 10.864 19.2491C10.9256 19.2826 10.9852 19.3197 11.0443 19.3575C11.1892 19.4375 11.3235 19.4318 11.4843 19.4063C11.6555 19.3207 11.7628 19.2332 11.8358 19.0547C11.8578 18.9046 11.8509 18.7818 11.7968 18.6397C11.6005 18.4066 11.3235 18.2569 11.0671 18.0983C10.9764 18.0391 10.9764 18.0391 10.8983 17.961C10.8906 17.7993 10.8863 17.6845 10.9374 17.5313C11.3192 17.4821 11.546 17.6065 11.8602 17.812C11.9437 17.8647 12.0272 17.9174 12.1108 17.97C12.1503 17.9952 12.1898 18.0203 12.2306 18.0463C12.5724 18.2793 12.5724 18.2793 12.9686 18.3125C13.149 18.2119 13.2931 18.1204 13.3593 17.9219C13.3804 17.7016 13.3423 17.5465 13.203 17.375C13.0889 17.2853 12.9659 17.2159 12.8392 17.1455C12.8047 17.1256 12.7702 17.1056 12.7346 17.085C12.6306 17.0248 12.5262 16.9655 12.4218 16.9063C12.3091 16.8418 12.1969 16.7766 12.0848 16.711C12.0485 16.6905 12.0485 16.6905 12.0114 16.6696C11.8853 16.5961 11.8002 16.5419 11.7577 16.3985C11.7751 16.1467 11.7751 16.1467 11.8749 16.0469C12.0614 15.9946 12.158 16.013 12.3268 16.1038C12.3676 16.1256 12.4083 16.1474 12.4503 16.1698C12.6629 16.2903 12.8725 16.415 13.0809 16.5425C13.1654 16.594 13.25 16.6454 13.3345 16.6968C13.3896 16.7304 13.3896 16.7304 13.4458 16.7648C13.7346 16.933 13.7346 16.933 14.0624 16.9454C14.2114 16.8651 14.3358 16.785 14.4139 16.6329C14.4624 16.4492 14.4745 16.325 14.3895 16.1519C14.2356 15.9777 14.0597 15.861 13.8599 15.7442C13.8373 15.7309 13.8147 15.7176 13.7915 15.7039C13.7199 15.6619 13.6482 15.62 13.5765 15.5782C13.505 15.5363 13.4335 15.4944 13.362 15.4524C13.2971 15.4143 13.2321 15.3763 13.1671 15.3383C12.823 15.1306 12.823 15.1306 12.7733 15.0313C12.7523 14.8738 12.7613 14.814 12.8539 14.6822C12.9686 14.6016 12.9686 14.6016 13.098 14.6084C13.2451 14.6413 13.3453 14.6865 13.4745 14.763C13.5173 14.7881 13.5601 14.8132 13.6042 14.839C13.6483 14.8654 13.6923 14.8918 13.7377 14.919C13.781 14.9445 13.8242 14.9699 13.8688 14.9962C14.0427 15.0986 14.2162 15.2018 14.3895 15.3052C14.4311 15.3298 14.4726 15.3543 14.5154 15.3796C14.5711 15.4127 14.5711 15.4127 14.6279 15.4465C14.7857 15.5322 14.9051 15.5654 15.0803 15.5168C15.2358 15.4535 15.3295 15.381 15.4125 15.2339C15.4784 15.0742 15.4843 14.9642 15.4296 14.7969C15.2308 14.5085 14.9493 14.3635 14.6508 14.1963C14.5473 14.138 14.4439 14.0795 14.3406 14.0209C14.3156 14.0068 14.2906 13.9927 14.2649 13.9781C14.1372 13.9052 14.0161 13.8299 13.9002 13.7395C13.4983 13.4304 13.0393 13.4732 12.5559 13.472C11.3758 13.468 10.3296 12.9416 9.50428 12.1211C9.4479 12.0628 9.39171 12.0042 9.33582 11.9454C9.29689 11.9062 9.25788 11.867 9.21863 11.8282C8.87342 11.923 8.71725 12.0873 8.51551 12.375C8.19047 12.8194 7.86423 13.1394 7.30457 13.2344C6.97051 13.2672 6.63271 13.2047 6.35242 13.0147C6.13859 12.8386 6.01969 12.6072 5.97645 12.336C5.94485 11.9252 6.12206 11.6438 6.35231 11.3185C6.41592 11.2284 6.47861 11.1376 6.54133 11.0468C6.58982 10.9768 6.63835 10.9069 6.6869 10.837C6.7101 10.8035 6.7333 10.7701 6.75721 10.7356C6.82168 10.6434 6.88716 10.5521 6.95301 10.461C6.98227 10.4195 7.01152 10.3781 7.04166 10.3354C7.19359 10.1804 7.3688 10.0878 7.55848 9.9849C7.63132 9.94447 7.70415 9.90404 7.77698 9.86359C7.80908 9.84606 7.84119 9.82853 7.87426 9.81046C7.9054 9.7931 7.93655 9.77574 7.96863 9.75785C8.00481 9.73794 8.04099 9.71804 8.07827 9.69753C8.10654 9.67876 8.13482 9.66 8.16395 9.64066C8.16395 9.61488 8.16395 9.5891 8.16395 9.56254C7.84583 9.46828 7.57253 9.4686 7.24401 9.51257C6.87699 9.56053 6.51224 9.57133 6.14246 9.5723C6.09207 9.57266 6.04169 9.57301 5.98977 9.57337C5.65227 9.57234 5.33243 9.54084 4.99989 9.48441ZM5.31239 14.9922C5.22927 15.1039 5.22927 15.1039 5.15629 15.2364C5.14238 15.2603 5.12847 15.2843 5.11414 15.309C5.06991 15.3854 5.02635 15.4623 4.9828 15.5391C4.95372 15.5895 4.9246 15.6399 4.89544 15.6903C4.82519 15.812 4.75582 15.9342 4.68692 16.0567C4.65004 16.122 4.61272 16.1871 4.57539 16.2522C4.54328 16.309 4.54328 16.309 4.51054 16.367C4.49186 16.3999 4.47318 16.4327 4.45394 16.4665C4.39243 16.6022 4.40331 16.6901 4.45301 16.8282C4.54715 16.9795 4.62974 17.06 4.80457 17.1016C5.01162 17.0972 5.13118 17.0091 5.27332 16.8672C5.35666 16.7507 5.35666 16.7507 5.42606 16.6213C5.43914 16.5981 5.45222 16.5749 5.46569 16.5511C5.507 16.4776 5.54764 16.4039 5.58826 16.3301C5.61561 16.2813 5.643 16.2324 5.67043 16.1836C5.72312 16.0897 5.77546 15.9957 5.82747 15.9014C5.87132 15.8222 5.91555 15.7433 5.9604 15.6647C5.97808 15.6337 5.99576 15.6027 6.01398 15.5707C6.02906 15.5445 6.04413 15.5184 6.05967 15.4914C6.11323 15.3818 6.1174 15.3064 6.09364 15.1875C6.02979 15.069 5.97428 14.9812 5.86658 14.8995C5.64976 14.8375 5.4918 14.8594 5.31239 14.9922ZM6.5316 15.9566C6.45479 16.0855 6.38116 16.2159 6.30848 16.3472C6.25846 16.4361 6.20841 16.5249 6.15833 16.6138C6.13444 16.6566 6.11054 16.6994 6.08592 16.7436C6.0027 16.8897 5.91458 17.0324 5.82425 17.1742C5.75085 17.3166 5.75708 17.4127 5.78114 17.5704C5.83587 17.7072 5.88384 17.7558 6.00574 17.8389C6.16755 17.8949 6.24282 17.8982 6.40614 17.8438C6.62751 17.644 6.77231 17.3896 6.91395 17.1309C6.9544 17.0581 6.99488 16.9853 7.03541 16.9125C7.05467 16.8778 7.07393 16.8431 7.09377 16.8073C7.14044 16.7249 7.18868 16.6444 7.23926 16.5643C7.42722 16.2681 7.42722 16.2681 7.42176 15.9297C7.35146 15.8125 7.27273 15.7185 7.14832 15.6563C6.84547 15.626 6.70194 15.7006 6.5316 15.9566ZM7.96863 16.5938C7.88085 16.71 7.88085 16.71 7.80735 16.8445C7.7934 16.8686 7.77946 16.8927 7.76509 16.9175C7.72094 16.994 7.67755 17.071 7.63416 17.148C7.60494 17.1989 7.57567 17.2498 7.54635 17.3007C7.49016 17.3984 7.4344 17.4963 7.37909 17.5945C7.33355 17.6752 7.28767 17.7558 7.24119 17.836C7.22349 17.8668 7.20578 17.8976 7.18754 17.9294C7.17261 17.9551 7.15768 17.9808 7.1423 18.0073C7.08646 18.1271 7.0895 18.2232 7.10926 18.3516C7.16449 18.4866 7.21308 18.5378 7.33387 18.6202C7.48965 18.6741 7.57573 18.6683 7.73426 18.625C7.89859 18.5143 7.98281 18.3974 8.0785 18.2253C8.09163 18.2019 8.10476 18.1786 8.11829 18.1546C8.15994 18.0805 8.20102 18.0061 8.24207 17.9317C8.28314 17.858 8.32432 17.7845 8.36554 17.7109C8.3921 17.6635 8.41857 17.616 8.44496 17.5685C8.51601 17.4411 8.59031 17.3173 8.67023 17.1953C8.76947 17.0299 8.79434 16.8992 8.74988 16.711C8.68186 16.5914 8.60143 16.5 8.47645 16.4375C8.25019 16.4158 8.14582 16.4542 7.96863 16.5938ZM9.2577 17.4532C9.1585 17.5886 9.07345 17.7304 8.98914 17.8755C8.96648 17.9125 8.94382 17.9495 8.92048 17.9876C8.79283 18.2043 8.68906 18.4064 8.71082 18.6641C8.77301 18.7908 8.8259 18.8672 8.93787 18.9522C9.069 18.9897 9.16046 18.9951 9.29676 18.9766C9.59472 18.8 9.72568 18.4871 9.88224 18.1901C9.93213 18.0981 9.98819 18.0105 10.0438 17.9219C10.1058 17.8091 10.1296 17.7287 10.122 17.5996C10.0722 17.4338 10.0163 17.3654 9.8827 17.2579C9.61309 17.123 9.43687 17.2607 9.2577 17.4532Z"/>
</mask>
<path d="M3.76072 7.31919C3.7908 7.33323 3.82089 7.34726 3.85189 7.36172C3.91523 7.39142 3.97849 7.42131 4.04166 7.45137C4.13736 7.49677 4.23347 7.54122 4.32964 7.58561C5.00414 7.90149 5.00414 7.90149 5.23182 8.22465C5.29257 8.41048 5.36451 8.67704 5.27332 8.85941C5.55037 8.90206 5.82338 8.90595 6.1034 8.9058C6.15163 8.90582 6.19987 8.90585 6.24956 8.90588C6.5704 8.90405 6.88584 8.88796 7.20421 8.84815C7.61262 8.7973 8.09355 8.76279 8.46104 8.97553C8.6098 9.0614 8.73828 9.12922 8.90613 9.17191C9.06907 9.11846 9.18815 9.04424 9.32697 8.94624C10.0292 8.46249 11.1681 8.70443 11.9579 8.80082C12.7934 8.90194 13.5568 8.97943 14.3749 8.74223C14.4789 8.71542 14.5831 8.68974 14.6874 8.6641C14.6898 8.61898 14.6922 8.57387 14.6947 8.52738C14.7284 8.2629 14.8703 8.06374 15.0759 7.89791C15.2609 7.77314 15.4673 7.68449 15.6688 7.58988C15.7368 7.55733 15.7368 7.55733 15.8062 7.52412C15.9405 7.46023 16.0755 7.39783 16.2108 7.33598C16.2538 7.31593 16.2967 7.29589 16.3409 7.27525C16.3817 7.25702 16.4224 7.23879 16.4644 7.22001C16.5003 7.20372 16.5362 7.18743 16.5732 7.17065C16.7025 7.13419 16.785 7.14461 16.9139 7.17973C17.024 7.28112 17.0646 7.34496 17.0922 7.49223C17.0623 7.65145 16.9961 7.69872 16.8749 7.80473C16.783 7.85726 16.6947 7.90366 16.5992 7.94785C16.5601 7.96653 16.5601 7.96653 16.5202 7.98558C16.4376 8.02497 16.3548 8.06379 16.2719 8.10258C16.2164 8.12889 16.1609 8.15523 16.1055 8.18162C16.0033 8.23021 15.901 8.27854 15.7986 8.32667C15.7542 8.34779 15.7097 8.36891 15.6639 8.39066C15.6203 8.40871 15.5766 8.42675 15.5316 8.44535C15.4232 8.49822 15.4232 8.49822 15.3901 8.59978C15.3906 8.72547 15.4199 8.7988 15.4744 8.91206C15.494 8.95352 15.5137 8.99498 15.5339 9.03769C15.5558 9.08279 15.5778 9.12789 15.6005 9.17435C15.6235 9.22253 15.6464 9.27073 15.6693 9.31895C15.7189 9.42318 15.7687 9.52727 15.8188 9.63126C15.9003 9.80069 15.9807 9.97063 16.0608 10.1407C16.0745 10.1697 16.0882 10.1987 16.1022 10.2285C16.1301 10.2876 16.1579 10.3467 16.1858 10.4058C16.2423 10.5256 16.2989 10.6452 16.3554 10.7649C16.5213 11.1157 16.6863 11.4668 16.8505 11.8184C16.8616 11.8422 16.8727 11.8659 16.8841 11.8904C17.0026 12.1442 17.1201 12.3983 17.2359 12.6534C17.2558 12.6971 17.2757 12.7408 17.2961 12.7858C17.3333 12.8678 17.3703 12.9499 17.4072 13.032C17.4316 13.086 17.4316 13.086 17.4565 13.141C17.4777 13.1881 17.4777 13.1881 17.4993 13.2362C17.5373 13.3187 17.5373 13.3187 17.6171 13.3907C17.8311 13.4116 17.9677 13.3691 18.1581 13.2738C18.1946 13.2559 18.1946 13.2559 18.2318 13.2376C18.3087 13.1996 18.3853 13.1609 18.4618 13.1221C18.5387 13.0838 18.6157 13.0456 18.6927 13.0075C18.7624 12.9729 18.832 12.9379 18.9015 12.9029C19.1291 12.7925 19.2788 12.7416 19.5311 12.7657C19.627 12.8345 19.6704 12.8891 19.724 12.9927C19.7279 13.128 19.6801 13.2391 19.6093 13.3516C19.5186 13.4147 19.4456 13.4572 19.3467 13.501C19.3209 13.5132 19.2951 13.5255 19.2685 13.5381C19.1863 13.5769 19.1036 13.6144 19.0209 13.6519C18.9663 13.6775 18.9118 13.7031 18.8574 13.7289C18.7052 13.8004 18.552 13.8693 18.3983 13.9375C18.3601 13.9547 18.3218 13.9719 18.2824 13.9896C18.0894 14.0723 17.9331 14.1137 17.7196 14.1084C17.6515 14.1077 17.6515 14.1077 17.582 14.1069C17.4608 14.0938 17.4608 14.0938 17.3763 14.0514C17.282 14.0044 17.2472 14.023 17.1483 14.0547C17.099 14.0786 17.0505 14.1043 17.0029 14.1313C16.9756 14.1465 16.9483 14.1616 16.9202 14.1773C16.8915 14.1932 16.8629 14.2092 16.8334 14.2256C16.5805 14.3637 16.34 14.4698 16.0546 14.5235C16.0675 14.5605 16.0804 14.5976 16.0936 14.6358C16.1896 14.9822 16.1381 15.2987 15.9764 15.6172C15.8175 15.8538 15.5932 16.0736 15.3099 16.1455C15.2343 16.1568 15.2343 16.1568 15.1171 16.1641C15.1189 16.193 15.1207 16.2218 15.1226 16.2515C15.1354 16.6112 15.0814 16.9255 14.8534 17.2139C14.6131 17.4644 14.3638 17.5627 14.0233 17.6094C14.0251 17.6359 14.0269 17.6624 14.0288 17.6897C14.0426 18.0461 13.9681 18.3165 13.745 18.5982C13.538 18.8191 13.2456 18.9668 12.9416 18.9818C12.9046 18.9817 12.8676 18.9816 12.8295 18.9815C12.7738 18.9816 12.7738 18.9816 12.717 18.9818C12.6171 18.9766 12.6171 18.9766 12.4999 18.9375C12.4997 18.973 12.4997 18.973 12.4996 19.0093C12.485 19.3254 12.3814 19.5698 12.1511 19.7913C11.9019 19.9876 11.6529 20.0909 11.3329 20.0874C11.2557 20.0886 11.2557 20.0886 11.1769 20.0897C10.9073 20.0709 10.6861 19.9304 10.4612 19.7908C10.4267 19.7695 10.3922 19.7481 10.3567 19.7261C10.2858 19.6818 10.2154 19.6366 10.1455 19.5906C9.96239 19.4703 9.96239 19.4703 9.75408 19.4655C9.67164 19.5055 9.67164 19.5055 9.60042 19.5561C9.40154 19.6868 9.13321 19.6603 8.90613 19.6407C8.62866 19.5755 8.41319 19.441 8.24207 19.211C8.24207 19.1852 8.24207 19.1594 8.24207 19.1329C8.2074 19.1491 8.2074 19.1491 8.17203 19.1657C7.82815 19.3233 7.53598 19.3864 7.16785 19.2671C6.88871 19.1568 6.68271 18.9985 6.54285 18.73C6.48426 18.586 6.48426 18.586 6.48426 18.5079C6.44876 18.5141 6.44876 18.5141 6.41254 18.5205C6.0958 18.5658 5.85691 18.5126 5.57606 18.3614C5.40042 18.2177 5.2451 18.0553 5.15614 17.8438C5.15614 17.8051 5.15614 17.7664 5.15614 17.7266C5.13292 17.7308 5.10971 17.735 5.08579 17.7393C4.76359 17.7859 4.46574 17.7424 4.1869 17.5655C3.93839 17.3665 3.79905 17.0988 3.74989 16.7891C3.71995 16.4847 3.80392 16.2022 3.97251 15.9461C4.03229 15.8582 4.03229 15.8582 4.01051 15.778C3.98394 15.6943 3.95664 15.6112 3.9275 15.5284C3.91628 15.4964 3.90507 15.4645 3.89352 15.4315C3.88157 15.3977 3.86962 15.364 3.85731 15.3291C3.84503 15.2944 3.83275 15.2597 3.8201 15.2239C3.79528 15.1537 3.77044 15.0835 3.74559 15.0133C3.71466 14.9251 3.68452 14.8366 3.65482 14.7479C3.63866 14.7004 3.6225 14.653 3.60584 14.604C3.59199 14.5626 3.57815 14.5212 3.56388 14.4785C3.47579 14.2759 3.34302 14.1468 3.16639 14.0181C3.13381 13.9936 3.10123 13.9691 3.06766 13.9438C2.97131 13.8872 2.97131 13.8872 2.87327 13.9227C2.80187 13.9612 2.73051 13.9998 2.65919 14.0384C2.42359 14.1469 2.15961 14.145 1.91267 14.0695C1.73353 14.0017 1.56255 13.9174 1.39135 13.8318C1.27744 13.7756 1.16243 13.7222 1.0471 13.669C0.964936 13.6308 0.882793 13.5925 0.800667 13.5542C0.741493 13.5268 0.741493 13.5268 0.681124 13.4989C0.644438 13.4814 0.607752 13.464 0.569954 13.4461C0.537199 13.4307 0.504443 13.4153 0.470695 13.3994C0.390511 13.3516 0.390511 13.3516 0.312386 13.2344C0.286701 12.9647 0.286701 12.9647 0.370979 12.8243C0.50614 12.7432 0.628776 12.7472 0.781135 12.7657C0.892049 12.8001 0.993075 12.8489 1.09669 12.901C1.12535 12.9148 1.15402 12.9286 1.18356 12.9428C1.27431 12.9865 1.36464 13.0311 1.45496 13.0757C1.54592 13.1201 1.63695 13.1642 1.72805 13.2083C1.78449 13.2356 1.84084 13.2632 1.89708 13.2909C2.07514 13.3786 2.07514 13.3786 2.26551 13.4297C2.43223 13.3574 2.49403 13.2777 2.56626 13.114C2.58491 13.0727 2.60355 13.0314 2.62277 12.9889C2.64264 12.9434 2.66251 12.898 2.68299 12.8511C2.71612 12.7773 2.74948 12.7035 2.78285 12.6297C2.80674 12.5769 2.83056 12.524 2.85431 12.4711C2.98805 12.1738 3.12804 11.8795 3.26817 11.5852C3.34321 11.4275 3.41797 11.2697 3.49277 11.1119C3.50763 11.0806 3.52249 11.0492 3.53781 11.017C3.77023 10.5269 4.00219 10.0366 4.23178 9.54516C4.27254 9.45805 4.31345 9.371 4.35457 9.28405C4.40173 9.18423 4.44825 9.08416 4.49451 8.98392C4.50736 8.9571 4.52021 8.93027 4.53344 8.90263C4.58081 8.79823 4.60895 8.7118 4.61307 8.59681C4.54858 8.46299 4.44106 8.42414 4.31141 8.36625C4.28446 8.35345 4.25751 8.34064 4.22975 8.32745C4.13522 8.28269 4.04024 8.239 3.9452 8.19535C3.82523 8.13978 3.70538 8.08399 3.58572 8.02775C3.50565 7.99017 3.42538 7.95302 3.3449 7.91632C3.28939 7.89039 3.28939 7.89039 3.23276 7.86393C3.19972 7.84874 3.16667 7.83354 3.13262 7.81789C3.03606 7.75915 2.98764 7.7059 2.92957 7.60941C2.9138 7.45796 2.91786 7.34457 3.0077 7.21879C3.234 7.04278 3.53581 7.21243 3.76072 7.31919ZM14.6662 9.33518C14.6307 9.34571 14.5951 9.35623 14.5585 9.36707C14.5213 9.3784 14.4841 9.38973 14.4457 9.40141C13.6006 9.65686 12.7729 9.57044 11.9091 9.46488C11.2202 9.37848 11.2202 9.37848 10.5272 9.34769C10.4949 9.34747 10.4627 9.34724 10.4294 9.34701C9.94235 9.35717 9.56003 9.53675 9.15272 9.78715C9.10345 9.81693 9.05415 9.84666 9.00483 9.87634C8.92926 9.92188 8.85373 9.96749 8.77837 10.0134C8.61196 10.1146 8.444 10.2125 8.27473 10.3088C8.2309 10.3341 8.18708 10.3594 8.14193 10.3854C8.06 10.4326 7.97778 10.4793 7.89521 10.5254C7.6217 10.6854 7.44665 10.8664 7.26551 11.125C7.24531 11.1532 7.22511 11.1814 7.20429 11.2104C7.14957 11.2879 7.09623 11.3661 7.04334 11.4449C7.00822 11.4967 6.97307 11.5485 6.9379 11.6003C6.92112 11.6252 6.90433 11.65 6.88703 11.6757C6.83524 11.7509 6.78162 11.8245 6.72764 11.8982C6.63695 12.0286 6.60145 12.0998 6.60145 12.2579C6.66602 12.404 6.74239 12.484 6.87488 12.5704C7.08586 12.6355 7.26758 12.6247 7.46815 12.5337C7.72156 12.3884 7.87137 12.1871 8.03409 11.9493C8.27376 11.6047 8.447 11.3959 8.86707 11.2813C8.92261 11.2581 8.97797 11.2346 9.03309 11.2105C9.20748 11.1553 9.31058 11.1403 9.49207 11.1641C9.56196 11.2271 9.62386 11.2904 9.68738 11.3594C9.73743 11.4111 9.78765 11.4627 9.83799 11.5141C9.86531 11.5421 9.89263 11.57 9.92078 11.5988C10.4789 12.1653 11.09 12.5811 11.8749 12.7657C11.9039 12.7728 11.9329 12.78 11.9628 12.7873C12.1809 12.8348 12.3874 12.8469 12.6099 12.8394C13.4705 12.8138 13.9713 12.9618 14.6874 13.4688C14.8009 13.5456 14.9149 13.6211 15.0301 13.6953C15.0988 13.7397 15.1667 13.7854 15.2335 13.8326C15.4005 13.9432 15.5066 13.9943 15.7077 13.9575C15.7718 13.9396 15.8354 13.9199 15.8983 13.8985C15.9379 13.8859 15.9379 13.8859 15.9784 13.873C16.2903 13.7667 16.5713 13.6264 16.8358 13.4297C16.6496 12.9975 16.4544 12.5705 16.2523 12.1455C16.2086 12.0534 16.165 11.9613 16.1214 11.8692C16.0916 11.8063 16.0617 11.7434 16.0319 11.6805C15.8894 11.3798 15.7477 11.0788 15.6061 10.7776C15.5667 10.6938 15.5273 10.61 15.4878 10.5262C15.3776 10.2923 15.2676 10.0584 15.1589 9.82377C15.1424 9.78837 15.1259 9.75298 15.1089 9.71651C15.0797 9.6537 15.0506 9.59081 15.0218 9.52781C14.9238 9.3182 14.8902 9.2672 14.6662 9.33518ZM4.99989 9.48441C4.10731 11.353 4.10731 11.3531 3.24207 13.2344C3.36401 13.3671 3.49541 13.4558 3.64735 13.5518C4.06542 13.8319 4.18397 14.2161 4.33582 14.6797C4.34841 14.717 4.361 14.7544 4.37397 14.7928C4.40072 14.8722 4.42694 14.9517 4.45301 15.0313C4.5996 14.9824 4.60679 14.9422 4.67762 14.8091C4.82766 14.5504 5.00851 14.3623 5.29835 14.2685C5.63863 14.2003 5.99157 14.2165 6.28895 14.4063C6.49179 14.5856 6.6315 14.7753 6.71863 15.0313C6.75076 15.0295 6.78289 15.0277 6.81599 15.0258C7.17005 15.0143 7.44516 15.05 7.72694 15.2754C7.83309 15.4089 7.92051 15.5491 8.0077 15.6954C8.03348 15.734 8.05926 15.7727 8.08582 15.8125C8.18594 15.8208 8.18594 15.8208 8.30067 15.8101C8.60915 15.8027 8.89151 15.8863 9.12556 16.0976C9.24666 16.2467 9.32923 16.4222 9.41395 16.5938C9.44325 16.592 9.47256 16.5902 9.50275 16.5883C9.88927 16.5747 10.2008 16.6494 10.4894 16.9176C10.6927 17.1544 10.7575 17.4304 10.7526 17.7358C10.7178 18.0932 10.5286 18.3802 10.3324 18.6701C10.2651 18.7722 10.2651 18.7722 10.2808 18.8609C10.3203 18.9568 10.3553 18.9773 10.4461 19.0256C10.4732 19.0404 10.5004 19.0552 10.5284 19.0705C10.5571 19.0854 10.5857 19.1004 10.6151 19.1158C10.6711 19.1459 10.727 19.1761 10.783 19.2062C10.8231 19.2274 10.8231 19.2274 10.864 19.2491C10.9256 19.2826 10.9852 19.3197 11.0443 19.3575C11.1892 19.4375 11.3235 19.4318 11.4843 19.4063C11.6555 19.3207 11.7628 19.2332 11.8358 19.0547C11.8578 18.9046 11.8509 18.7818 11.7968 18.6397C11.6005 18.4066 11.3235 18.2569 11.0671 18.0983C10.9764 18.0391 10.9764 18.0391 10.8983 17.961C10.8906 17.7993 10.8863 17.6845 10.9374 17.5313C11.3192 17.4821 11.546 17.6065 11.8602 17.812C11.9437 17.8647 12.0272 17.9174 12.1108 17.97C12.1503 17.9952 12.1898 18.0203 12.2306 18.0463C12.5724 18.2793 12.5724 18.2793 12.9686 18.3125C13.149 18.2119 13.2931 18.1204 13.3593 17.9219C13.3804 17.7016 13.3423 17.5465 13.203 17.375C13.0889 17.2853 12.9659 17.2159 12.8392 17.1455C12.8047 17.1256 12.7702 17.1056 12.7346 17.085C12.6306 17.0248 12.5262 16.9655 12.4218 16.9063C12.3091 16.8418 12.1969 16.7766 12.0848 16.711C12.0485 16.6905 12.0485 16.6905 12.0114 16.6696C11.8853 16.5961 11.8002 16.5419 11.7577 16.3985C11.7751 16.1467 11.7751 16.1467 11.8749 16.0469C12.0614 15.9946 12.158 16.013 12.3268 16.1038C12.3676 16.1256 12.4083 16.1474 12.4503 16.1698C12.6629 16.2903 12.8725 16.415 13.0809 16.5425C13.1654 16.594 13.25 16.6454 13.3345 16.6968C13.3896 16.7304 13.3896 16.7304 13.4458 16.7648C13.7346 16.933 13.7346 16.933 14.0624 16.9454C14.2114 16.8651 14.3358 16.785 14.4139 16.6329C14.4624 16.4492 14.4745 16.325 14.3895 16.1519C14.2356 15.9777 14.0597 15.861 13.8599 15.7442C13.8373 15.7309 13.8147 15.7176 13.7915 15.7039C13.7199 15.6619 13.6482 15.62 13.5765 15.5782C13.505 15.5363 13.4335 15.4944 13.362 15.4524C13.2971 15.4143 13.2321 15.3763 13.1671 15.3383C12.823 15.1306 12.823 15.1306 12.7733 15.0313C12.7523 14.8738 12.7613 14.814 12.8539 14.6822C12.9686 14.6016 12.9686 14.6016 13.098 14.6084C13.2451 14.6413 13.3453 14.6865 13.4745 14.763C13.5173 14.7881 13.5601 14.8132 13.6042 14.839C13.6483 14.8654 13.6923 14.8918 13.7377 14.919C13.781 14.9445 13.8242 14.9699 13.8688 14.9962C14.0427 15.0986 14.2162 15.2018 14.3895 15.3052C14.4311 15.3298 14.4726 15.3543 14.5154 15.3796C14.5711 15.4127 14.5711 15.4127 14.6279 15.4465C14.7857 15.5322 14.9051 15.5654 15.0803 15.5168C15.2358 15.4535 15.3295 15.381 15.4125 15.2339C15.4784 15.0742 15.4843 14.9642 15.4296 14.7969C15.2308 14.5085 14.9493 14.3635 14.6508 14.1963C14.5473 14.138 14.4439 14.0795 14.3406 14.0209C14.3156 14.0068 14.2906 13.9927 14.2649 13.9781C14.1372 13.9052 14.0161 13.8299 13.9002 13.7395C13.4983 13.4304 13.0393 13.4732 12.5559 13.472C11.3758 13.468 10.3296 12.9416 9.50428 12.1211C9.4479 12.0628 9.39171 12.0042 9.33582 11.9454C9.29689 11.9062 9.25788 11.867 9.21863 11.8282C8.87342 11.923 8.71725 12.0873 8.51551 12.375C8.19047 12.8194 7.86423 13.1394 7.30457 13.2344C6.97051 13.2672 6.63271 13.2047 6.35242 13.0147C6.13859 12.8386 6.01969 12.6072 5.97645 12.336C5.94485 11.9252 6.12206 11.6438 6.35231 11.3185C6.41592 11.2284 6.47861 11.1376 6.54133 11.0468C6.58982 10.9768 6.63835 10.9069 6.6869 10.837C6.7101 10.8035 6.7333 10.7701 6.75721 10.7356C6.82168 10.6434 6.88716 10.5521 6.95301 10.461C6.98227 10.4195 7.01152 10.3781 7.04166 10.3354C7.19359 10.1804 7.3688 10.0878 7.55848 9.9849C7.63132 9.94447 7.70415 9.90404 7.77698 9.86359C7.80908 9.84606 7.84119 9.82853 7.87426 9.81046C7.9054 9.7931 7.93655 9.77574 7.96863 9.75785C8.00481 9.73794 8.04099 9.71804 8.07827 9.69753C8.10654 9.67876 8.13482 9.66 8.16395 9.64066C8.16395 9.61488 8.16395 9.5891 8.16395 9.56254C7.84583 9.46828 7.57253 9.4686 7.24401 9.51257C6.87699 9.56053 6.51224 9.57133 6.14246 9.5723C6.09207 9.57266 6.04169 9.57301 5.98977 9.57337C5.65227 9.57234 5.33243 9.54084 4.99989 9.48441ZM5.31239 14.9922C5.22927 15.1039 5.22927 15.1039 5.15629 15.2364C5.14238 15.2603 5.12847 15.2843 5.11414 15.309C5.06991 15.3854 5.02635 15.4623 4.9828 15.5391C4.95372 15.5895 4.9246 15.6399 4.89544 15.6903C4.82519 15.812 4.75582 15.9342 4.68692 16.0567C4.65004 16.122 4.61272 16.1871 4.57539 16.2522C4.54328 16.309 4.54328 16.309 4.51054 16.367C4.49186 16.3999 4.47318 16.4327 4.45394 16.4665C4.39243 16.6022 4.40331 16.6901 4.45301 16.8282C4.54715 16.9795 4.62974 17.06 4.80457 17.1016C5.01162 17.0972 5.13118 17.0091 5.27332 16.8672C5.35666 16.7507 5.35666 16.7507 5.42606 16.6213C5.43914 16.5981 5.45222 16.5749 5.46569 16.5511C5.507 16.4776 5.54764 16.4039 5.58826 16.3301C5.61561 16.2813 5.643 16.2324 5.67043 16.1836C5.72312 16.0897 5.77546 15.9957 5.82747 15.9014C5.87132 15.8222 5.91555 15.7433 5.9604 15.6647C5.97808 15.6337 5.99576 15.6027 6.01398 15.5707C6.02906 15.5445 6.04413 15.5184 6.05967 15.4914C6.11323 15.3818 6.1174 15.3064 6.09364 15.1875C6.02979 15.069 5.97428 14.9812 5.86658 14.8995C5.64976 14.8375 5.4918 14.8594 5.31239 14.9922ZM6.5316 15.9566C6.45479 16.0855 6.38116 16.2159 6.30848 16.3472C6.25846 16.4361 6.20841 16.5249 6.15833 16.6138C6.13444 16.6566 6.11054 16.6994 6.08592 16.7436C6.0027 16.8897 5.91458 17.0324 5.82425 17.1742C5.75085 17.3166 5.75708 17.4127 5.78114 17.5704C5.83587 17.7072 5.88384 17.7558 6.00574 17.8389C6.16755 17.8949 6.24282 17.8982 6.40614 17.8438C6.62751 17.644 6.77231 17.3896 6.91395 17.1309C6.9544 17.0581 6.99488 16.9853 7.03541 16.9125C7.05467 16.8778 7.07393 16.8431 7.09377 16.8073C7.14044 16.7249 7.18868 16.6444 7.23926 16.5643C7.42722 16.2681 7.42722 16.2681 7.42176 15.9297C7.35146 15.8125 7.27273 15.7185 7.14832 15.6563C6.84547 15.626 6.70194 15.7006 6.5316 15.9566ZM7.96863 16.5938C7.88085 16.71 7.88085 16.71 7.80735 16.8445C7.7934 16.8686 7.77946 16.8927 7.76509 16.9175C7.72094 16.994 7.67755 17.071 7.63416 17.148C7.60494 17.1989 7.57567 17.2498 7.54635 17.3007C7.49016 17.3984 7.4344 17.4963 7.37909 17.5945C7.33355 17.6752 7.28767 17.7558 7.24119 17.836C7.22349 17.8668 7.20578 17.8976 7.18754 17.9294C7.17261 17.9551 7.15768 17.9808 7.1423 18.0073C7.08646 18.1271 7.0895 18.2232 7.10926 18.3516C7.16449 18.4866 7.21308 18.5378 7.33387 18.6202C7.48965 18.6741 7.57573 18.6683 7.73426 18.625C7.89859 18.5143 7.98281 18.3974 8.0785 18.2253C8.09163 18.2019 8.10476 18.1786 8.11829 18.1546C8.15994 18.0805 8.20102 18.0061 8.24207 17.9317C8.28314 17.858 8.32432 17.7845 8.36554 17.7109C8.3921 17.6635 8.41857 17.616 8.44496 17.5685C8.51601 17.4411 8.59031 17.3173 8.67023 17.1953C8.76947 17.0299 8.79434 16.8992 8.74988 16.711C8.68186 16.5914 8.60143 16.5 8.47645 16.4375C8.25019 16.4158 8.14582 16.4542 7.96863 16.5938ZM9.2577 17.4532C9.1585 17.5886 9.07345 17.7304 8.98914 17.8755C8.96648 17.9125 8.94382 17.9495 8.92048 17.9876C8.79283 18.2043 8.68906 18.4064 8.71082 18.6641C8.77301 18.7908 8.8259 18.8672 8.93787 18.9522C9.069 18.9897 9.16046 18.9951 9.29676 18.9766C9.59472 18.8 9.72568 18.4871 9.88224 18.1901C9.93213 18.0981 9.98819 18.0105 10.0438 17.9219C10.1058 17.8091 10.1296 17.7287 10.122 17.5996C10.0722 17.4338 10.0163 17.3654 9.8827 17.2579C9.61309 17.123 9.43687 17.2607 9.2577 17.4532Z" stroke="white" stroke-width="1.6" mask="url(#path-1-inside-1_4177_20151)"/>
</g>
<g opacity="0.8">
<mask id="path-2-inside-2_4177_20151" fill="white">
<path d="M10.0725 0.905879C10.2141 0.946186 10.3179 1.03448 10.4343 1.12225C11.0041 1.53202 11.6851 1.75255 12.3819 1.80401C12.4344 1.80823 12.4344 1.80823 12.488 1.81253C12.5582 1.81795 12.6286 1.82255 12.6989 1.82624C12.8547 1.83813 12.9434 1.84769 13.069 1.945C13.1469 2.10897 13.1465 2.2468 13.1419 2.42626C13.1414 2.46209 13.1408 2.49792 13.1403 2.53483C13.0949 4.28817 12.5298 5.9589 11.2425 7.18212C10.9164 7.47253 10.4545 7.84678 10.0084 7.8944C9.85083 7.87987 9.72829 7.82485 9.58968 7.75341C9.54888 7.73259 9.54888 7.73259 9.50725 7.71135C8.35782 7.10135 7.60694 5.9484 7.21661 4.73623C6.98714 3.98684 6.86965 3.20975 6.85774 2.42626C6.85687 2.3924 6.856 2.35854 6.8551 2.32365C6.85563 2.18052 6.86799 2.07874 6.92397 1.94592C7.10081 1.81593 7.29778 1.82218 7.51204 1.80615C8.31392 1.72982 9.07523 1.52366 9.71663 1.01025C9.84091 0.93138 9.92399 0.895678 10.0725 0.905879ZM9.7386 1.81347C9.06964 2.23744 8.31316 2.38936 7.5389 2.49218C7.51399 3.85098 7.94613 5.24201 8.82796 6.28124C8.84996 6.30849 8.87197 6.33573 8.89464 6.36379C9.16863 6.69425 9.55481 7.02994 9.96077 7.17968C10.6151 7.05485 11.1758 6.34014 11.5305 5.82319C12.1708 4.86635 12.483 3.63823 12.4608 2.49218C12.4356 2.48847 12.4105 2.48476 12.3846 2.48094C11.5858 2.36092 10.8206 2.20625 10.143 1.74038C9.96374 1.62239 9.90704 1.70284 9.7386 1.81347Z"/>
</mask>
<path d="M10.0725 0.905879L10.2915 0.136448L10.2109 0.113504L10.1273 0.10776L10.0725 0.905879ZM10.4343 1.12225L9.95254 1.76096L9.9598 1.76643L9.96718 1.77174L10.4343 1.12225ZM12.3819 1.80401L12.4459 1.00656L12.4408 1.00618L12.3819 1.80401ZM12.488 1.81253L12.424 2.60997L12.4264 2.61015L12.488 1.81253ZM12.6989 1.82624L12.7598 1.02856L12.7503 1.02784L12.7408 1.02734L12.6989 1.82624ZM13.069 1.945L13.7915 1.60157L13.7097 1.42944L13.5591 1.31269L13.069 1.945ZM13.1419 2.42626L12.3421 2.40568L12.342 2.41411L13.1419 2.42626ZM13.1403 2.53483L13.9401 2.55553L13.9402 2.54699L13.1403 2.53483ZM11.2425 7.18212L11.7746 7.77954L11.7842 7.77095L11.7936 7.76206L11.2425 7.18212ZM10.0084 7.8944L9.9349 8.69102L10.0142 8.69833L10.0933 8.68988L10.0084 7.8944ZM9.58968 7.75341L9.95616 7.04229L9.95334 7.04085L9.58968 7.75341ZM9.50725 7.71135L9.13219 8.41809L9.14359 8.42391L9.50725 7.71135ZM7.21661 4.73623L6.45159 4.97049L6.45512 4.98145L7.21661 4.73623ZM6.85774 2.42626L7.6577 2.41411L7.65748 2.40568L6.85774 2.42626ZM6.8551 2.32365L6.05511 2.3207L6.05506 2.33247L6.05537 2.34424L6.8551 2.32365ZM6.92397 1.94592L6.45016 1.30132L6.27243 1.43196L6.18677 1.63521L6.92397 1.94592ZM7.51204 1.80615L7.57175 2.60392L7.5798 2.60331L7.58784 2.60255L7.51204 1.80615ZM9.71663 1.01025L9.28797 0.334785L9.25094 0.358285L9.2167 0.385692L9.71663 1.01025ZM9.7386 1.81347L10.1669 2.48928L10.1778 2.48213L9.7386 1.81347ZM7.5389 2.49218L7.43358 1.69914L6.75164 1.7897L6.73903 2.47752L7.5389 2.49218ZM8.82796 6.28124L9.45029 5.77855L9.44421 5.77102L9.43795 5.76364L8.82796 6.28124ZM8.89464 6.36379L8.27226 6.86653L8.27879 6.87441L8.89464 6.36379ZM9.96077 7.17968L9.68392 7.93025L9.89241 8.00715L10.1107 7.96551L9.96077 7.17968ZM11.5305 5.82319L12.1902 6.27577L12.1953 6.26812L11.5305 5.82319ZM12.4608 2.49218L13.2606 2.47666L13.2475 1.79968L12.5776 1.70076L12.4608 2.49218ZM12.3846 2.48094L12.2658 3.27206L12.2678 3.27236L12.3846 2.48094ZM10.143 1.74038L10.5962 1.08116L10.5896 1.07661L10.5829 1.07219L10.143 1.74038ZM10.0725 0.905879L9.85343 1.67531C9.82307 1.66667 9.81003 1.65604 9.82479 1.66569C9.83328 1.67125 9.84612 1.68026 9.8683 1.6969C9.87932 1.70518 9.89092 1.71402 9.90532 1.72503C9.91892 1.73542 9.93552 1.74812 9.95254 1.76096L10.4343 1.12225L10.916 0.483538C10.8546 0.437289 10.6118 0.227625 10.2915 0.136448L10.0725 0.905879ZM10.4343 1.12225L9.96718 1.77174C10.6724 2.27888 11.4995 2.54102 12.323 2.60184L12.3819 1.80401L12.4408 1.00618C11.8707 0.964081 11.3357 0.785158 10.9013 0.472753L10.4343 1.12225ZM12.3819 1.80401L12.3179 2.60145C12.3704 2.60566 12.3704 2.60566 12.424 2.60996L12.488 1.81253L12.552 1.01509C12.4984 1.01079 12.4984 1.01079 12.4459 1.00658L12.3819 1.80401ZM12.488 1.81253L12.4264 2.61015C12.5029 2.61606 12.5798 2.62109 12.657 2.62514L12.6989 1.82624L12.7408 1.02734C12.6773 1.02401 12.6136 1.01984 12.5496 1.0149L12.488 1.81253ZM12.6989 1.82624L12.6381 2.62392C12.6569 2.62536 12.6707 2.62646 12.6824 2.62752C12.6938 2.62855 12.7004 2.6293 12.704 2.62975C12.711 2.63064 12.7 2.62966 12.6798 2.62402C12.6575 2.61779 12.6336 2.60858 12.6111 2.59689C12.59 2.5859 12.5787 2.57719 12.5789 2.57731L13.069 1.945L13.5591 1.31269C13.4264 1.20986 13.2812 1.13083 13.1108 1.08316C12.9654 1.04249 12.8261 1.03362 12.7598 1.02856L12.6989 1.82624ZM13.069 1.945L12.3465 2.28844C12.3468 2.28917 12.3452 2.2858 12.3435 2.27971C12.3418 2.27374 12.3416 2.27057 12.3419 2.27294C12.3422 2.27633 12.3432 2.28654 12.3435 2.30887C12.3438 2.3326 12.3433 2.36118 12.3422 2.40568L13.1419 2.42626L13.9417 2.44685C13.9464 2.26227 13.9585 1.9528 13.7915 1.60157L13.069 1.945ZM13.1419 2.42626L12.342 2.41411C12.3415 2.44993 12.3409 2.48576 12.3404 2.52267L13.1403 2.53483L13.9402 2.54699C13.9407 2.51007 13.9413 2.47425 13.9418 2.43842L13.1419 2.42626ZM13.1403 2.53483L12.3405 2.51414C12.2992 4.11239 11.7881 5.56008 10.6914 6.60219L11.2425 7.18212L11.7936 7.76206C13.2715 6.35772 13.8906 4.46396 13.94 2.55552L13.1403 2.53483ZM11.2425 7.18212L10.7104 6.5847C10.5562 6.7221 10.3968 6.85456 10.2389 6.95568C10.0727 7.06217 9.96866 7.0941 9.92347 7.09892L10.0084 7.8944L10.0933 8.68988C10.4942 8.64709 10.8442 8.46808 11.102 8.30293C11.3682 8.13242 11.6028 7.93256 11.7746 7.77954L11.2425 7.18212ZM10.0084 7.8944L10.0819 7.09778C10.0798 7.0976 10.0768 7.09755 10.0643 7.09306C10.0463 7.08653 10.0178 7.07406 9.95616 7.04229L9.58968 7.75341L9.2232 8.46453C9.38171 8.54623 9.61763 8.66176 9.9349 8.69102L10.0084 7.8944ZM9.58968 7.75341L9.95334 7.04085C9.91254 7.02002 9.91254 7.02002 9.87091 6.99878L9.50725 7.71135L9.14359 8.42391C9.18521 8.44516 9.18521 8.44516 9.22602 8.46598L9.58968 7.75341ZM9.50725 7.71135L9.88227 7.00469C8.9752 6.52332 8.32822 5.57829 7.9781 4.49102L7.21661 4.73623L6.45512 4.98145C6.88567 6.31851 7.74043 7.67938 9.13223 8.418L9.50725 7.71135ZM7.21661 4.73623L7.98155 4.50201C7.77509 3.82775 7.66846 3.12563 7.65765 2.41411L6.85774 2.42626L6.05784 2.43842C6.07084 3.29387 6.1992 4.14594 6.45167 4.97046L7.21661 4.73623ZM6.85774 2.42626L7.65748 2.40568C7.65661 2.37181 7.65574 2.33795 7.65484 2.30306L6.8551 2.32365L6.05537 2.34424C6.05627 2.37913 6.05714 2.41299 6.05801 2.44685L6.85774 2.42626ZM6.8551 2.32365L7.6551 2.3266C7.65529 2.27554 7.65773 2.26319 7.65751 2.26452C7.6573 2.26576 7.65688 2.26753 7.6566 2.26846C7.65642 2.26908 7.65739 2.26559 7.66117 2.25662L6.92397 1.94592L6.18677 1.63521C6.07676 1.89621 6.05588 2.11131 6.05511 2.3207L6.8551 2.32365ZM6.92397 1.94592L7.39777 2.59052C7.38083 2.60297 7.36275 2.61231 7.34736 2.61823C7.33341 2.62359 7.32796 2.6237 7.33811 2.62198C7.34993 2.61997 7.3707 2.61739 7.41212 2.6144C7.43277 2.61292 7.45409 2.61161 7.48174 2.60991C7.5078 2.6083 7.53911 2.60636 7.57175 2.60392L7.51204 1.80615L7.45233 1.00838C7.35922 1.01535 6.85952 1.00042 6.45016 1.30132L6.92397 1.94592ZM7.51204 1.80615L7.58784 2.60255C8.47284 2.51831 9.40726 2.28261 10.2166 1.63481L9.71663 1.01025L9.2167 0.385692C8.7432 0.764705 8.15501 0.941334 7.43624 1.00975L7.51204 1.80615ZM9.71663 1.01025L10.1453 1.68571C10.1669 1.67203 10.1733 1.66878 10.1715 1.6697C10.1681 1.67145 10.1528 1.67909 10.1287 1.68679C10.1034 1.69487 10.0775 1.70014 10.0535 1.7026C10.0309 1.70492 10.0175 1.70399 10.0176 1.704L10.0725 0.905879L10.1273 0.10776C9.97249 0.097124 9.81084 0.108729 9.64225 0.162532C9.48719 0.212018 9.36549 0.285593 9.28797 0.334785L9.71663 1.01025ZM9.7386 1.81347L9.31035 1.13775C8.79631 1.46353 8.18727 1.59906 7.43358 1.69914L7.5389 2.49218L7.64421 3.28522C8.43906 3.17967 9.34297 3.01135 10.1669 2.48919L9.7386 1.81347ZM7.5389 2.49218L6.73903 2.47752C6.71103 4.00529 7.19455 5.59275 8.21797 6.79885L8.82796 6.28124L9.43795 5.76364C8.69772 4.89128 8.31695 3.69668 8.33876 2.50684L7.5389 2.49218ZM8.82796 6.28124L8.20563 6.78394C8.22763 6.81118 8.24964 6.83842 8.27231 6.86649L8.89464 6.36379L9.51697 5.8611C9.4943 5.83303 9.47229 5.80579 9.45029 5.77855L8.82796 6.28124ZM8.89464 6.36379L8.27879 6.87441C8.60042 7.26233 9.09511 7.71307 9.68392 7.93025L9.96077 7.17968L10.2376 6.42911C10.0145 6.34681 9.73683 6.12617 9.51049 5.85318L8.89464 6.36379ZM9.96077 7.17968L10.1107 7.96551C10.6616 7.8604 11.1024 7.52661 11.4157 7.22209C11.7386 6.90808 12.0027 6.54908 12.1902 6.27574L11.5305 5.82319L10.8708 5.37065C10.7036 5.61426 10.51 5.87108 10.3003 6.07487C10.081 6.28814 9.91422 6.37413 9.81084 6.39386L9.96077 7.17968ZM11.5305 5.82319L12.1953 6.26812C12.9382 5.15801 13.2856 3.76439 13.2606 2.47666L12.4608 2.49218L11.6609 2.50771C11.6804 3.51207 11.4034 4.57469 10.8656 5.37827L11.5305 5.82319ZM12.4608 2.49218L12.5776 1.70076C12.5525 1.69705 12.5274 1.69334 12.5015 1.68952L12.3846 2.48094L12.2678 3.27236C12.2936 3.27618 12.3188 3.27989 12.3439 3.2836L12.4608 2.49218ZM12.3846 2.48094L12.5035 1.68982C11.7138 1.57118 11.1106 1.4348 10.5962 1.08116L10.143 1.74038L9.68972 2.3996C10.5305 2.9777 11.4577 3.15067 12.2658 3.27206L12.3846 2.48094ZM10.143 1.74038L10.5829 1.07219C10.493 1.01304 10.3637 0.941371 10.2004 0.905294C10.018 0.865012 9.8419 0.879579 9.68397 0.932172C9.54883 0.977177 9.44695 1.04435 9.40309 1.07367C9.37888 1.08985 9.35335 1.1078 9.33961 1.11737C9.3228 1.12908 9.31089 1.13727 9.29941 1.14481L9.7386 1.81347L10.1778 2.48213C10.2084 2.46201 10.2351 2.44349 10.2544 2.43008C10.2767 2.41454 10.2846 2.40897 10.2922 2.4039C10.3119 2.3907 10.267 2.4244 10.1895 2.45021C10.0892 2.48361 9.97139 2.49328 9.85532 2.46764C9.75828 2.44621 9.70328 2.40873 9.70305 2.40857L10.143 1.74038Z" fill="white" mask="url(#path-2-inside-2_4177_20151)"/>
</g>
<path opacity="0.8" d="M9.78357 4.9425C9.7779 4.94909 9.77205 4.95376 9.76794 4.95813C9.73803 4.93924 9.70892 4.91641 9.67712 4.88879C9.70673 4.89145 9.73189 4.89144 9.75037 4.89075C9.77938 4.88965 9.81096 4.88548 9.83435 4.88293C9.81763 4.90316 9.7998 4.92226 9.78357 4.9425Z" stroke="white" stroke-width="0.8"/>
</g>
<defs>
<clipPath id="clip0_4177_20151">
<rect width="20" height="20" fill="white" transform="translate(0 0.5)"/>
</clipPath>
</defs>
</svg>
