<svg width="39" height="43" viewBox="0 0 39 43" fill="none" xmlns="http://www.w3.org/2000/svg">
<path fill-rule="evenodd" clip-rule="evenodd" d="M27.9714 8.34088C28.0454 8.2422 28.13 8.14705 28.2216 8.05894L31.5766 4.72505C32.6832 3.6255 34.477 3.6255 35.5801 4.72505C36.6867 5.8246 36.6867 7.60785 35.5801 8.70387L32.6903 11.5761C35.1784 13.9303 36.6902 16.8553 37.2823 20.3126C37.6101 22.2262 37.0004 22.9628 34.8894 22.9452L4.16895 22.9522C1.92051 22.9839 1.13109 22.1628 1.51523 20.1892C2.13548 17.021 3.43944 14.3073 5.46585 12.1153L2.1954 8.86598C1.0888 7.76644 1.0888 5.98319 2.1954 4.88717C3.30199 3.78762 5.09581 3.78762 6.19888 4.88717L9.55392 8.22106C9.70898 8.37612 9.84291 8.54176 9.95216 8.71797C10.5971 8.37612 11.2808 8.06599 11.9997 7.78053C17.5186 5.59201 22.9212 5.81755 27.9714 8.34088ZM12.5319 16.5664C12.5319 17.3452 11.8975 17.9725 11.1151 17.9725C10.3328 17.9725 9.69841 17.3417 9.69841 16.5664C9.69841 15.791 10.3328 15.1602 11.1151 15.1602C11.8975 15.1602 12.5319 15.791 12.5319 16.5664ZM27.6718 17.976C28.4542 17.976 29.0885 17.3452 29.0885 16.5699C29.0885 15.7946 28.4542 15.1637 27.6718 15.1637C26.8894 15.1637 26.2551 15.7946 26.2551 16.5699C26.2551 17.3452 26.8894 17.976 27.6718 17.976Z" fill="#3DDB86"/>
<path d="M3.52049 38.4836C4.26762 38.4836 4.66586 38.1029 4.94427 37.1267L5.39184 35.7558H9.27903L9.71955 37.1267C9.99797 38.0783 10.4314 38.4836 11.1786 38.4836C11.9821 38.4836 12.5072 38.0113 12.5072 37.2783C12.5072 36.9823 12.4297 36.6475 12.2781 36.1752L9.7266 28.7251C9.26141 27.3541 8.61648 26.8149 7.39711 26.8149C6.17774 26.8149 5.51519 27.3612 5.05704 28.7251L2.49848 36.1752C2.30464 36.7391 2.22711 37.0598 2.22711 37.3382C2.22711 38.0113 2.75222 38.4836 3.51344 38.4836H3.52049ZM5.96981 33.7435L7.28433 29.3911H7.41825L8.71516 33.7435H5.96981Z" fill="#3DDB86"/>
<path d="M16.123 38.4729C17.0217 38.4729 17.5292 37.9266 17.5292 36.9751V34.7196H19.3935C22.0437 34.7196 23.6719 33.3135 23.6719 30.7972C23.6719 28.4324 22.0719 26.8994 19.538 26.8994H16.5636C15.242 26.8994 14.7345 27.4316 14.7345 28.8025V36.9786C14.7345 37.9372 15.2349 38.4764 16.123 38.4764V38.4729ZM17.5362 32.6474V29.0421H19.1221C20.2675 29.0421 20.9018 29.6976 20.9018 30.843C20.9018 32.1751 20.2569 32.6439 18.8085 32.6439H17.5362V32.6474Z" fill="#3DDB86"/>
<path d="M33.9343 38.4585C34.7308 38.4585 35.2806 37.9193 35.2806 37.144C35.2806 36.7563 35.1537 36.4709 34.7061 35.8717L31.8092 31.981L34.5299 29.0595C34.9035 28.6542 35.0374 28.3934 35.0374 28.048C35.0374 27.3643 34.5052 26.8287 33.8074 26.8287C33.4092 26.8287 33.0885 27.0049 32.7044 27.4172L28.8172 31.618H28.6656V28.3088C28.6656 27.3573 28.1582 26.811 27.2595 26.811C26.3608 26.811 25.8604 27.3502 25.8604 28.3088V36.9713C25.8604 37.9158 26.3855 38.4691 27.2912 38.4691C28.1969 38.4691 28.6621 37.9299 28.6621 36.9713V34.8145L29.7299 33.7361L32.5423 37.5845C32.9828 38.1907 33.4057 38.4515 33.9308 38.4515L33.9343 38.4585Z" fill="#3DDB86"/>
</svg>
