<svg width="29" height="36" viewBox="0 0 29 36" fill="none" xmlns="http://www.w3.org/2000/svg">
<path d="M23.8335 18.9838C23.8508 17.6415 24.2073 16.3254 24.87 15.1579C25.5326 13.9904 26.4797 13.0095 27.6233 12.3064C26.8968 11.2689 25.9384 10.415 24.8242 9.81268C23.71 9.21032 22.4707 8.87607 21.2047 8.83646C18.5042 8.553 15.8861 10.4524 14.51 10.4524C13.1072 10.4524 10.9884 8.8646 8.70677 8.91154C7.23097 8.95922 5.79268 9.38838 4.53205 10.1572C3.27142 10.926 2.23144 12.0083 1.51343 13.2985C-1.59683 18.6834 0.723141 26.5975 3.70251 30.9502C5.19315 33.0817 6.93528 35.4625 9.21482 35.3781C11.4455 35.2856 12.2786 33.9557 14.9712 33.9557C17.6388 33.9557 18.4205 35.3781 20.7463 35.3244C23.1399 35.2855 24.648 33.1835 26.0863 31.0319C27.1573 29.5132 27.9815 27.8347 28.5282 26.0585C27.1376 25.4704 25.9509 24.4859 25.116 23.2278C24.2812 21.9697 23.8351 20.4937 23.8335 18.9838V18.9838Z" fill="white"/>
<path d="M19.4405 5.97348C20.7456 4.40676 21.3886 2.393 21.2329 0.359863C19.239 0.569284 17.3972 1.52224 16.0744 3.02885C15.4277 3.76486 14.9324 4.62113 14.6168 5.54869C14.3012 6.47625 14.1715 7.45692 14.2351 8.43463C15.2324 8.4449 16.2191 8.22874 17.1207 7.80243C18.0224 7.37611 18.8156 6.75076 19.4405 5.97348Z" fill="white"/>
</svg>
