<svg width="59" height="27" viewBox="0 0 59 27" fill="none" xmlns="http://www.w3.org/2000/svg">
<g clip-path="url(#clip0_4463_1591)">
<path d="M54.1261 15.3013V25.5022C54.7043 25.4759 56.0583 25.3033 57.3318 24.0294C57.9617 23.3991 58.3746 22.7468 58.634 22.2145V15.3013H54.1261Z" fill="#DB9B2A"/>
<path d="M50.9761 0.989591C50.8966 0.989539 50.817 0.989455 50.7374 0.989344C50.5191 0.989128 50.3008 0.989351 50.0824 0.989646C49.8693 0.989864 49.6562 0.989747 49.4431 0.98964C49.0022 0.989431 48.5613 0.989555 48.1204 0.989862C47.6738 0.990172 47.2272 0.990326 46.7806 0.990293C46.7524 0.990291 46.7241 0.990289 46.695 0.990286C46.551 0.990275 46.407 0.990262 46.263 0.990247C45.2215 0.990148 44.1799 0.99039 43.1384 0.990813C42.1072 0.991232 41.0759 0.991504 40.0447 0.99158C39.9966 0.991583 39.9966 0.991583 39.9476 0.991587C39.6549 0.991609 39.3623 0.991629 39.0696 0.991648C38.3422 0.991693 37.6147 0.99176 36.8872 0.991843C36.8376 0.991849 36.8376 0.991849 36.7869 0.991855C35.176 0.99204 33.5652 0.992485 31.9543 0.992952C31.3954 0.993114 30.8365 0.993274 30.2776 0.99343C30.2256 0.993445 30.2256 0.993445 30.1725 0.993459C28.5607 0.993907 26.9488 0.99417 25.337 0.994386C25.2323 0.9944 25.1277 0.994414 25.023 0.994428C24.3294 0.994521 23.6358 0.994611 22.9423 0.994699C21.5622 0.994874 20.1822 0.995067 18.8022 0.995274C18.7365 0.995283 18.6707 0.995293 18.605 0.995303C15.647 0.995744 12.689 0.996404 9.73095 0.997157C9.6894 0.997168 9.68941 0.997168 9.64703 0.997179C8.26197 0.997532 6.87692 0.997897 5.49187 0.998278C5.42414 1.11666 5.35644 1.23505 5.28874 1.35345C5.2697 1.38674 5.25066 1.42002 5.23104 1.45431C5.08895 1.70285 4.94867 1.95229 4.81017 2.20284C4.77656 2.26349 4.74295 2.32413 4.70934 2.38477C4.67511 2.44653 4.6409 2.5083 4.6067 2.57007C4.49601 2.76986 4.38503 2.9695 4.27407 3.16914C4.14123 3.40821 4.00842 3.64729 3.87572 3.88642C3.66208 4.27132 3.44804 4.65599 3.23276 5.03997C2.95011 5.5441 2.6697 6.04947 2.38928 6.55485C2.1335 7.01576 1.87715 7.47634 1.6193 7.93611C1.43816 8.25929 1.25821 8.58314 1.07858 8.90717C1.05769 8.94482 1.03681 8.98247 1.01529 9.02127C0.995895 9.05659 0.976498 9.09191 0.956516 9.1283C0.924362 9.18517 0.890987 9.24141 0.855377 9.29618C0.789188 9.39815 0.761303 9.45756 0.766792 9.58049C0.804054 9.74808 0.869408 9.88466 0.947296 10.0368C0.962856 10.0679 0.97842 10.099 0.994457 10.131C1.04593 10.2337 1.0979 10.3361 1.14986 10.4385C1.18612 10.5105 1.22233 10.5826 1.25851 10.6547C1.35404 10.8449 1.44998 11.0349 1.54601 11.2248C1.68 11.49 1.81344 11.7554 1.94693 12.0208C2.01785 12.1618 2.08894 12.3027 2.16016 12.4436C2.32625 12.7726 2.48952 13.1026 2.64773 13.4355C2.83565 13.8309 3.03029 14.2228 3.22667 14.614C3.28767 14.7356 3.34858 14.8571 3.40946 14.9787C3.54963 15.2587 3.68994 15.5385 3.83026 15.8184C3.96964 16.0963 4.10896 16.3744 4.24819 16.6524C4.30738 16.7706 4.36666 16.8887 4.42595 17.0068C4.6186 17.3912 4.80888 17.7765 4.99228 18.1654C5.09907 18.391 5.21007 18.6144 5.32187 18.8375C5.33824 18.8702 5.35461 18.9029 5.37147 18.9366C5.41159 19.0168 5.45173 19.0969 5.49187 19.1771C5.53099 19.1771 5.57011 19.1771 5.61042 19.1771C6.94999 19.1776 8.28956 19.1781 9.62914 19.1786C9.66962 19.1786 9.66962 19.1786 9.71092 19.1787C12.6039 19.1798 15.4969 19.1811 18.3898 19.1827C18.4541 19.1827 18.5184 19.1828 18.5827 19.1828C19.9323 19.1835 21.2819 19.1843 22.6315 19.1851C23.3096 19.1855 23.9875 19.1859 24.6656 19.1863C24.7678 19.1863 24.8701 19.1864 24.9724 19.1865C26.5464 19.1874 28.1204 19.1882 29.6945 19.1887C29.7283 19.1887 29.7621 19.1888 29.797 19.1888C30.3422 19.189 30.8875 19.1891 31.4327 19.1893C33.004 19.1899 34.5753 19.1904 36.1466 19.1914C36.1951 19.1914 36.1951 19.1914 36.2446 19.1915C36.9547 19.1919 37.6648 19.1924 38.375 19.1928C38.6607 19.193 38.9465 19.1932 39.2323 19.1934C39.2636 19.1934 39.2948 19.1935 39.3271 19.1935C40.3332 19.1942 41.3394 19.1945 42.3456 19.1946C43.3599 19.1948 44.3742 19.1953 45.3885 19.1963C45.529 19.1964 45.6695 19.1965 45.81 19.1966C45.8513 19.1967 45.8513 19.1967 45.8934 19.1967C46.3277 19.1971 46.7621 19.1971 47.1964 19.197C47.6245 19.1969 48.0526 19.1971 48.4806 19.1978C48.7092 19.1981 48.9378 19.1983 49.1664 19.198C50.0513 19.197 50.9256 19.1966 51.8037 19.3183C51.8519 19.3247 51.8519 19.3247 51.9011 19.3313C52.0796 19.3553 52.2572 19.3824 52.4346 19.4131C52.4735 19.4197 52.4735 19.4197 52.5132 19.4265C54.2112 19.7167 55.9209 20.2689 57.3455 21.2597C57.3756 21.2802 57.3756 21.2802 57.4062 21.3011C57.8064 21.5748 58.1712 21.884 58.5319 22.2076C58.581 22.248 58.581 22.248 58.6163 22.248C58.6195 20.3432 58.622 18.4384 58.6235 16.5335C58.6237 16.3085 58.6239 16.0834 58.624 15.8584C58.6241 15.8136 58.6241 15.7688 58.6242 15.7226C58.6248 14.9978 58.6259 14.2731 58.6272 13.5483C58.6285 12.8043 58.6293 12.0602 58.6296 11.3161C58.6298 10.8573 58.6304 10.3984 58.6315 9.93955C58.6323 9.62458 58.6325 9.30961 58.6323 8.99464C58.6322 8.81312 58.6324 8.6316 58.6331 8.45009C58.6338 8.28349 58.6338 8.1169 58.6334 7.95031C58.6333 7.89044 58.6335 7.83056 58.6339 7.77069C58.6377 7.22758 58.5394 6.7237 58.3626 6.20924C58.3522 6.1787 58.3418 6.14816 58.3311 6.11669C57.9905 5.14125 57.4523 4.13347 56.6939 3.41637C56.6367 3.36048 56.5866 3.3015 56.5359 3.23974C56.4182 3.10048 56.2848 2.98599 56.1454 2.8691C56.1137 2.84176 56.082 2.81441 56.0493 2.78624C54.6154 1.56394 52.8461 0.984671 50.9761 0.989591Z" fill="#F3C72D"/>
<path d="M11.162 15.1758V5.37578H15.95C17.182 5.37578 18.106 5.60911 18.722 6.07578C19.3473 6.54245 19.66 7.15845 19.66 7.92378C19.66 8.43711 19.534 8.88511 19.282 9.26778C19.03 9.64111 18.6847 9.93045 18.246 10.1358C17.8073 10.3411 17.3033 10.4438 16.734 10.4438L17 9.86978C17.616 9.86978 18.162 9.97245 18.638 10.1778C19.114 10.3738 19.4827 10.6678 19.744 11.0598C20.0147 11.4518 20.15 11.9324 20.15 12.5018C20.15 13.3418 19.8187 13.9998 19.156 14.4758C18.4933 14.9424 17.518 15.1758 16.23 15.1758H11.162ZM13.416 13.4678H16.062C16.65 13.4678 17.0933 13.3744 17.392 13.1878C17.7 12.9918 17.854 12.6838 17.854 12.2638C17.854 11.8531 17.7 11.5498 17.392 11.3538C17.0933 11.1484 16.65 11.0458 16.062 11.0458H13.248V9.39378H15.67C16.2207 9.39378 16.6407 9.30045 16.93 9.11378C17.2287 8.91778 17.378 8.62378 17.378 8.23178C17.378 7.84911 17.2287 7.56445 16.93 7.37778C16.6407 7.18178 16.2207 7.08378 15.67 7.08378H13.416V13.4678ZM23.9531 9.32378H28.6711V11.0878H23.9531V9.32378ZM24.1211 13.3558H29.4551V15.1758H21.8671V5.37578H29.2731V7.19578H24.1211V13.3558ZM33.2897 15.1758V7.22378H30.1537V5.37578H38.6937V7.22378H35.5577V15.1758H33.2897ZM38.1338 15.1758L42.5018 5.37578H44.7418L49.1238 15.1758H46.7438L43.1598 6.52378H44.0558L40.4578 15.1758H38.1338ZM40.3178 13.0758L40.9198 11.3538H45.9598L46.5758 13.0758H40.3178Z" fill="black"/>
</g>
<defs>
<clipPath id="clip0_4463_1591">
<rect width="59" height="26" fill="white" transform="matrix(-1 0 0 1 59 0.337891)"/>
</clipPath>
</defs>
</svg>
