<svg width="39" height="43" viewBox="0 0 39 43" fill="none" xmlns="http://www.w3.org/2000/svg">
<path d="M17.317 20.5747L0.194519 38.7474C0.196127 38.7506 0.196127 38.7538 0.197735 38.757C0.722008 40.7319 2.5248 42.1841 4.66371 42.1841C5.51927 42.1841 6.32176 41.9525 7.01007 41.5472L7.06475 41.5151L26.3374 30.3944L17.317 20.5747Z" fill="#EB4335"/>
<path d="M34.6391 17.4804L34.623 17.4691L26.3022 12.6445L16.928 20.9863L26.3343 30.391L34.6117 25.6163C36.0623 24.8331 37.0466 23.3037 37.0466 21.5395C37.0466 19.7882 36.0752 18.2652 34.6391 17.4804Z" fill="#FABC13"/>
<path d="M0.194575 4.25635C0.0916501 4.63588 0.036972 5.03311 0.036972 5.44641V37.5573C0.036972 37.9706 0.090042 38.3695 0.194575 38.7474L17.9057 21.0395L0.194575 4.25635Z" fill="#547DBF"/>
<path d="M17.4425 21.5008L26.3052 12.6412L7.05349 1.48031C6.35392 1.06057 5.53857 0.819336 4.66371 0.819336C2.5248 0.819336 0.7204 2.27476 0.194519 4.25123V4.25606L17.4425 21.5008Z" fill="#30A851"/>
</svg>
