<svg width="150" height="150" viewBox="0 0 150 150" fill="none" xmlns="http://www.w3.org/2000/svg">
<g clip-path="url(#clip0_4565_211)">
<path d="M49.7597 0H0V49.7597H49.7597V0ZM42.8463 42.8463H6.91348V6.91348H42.8463V42.8463Z" fill="white"/>
<path d="M35.6768 14.083H14.083V35.6768H35.6768V14.083Z" fill="white"/>
<path d="M100.24 0V49.7597H150V0H100.24ZM143.087 42.8463H107.154V6.91348H143.087V42.8463Z" fill="white"/>
<path d="M135.917 14.083H114.323V35.6768H135.917V14.083Z" fill="white"/>
<path d="M0 149.363H49.7597V99.603H0V149.363ZM6.91348 106.517H42.8463V142.449H6.91348V106.517Z" fill="white"/>
<path d="M35.6768 113.686H14.083V135.279H35.6768V113.686Z" fill="white"/>
<path d="M14.083 56.8511H0V63.9975H14.083V56.8511Z" fill="white"/>
<path d="M42.7183 64.3388H49.8981V71.1808H35.6768V72.1587V78.3283V85.4529V92.5993V92.6028H42.7183V92.5993H57.1426V85.4529H42.7183V78.3283H57.1426V85.4494H64.1841V78.3283V72.1587V71.1808H56.9396V57.167H49.8981V57.1912H42.7183V64.3388Z" fill="white"/>
<path d="M85.1379 78.3271V85.4747H78.0964V92.5992H71.0549V99.7503H64.1841V106.852H57.1426V92.6027L64.1841 92.5992V85.4528H71.2256V78.3271H85.1379Z" fill="white"/>
<path d="M99.6763 113.685V106.852V106.538V99.7051H92.6349V106.538H71.2256V113.685H78.1817V121.257H71.2256V113.685H64.1841V121.11H56.9661V128.257H64.1841V135.279H56.9661V149.362H64.1841H70.8784H71.2256V135.279H78.1817V128.121H85.2232V113.685H99.6763Z" fill="white"/>
<path d="M92.2647 135.28V142.426H113.717V149.574H135.365V142.426H120.715V135.28V128.122H113.674V135.28H92.2647Z" fill="white"/>
<path d="M92.2647 142.426H78.267V149.573H92.2647V142.426Z" fill="white"/>
<path d="M99.8147 71.1812H85.1378V78.3276H99.8147V71.1812Z" fill="white"/>
<path d="M141.877 78.3329V85.3859H148.889V92.545H141.848V85.3859H134.807V92.545H127.765V85.3859H120.772V71.1853L134.727 71.1726V64.2245H127.511V57.0781H141.77V64.2245H141.768V71.1853H149.103V78.3329H141.877Z" fill="white"/>
<path d="M78.0964 92.6026V99.749H85.1379V92.6222H92.1793V85.4746H85.1379V92.6026H78.0964Z" fill="white"/>
<path d="M92.2647 128.122H85.2232V135.28H92.2647V128.122Z" fill="white"/>
<path d="M134.805 128.114H127.764V135.272H134.805V128.114Z" fill="white"/>
<path d="M106.731 85.4746H99.689V92.621H106.731V85.4746Z" fill="white"/>
<path d="M99.8147 71.1804H106.856V64.2335H121.072V57.0859H99.8147V64.2335V71.1804Z" fill="white"/>
<path d="M7.04148 71.1509H0V92.6028H7.04148V71.1509Z" fill="white"/>
<path d="M63.9465 57.191H64.1841V71.1806H71.2256V63.8208H78.267V57.191H88.7428V57.1668H92.6729V28.5257H85.6314V35.9512H78.267V42.9927H85.6314V50.1495H78.267V42.9927H71.2256V50.1495H63.9811V28.6411H71.0226V0H63.9811V7.16027H56.9396V21.4808H63.9811V28.5257H56.9396V57.1668H63.9465V57.191Z" fill="white"/>
<path d="M141.848 106.772V114.245H134.806V106.772H127.762V92.5463H120.768V85.3872H113.727V92.6224H106.731V113.686H99.6763V120.833H106.066V128.123H113.674V120.833H120.715V113.668L120.72 113.678H127.762V113.648L127.765 113.678V120.825H134.806V128.115H141.848V142.35H148.889V106.773H141.848V106.772ZM120.715 106.529H113.772V99.6582H120.72L120.715 106.529Z" fill="white"/>
<path d="M141.847 92.5464H134.805V106.772H141.847V92.5464Z" fill="white"/>
<path d="M127.765 120.824H120.72V128.113H127.765V120.824Z" fill="white"/>
<path d="M92.6176 7.04149V0H85.6314H80.2517H78.267V14.4428H85.6314V7.04149H92.6176Z" fill="white"/>
<path d="M85.6314 21.4844H78.267V28.5259H85.6314V21.4844Z" fill="white"/>
<path d="M92.9958 14.4434H85.6314V21.4848H92.9958V14.4434Z" fill="white"/>
<path d="M28.1659 85.4492H21.1245V92.6026H28.1659V85.4492Z" fill="white"/>
<path d="M28.1659 78.6434V57.1914H21.1245V63.9988H14.083V85.4496H21.1245V78.6434H28.1659Z" fill="white"/>
</g>
<defs>
<clipPath id="clip0_4565_211">
<rect width="150" height="149.573" fill="white"/>
</clipPath>
</defs>
</svg>
